<svg width="306" height="306" viewBox="0 0 306 306" xmlns="http://www.w3.org/2000/svg"><defs><linearGradient x1="0%" y1="0%" x2="98.712%" y2="98.712%" id="a"><stop stop-color="#40C3F7" offset="0%"/><stop stop-color="#0B69A3" offset="100%"/></linearGradient></defs><g fill="none" fill-rule="evenodd"><path d="M40 0h226c22.091 0 40 17.909 40 40v226c0 22.091-17.909 40-40 40H40c-22.091 0-40-17.909-40-40V40C0 17.909 17.909 0 40 0z" fill="url(#a)"/><path d="M76.999 182l-5.8-16.831h-24.17L41.183 182H31.076l22.896-63.413h10.59L87.459 182h-10.46zm-18.237-51.9l-9.229 26.807h19.16l-9.184-26.806h-.747zM97.565 182v-47.856h9.405V182h-9.405zm4.703-56.162c-3.296 0-5.977-2.769-5.977-6.152 0-3.428 2.68-6.197 5.977-6.197 3.295 0 5.976 2.769 5.976 6.197 0 3.383-2.68 6.152-5.976 6.152zm36.079 56.953c-12.173 0-19.864-9.58-19.864-24.741 0-15.117 7.779-24.697 19.864-24.697 6.548 0 12.085 3.12 14.677 8.393h.704v-26.28h9.448V182h-9.053v-7.559h-.747c-2.856 5.23-8.438 8.35-15.03 8.35zm2.68-40.957c-7.954 0-12.788 6.152-12.788 16.216 0 10.151 4.79 16.26 12.788 16.26 7.954 0 12.876-6.197 12.876-16.216 0-9.976-4.965-16.26-12.876-16.26zm56.514 41.089c-14.019 0-22.588-9.36-22.588-24.873 0-15.425 8.613-24.83 22.588-24.83 13.93 0 22.544 9.405 22.544 24.83 0 15.512-8.57 24.873-22.544 24.873zm0-8.394c8.174 0 12.832-6.064 12.832-16.48 0-10.37-4.658-16.435-12.832-16.435-8.218 0-12.832 6.065-12.832 16.436 0 10.459 4.614 16.48 12.832 16.48zm54.097 8.394c-14.019 0-22.588-9.36-22.588-24.873 0-15.425 8.613-24.83 22.588-24.83 13.93 0 22.544 9.405 22.544 24.83 0 15.512-8.57 24.873-22.544 24.873zm0-8.394c8.174 0 12.832-6.064 12.832-16.48 0-10.37-4.658-16.435-12.832-16.435-8.218 0-12.832 6.065-12.832 16.436 0 10.459 4.614 16.48 12.832 16.48z" fill="#FFF" fill-rule="nonzero"/></g></svg>