<svg xmlns="http://www.w3.org/2000/svg"><symbol viewBox="0 0 512 512" id="build1" xmlns="http://www.w3.org/2000/svg"><style>.ast0{fill:#16ade1}.ast1{fill:#1b3954}</style><g id="aLayer_2"><path class="ast1" d="M159.23 408.61H38.02c-1.94 0-3.79-.8-5.12-2.22-1.32-1.42-2-3.32-1.87-5.26l5.64-82.36a6.999 6.999 0 0 1 11.91-4.49c13.39 13.29 31.16 20.6 50.04 20.6 18.87 0 36.64-7.31 50.04-20.59a7.007 7.007 0 0 1 9.9.04 7.007 7.007 0 0 1-.04 9.9c-16.04 15.9-37.31 24.65-59.89 24.65-17.76 0-34.7-5.41-48.92-15.45l-4.19 61.18H151.7l-3.12-42.22c-.29-3.86 2.61-7.21 6.46-7.5 3.83-.28 7.21 2.61 7.5 6.46l3.68 49.73c.14 1.94-.53 3.85-1.85 5.28a7.004 7.004 0 0 1-5.14 2.25zM98.62 307.52c-24.11 0-43.73-19.62-43.73-43.73 0-16.73 9.31-31.74 24.31-39.18 6.06-3.01 12.59-4.54 19.42-4.54 24.11 0 43.73 19.62 43.73 43.73 0 6.82-1.52 13.36-4.53 19.42-7.46 14.99-22.48 24.3-39.2 24.3zm0-73.45c-4.64 0-9.08 1.04-13.19 3.08-10.21 5.06-16.54 15.27-16.54 26.64 0 16.39 13.33 29.73 29.73 29.73 11.37 0 21.58-6.33 26.66-16.53 2.04-4.11 3.07-8.55 3.07-13.2 0-16.39-13.34-29.72-29.73-29.72z"/><path class="ast1" d="M98.62 348.88c-22.59 0-43.87-8.76-59.9-24.66-16.25-16.09-25.19-37.55-25.19-60.43 0-46.92 38.17-85.1 85.09-85.1 9.6 0 19.04 1.59 28.05 4.74 24.27 8.46 43.82 28.02 52.31 52.31a85.045 85.045 0 0 1 4.74 28.05c0 22.88-8.95 44.35-25.21 60.44-16.03 15.9-37.3 24.65-59.89 24.65zm0-156.19c-39.2 0-71.09 31.9-71.09 71.1 0 19.11 7.48 37.04 21.05 50.48 13.39 13.29 31.16 20.61 50.04 20.61 18.87 0 36.64-7.31 50.04-20.59 13.58-13.45 21.06-31.38 21.06-50.5 0-8.03-1.33-15.92-3.96-23.44-7.09-20.29-23.42-36.63-43.7-43.7a70.837 70.837 0 0 0-23.44-3.96z"/><path class="ast0" d="M98.62 307.52c-24.11 0-43.73-19.62-43.73-43.73 0-16.73 9.31-31.74 24.31-39.18 6.06-3.01 12.59-4.54 19.42-4.54 24.11 0 43.73 19.62 43.73 43.73 0 6.82-1.52 13.36-4.53 19.42-7.46 14.99-22.48 24.3-39.2 24.3zm0-73.45c-4.64 0-9.08 1.04-13.19 3.08-10.21 5.06-16.54 15.27-16.54 26.64 0 16.39 13.33 29.73 29.73 29.73 11.37 0 21.58-6.33 26.66-16.53 2.04-4.11 3.07-8.55 3.07-13.2 0-16.39-13.34-29.72-29.73-29.72z"/><path class="ast1" d="M172.38 245.04a6.982 6.982 0 0 1-6.61-4.69c-7.09-20.29-23.42-36.63-43.7-43.7a6.982 6.982 0 0 1-4.55-5.21 7 7 0 0 1 2.15-6.58l75.05-68.26a7.003 7.003 0 0 1 9.89.47 7.003 7.003 0 0 1-.47 9.89l-67 60.94c16 8.17 29.21 21.38 37.39 37.39l76.45-84.05c-17.02-7.02-29.71-22.02-33.58-40.61a6.996 6.996 0 0 1 5.43-8.28c3.78-.79 7.49 1.64 8.28 5.43 3.47 16.69 17.06 29.97 33.81 33.05 2.5.46 4.55 2.24 5.37 4.65s.26 5.07-1.45 6.95l-91.26 100.33a7.1 7.1 0 0 1-5.2 2.28zm84.97-132.11c-1.63 0-3.27-.57-4.59-1.72l-.95-.82a6.995 6.995 0 0 1-.38-10.2 7.102 7.102 0 0 1 4.98-2.1h.02c1.85 0 3.65.71 4.97 2.02.16.16.32.31.48.46l.33.32c2.74 2.63 2.87 6.97.31 9.77a6.99 6.99 0 0 1-5.17 2.27z"/><path class="ast1" d="M272.66 145.53c-3.48 0-6.95-.32-10.3-.94-22.62-4.16-40.28-21.42-44.97-43.96a57.23 57.23 0 0 1-1.18-11.55c0-31.12 25.32-56.44 56.45-56.44 3.87 0 7 3.13 7 7s-3.13 7-7 7c-23.41 0-42.45 19.04-42.45 42.44 0 2.93.3 5.86.89 8.7 3.47 16.68 17.06 29.96 33.81 33.04 2.52.47 5.13.71 7.75.71 5.35 0 10.55-.98 15.47-2.91 10.32-4.04 18.82-12.16 23.32-22.3a42.074 42.074 0 0 0 3.66-17.25c0-9.75-3.39-19.27-9.54-26.81a7.002 7.002 0 0 1 10.85-8.85c8.19 10.03 12.7 22.7 12.7 35.66 0 7.98-1.64 15.69-4.87 22.94-5.98 13.47-17.28 24.27-31 29.64-6.56 2.58-13.49 3.88-20.59 3.88z"/><path class="ast1" d="M294.61 51.77c-3.87 0-7-3.13-7-7s3.13-7 7-7h.01c3.87 0 7 3.13 7 7s-3.14 7-7.01 7zm-21.95 67.07c-7.38 0-14.47-2.72-19.95-7.67l-.9-.78c-.41-.35-.77-.75-1.08-1.18-5.06-5.51-7.83-12.62-7.83-20.12 0-7.94 3.09-15.41 8.71-21.03.09-.09.18-.18.28-.26 5.6-5.45 12.96-8.45 20.77-8.45 13.17 0 24.61 8.46 28.46 21.05.86 2.8 1.3 5.73 1.3 8.7 0 7.94-3.09 15.41-8.71 21.04-5.65 5.61-13.12 8.7-21.05 8.7zm-10.95-18.39l.24.21a15.753 15.753 0 0 0 10.7 4.18c4.2 0 8.16-1.64 11.15-4.62a15.69 15.69 0 0 0 4.6-11.14c0-1.58-.23-3.12-.68-4.6-2.04-6.67-8.1-11.15-15.07-11.15-4.2 0-8.15 1.64-11.14 4.62-.06.06-.13.12-.19.18-2.86 2.95-4.42 6.83-4.42 10.94 0 4.16 1.61 8.1 4.54 11.07.09.11.18.21.27.31z"/><path class="ast0" d="M272.66 118.84c-7.41 0-14.51-2.74-20.01-7.72-.05-.05-.1-.09-.15-.14l-.27-.26c-.24-.23-.48-.46-.72-.7-5.57-5.66-8.61-13.08-8.61-20.94 0-7.94 3.09-15.41 8.71-21.03.09-.09.18-.18.28-.26 5.6-5.45 12.96-8.45 20.77-8.45 13.17 0 24.61 8.46 28.46 21.05.86 2.8 1.3 5.73 1.3 8.7 0 7.94-3.09 15.41-8.71 21.04-5.65 5.62-13.12 8.71-21.05 8.71zm-10.55-18.04c2.9 2.6 6.64 4.04 10.54 4.04 4.2 0 8.16-1.64 11.15-4.62a15.69 15.69 0 0 0 4.6-11.14c0-1.58-.23-3.12-.68-4.6-2.04-6.67-8.1-11.15-15.07-11.15-4.2 0-8.15 1.64-11.14 4.62-.06.06-.13.12-.19.18-2.86 2.95-4.42 6.83-4.42 10.94 0 4.16 1.61 8.1 4.54 11.07.12.11.27.26.43.42l.24.24z"/><path class="ast1" d="M363.52 205.96c-1.68 0-3.32-.6-4.61-1.73l-72.84-63.82a6.993 6.993 0 0 1-2.28-6.47 6.989 6.989 0 0 1 4.35-5.31c10.32-4.04 18.81-12.16 23.31-22.29a7.002 7.002 0 0 1 11.67-1.77l63.04 71.95c1.51 1.73 2.08 4.09 1.52 6.32s-2.18 4.04-4.33 4.85c-6.21 2.33-11.03 7.28-13.21 13.58a7.012 7.012 0 0 1-4.82 4.48c-.6.13-1.2.21-1.8.21zm-60.49-69.31l58.38 51.15c2.31-3.34 5.17-6.25 8.46-8.64l-50.8-57.97a57.187 57.187 0 0 1-16.04 15.46z"/><path class="ast1" d="M342.99 301.08h-28.92c-3.87 0-7-3.13-7-7v-59.74c0-2.57 1.41-4.94 3.67-6.16l47.85-25.86a6.982 6.982 0 0 1 6.91.15 7 7 0 0 1 3.42 6.01c0 7.96 4.05 15.11 10.84 19.18a7.01 7.01 0 0 1 3.4 6.16 7.01 7.01 0 0 1-3.67 6l-29.5 15.94v38.31c0 3.87-3.13 7.01-7 7.01zm-21.92-14h14.92v-35.49c0-2.57 1.41-4.94 3.67-6.16l24.2-13.08a36.755 36.755 0 0 1-7.28-13.03l-35.51 19.19v48.57zm147.3 14h-28.92c-3.87 0-7-3.13-7-7v-38.31l-29.48-15.93a6.997 6.997 0 0 1-3.67-6 7.013 7.013 0 0 1 3.39-6.16c6.78-4.08 10.83-11.24 10.83-19.14 0-2.47 1.3-4.78 3.42-6.04 2.12-1.26 4.74-1.35 6.91-.17l47.85 25.86a7.004 7.004 0 0 1 3.67 6.16v59.74c0 3.85-3.13 6.99-7 6.99zm-21.91-14h14.92v-48.56l-35.51-19.19c-1.5 4.8-3.99 9.24-7.27 13.04l24.19 13.07a7.004 7.004 0 0 1 3.67 6.16v35.48z"/><path class="ast0" d="M391.23 244.83c-6.59 0-13.05-1.79-18.68-5.17-10.87-6.52-17.63-18.45-17.63-31.12.01-4.08.68-8.04 1.98-11.84 3.56-10.27 11.4-18.33 21.53-22.13 4.06-1.55 8.38-2.34 12.8-2.34 19.97 0 36.25 16.26 36.3 36.24v.07c0 12.67-6.75 24.6-17.62 31.13a36.368 36.368 0 0 1-18.68 5.16zm0-58.6c-2.71 0-5.36.48-7.85 1.43a22.221 22.221 0 0 0-13.24 13.59c-.79 2.33-1.21 4.78-1.22 7.25 0 7.94 4.05 15.08 10.84 19.15 3.46 2.08 7.42 3.17 11.47 3.17a22.3 22.3 0 0 0 11.48-3.17c6.77-4.07 10.82-11.23 10.82-19.13l7-.06-7 .01c-.03-12.25-10.03-22.24-22.3-22.24zm48.23 182.15H343c-3.87 0-7-3.13-7-7v-86.97c0-3.87 3.13-7 7-7h96.46c3.87 0 7 3.13 7 7v86.97c0 3.87-3.14 7-7 7zm-89.47-14h82.46v-72.97h-82.46v72.97z"/><path class="ast1" d="M290.98 412.35c-.46 0-.92-.05-1.37-.14-.44-.09-.88-.23-1.31-.4-.42-.18-.82-.39-1.2-.64-.39-.26-.74-.55-1.07-.87a7.079 7.079 0 0 1-2.05-4.95c0-.46.05-.92.14-1.37.09-.45.22-.89.4-1.31.17-.42.39-.83.64-1.21.26-.38.55-.74.87-1.06.33-.33.68-.62 1.07-.87.38-.26.78-.47 1.2-.65.43-.17.87-.31 1.31-.4 2.28-.45 4.7.29 6.32 1.92.33.32.62.68.87 1.06.26.38.47.79.65 1.21.17.42.31.86.4 1.31a7.036 7.036 0 0 1-1.92 6.32 7.061 7.061 0 0 1-4.95 2.05z"/><path class="ast1" d="M491.47 479.36H290.98c-3.87 0-7-3.13-7-7v-46.18c0-3.87 3.13-7 7-7s7 3.13 7 7v39.18h186.48v-96.97H297.98v16.13c0 3.87-3.13 7-7 7s-7-3.13-7-7v-23.13c0-3.87 3.13-7 7-7h200.48c3.87 0 7 3.13 7 7v110.97c.01 3.86-3.13 7-6.99 7zm-314.75 0H20.53c-3.87 0-7-3.13-7-7v-70.75c0-3.87 3.13-7 7-7h156.19c3.87 0 7 3.13 7 7v70.75c0 3.86-3.13 7-7 7zm-149.19-14h142.19v-56.75H27.53v56.75z"/></g></symbol><symbol viewBox="0 0 512 512" id="build10" xmlns="http://www.w3.org/2000/svg"><style>.bst0{fill:#16ade1}.bst1{fill:#1b3954}</style><g id="bLayer_2"><path class="bst1" d="M209.24 456.79H98.68c-1.86 0-3.64-.74-4.95-2.05l-78.18-78.18a7.001 7.001 0 0 1-2.05-4.95V261.04c0-1.86.74-3.64 2.05-4.95l78.18-78.18a7.001 7.001 0 0 1 4.95-2.05h110.56c3.87 0 7 3.13 7 7s-3.13 7-7 7H101.58L27.5 263.94V368.7l74.08 74.08h104.76l74.08-74.08V263.94l-49.33-49.33a7.007 7.007 0 0 1 0-9.9 7.007 7.007 0 0 1 9.9 0l51.38 51.38a7.001 7.001 0 0 1 2.05 4.95V371.6c0 1.86-.74 3.64-2.05 4.95l-78.18 78.18a6.969 6.969 0 0 1-4.95 2.06z"/><path class="bst0" d="M213.26 378.75c-.46 0-.92-.05-1.37-.14-.45-.09-.89-.22-1.31-.4-.42-.17-.83-.39-1.21-.64-.38-.26-.74-.55-1.07-.87-.32-.32-.61-.68-.86-1.07-.26-.38-.47-.78-.65-1.2-.17-.43-.31-.87-.4-1.31-.09-.45-.13-.91-.13-1.37s.04-.92.13-1.37c.09-.44.23-.89.4-1.31.18-.42.39-.83.65-1.21.25-.38.54-.74.86-1.06a7.001 7.001 0 0 1 2.28-1.51 6.968 6.968 0 0 1 5.35 0 7.001 7.001 0 0 1 2.28 1.51c.32.32.61.68.87 1.06.25.38.46.79.64 1.21.17.42.31.87.4 1.31.09.45.14.91.14 1.37s-.05.92-.14 1.37c-.09.44-.23.88-.4 1.31-.18.42-.39.83-.64 1.2-.26.39-.55.75-.87 1.07-.33.32-.69.61-1.07.87-.38.25-.79.47-1.21.64-.42.18-.86.31-1.31.4-.45.09-.91.14-1.36.14z"/><path class="bst0" d="M153.96 406.33c-49.63 0-90.01-40.38-90.01-90.01s40.38-90.01 90.01-90.01 90.01 40.38 90.01 90.01c0 14.92-3.73 29.69-10.78 42.74a7.002 7.002 0 1 1-12.32-6.66c5.95-11.01 9.09-23.48 9.09-36.08 0-41.91-34.1-76.01-76.01-76.01s-76.01 34.1-76.01 76.01 34.1 76.01 76.01 76.01c13.66 0 27.05-3.66 38.72-10.59 3.33-1.97 7.62-.88 9.59 2.45 1.97 3.33.88 7.62-2.45 9.59-13.82 8.21-29.68 12.55-45.85 12.55z"/><path class="bst1" d="M446.82 153.56h-95.77c-3.87 0-7-3.13-7-7v-32.13c0-3.87 3.13-7 7-7h95.77c3.87 0 7 3.13 7 7v32.13c0 3.86-3.14 7-7 7zm-88.77-14h81.77v-18.13h-81.77v18.13zm88.77 72.57h-95.77c-3.87 0-7-3.13-7-7v-22.26c0-3.87 3.13-7 7-7h95.77c3.87 0 7 3.13 7 7v22.26c0 3.86-3.14 7-7 7zm-88.77-14h81.77v-8.26h-81.77v8.26zm88.77 72.58h-95.77c-3.87 0-7-3.13-7-7v-22.26c0-3.87 3.13-7 7-7h95.77c3.87 0 7 3.13 7 7v22.26c0 3.87-3.14 7-7 7zm-88.77-14h81.77v-8.26h-81.77v8.26zm88.77 72.57h-95.77c-3.87 0-7-3.13-7-7v-22.26c0-3.87 3.13-7 7-7h95.77c3.87 0 7 3.13 7 7v22.26c0 3.87-3.14 7-7 7zm-88.77-14h81.77v-8.26h-81.77v8.26zm88.77 72.57h-95.77c-3.87 0-7-3.13-7-7v-22.26c0-3.87 3.13-7 7-7h95.77c3.87 0 7 3.13 7 7v22.26c0 3.87-3.14 7-7 7zm-88.77-14h81.77v-8.26h-81.77v8.26zm79.67 97.04a7.004 7.004 0 0 1-6.38-9.88l8.47-18.74v-18.1h-81.77v18.01l7.07 14.71h41.67c3.87 0 7 3.13 7 7s-3.13 7-7 7h-46.07a7 7 0 0 1-6.31-3.97l-9.66-20.11a7.07 7.07 0 0 1-.69-3.03v-26.61c0-3.87 3.13-7 7-7h95.77c3.87 0 7 3.13 7 7v26.61c0 .99-.21 1.98-.62 2.88l-9.09 20.11a7.032 7.032 0 0 1-6.39 4.12z"/><path class="bst1" d="M477.76 121.42H320.11c-1.5 0-2.96-.48-4.17-1.38l-13.74-10.2a7.005 7.005 0 0 1-2.83-5.62V60.37c0-1.78.68-3.49 1.89-4.79l11.27-12.03a6.997 6.997 0 0 1 5.11-2.21h162.6c1.94 0 3.79.8 5.11 2.21l11.27 12.03a7.034 7.034 0 0 1 1.89 4.79v43.86c0 2.22-1.05 4.3-2.83 5.62l-13.74 10.2a7.088 7.088 0 0 1-4.18 1.37zm-155.34-14h153.02l9.05-6.72V63.13l-7.3-7.79H320.67l-7.3 7.79v37.57l9.05 6.72z"/><path class="bst1" d="M477.76 121.42H320.11c-1.5 0-2.96-.48-4.17-1.38l-13.74-10.2a7.005 7.005 0 0 1-2.83-5.62V60.37c0-1.78.68-3.49 1.89-4.79l11.27-12.03a6.997 6.997 0 0 1 5.11-2.21h162.6c1.94 0 3.79.8 5.11 2.21l11.27 12.03a7.034 7.034 0 0 1 1.89 4.79v43.86c0 2.22-1.05 4.3-2.83 5.62l-13.74 10.2a7.088 7.088 0 0 1-4.18 1.37zm-155.34-14h153.02l9.05-6.72V63.13l-7.3-7.79H320.67l-7.3 7.79v37.57l9.05 6.72z"/><path class="bst1" d="M427.55 121.64h-57.23c-3.87 0-7-3.13-7-7V99.76c0-3.87 3.13-7 7-7s7 3.13 7 7v7.88h43.23V55.11h-50.23c-3.87 0-7-3.13-7-7s3.13-7 7-7h57.23c3.87 0 7 3.13 7 7v66.53c0 3.87-3.13 7-7 7z"/><path class="bst0" d="M447.47 189.86H350.4c-13.87 0-25.16-11.28-25.16-25.15 0-6.72 2.62-13.04 7.37-17.79s11.07-7.37 17.79-7.37h97.08c13.87 0 25.15 11.29 25.15 25.16 0 6.73-2.62 13.05-7.38 17.79-4.73 4.75-11.04 7.36-17.78 7.36zm-97.07-36.3c-2.98 0-5.79 1.16-7.89 3.27a11.082 11.082 0 0 0-3.27 7.89c0 6.15 5.01 11.15 11.16 11.15h97.08c2.98 0 5.78-1.16 7.87-3.26a11.05 11.05 0 0 0 3.28-7.89c0-6.15-5-11.16-11.15-11.16H350.4zm97.07 94.89H350.4c-13.87 0-25.16-11.29-25.16-25.16 0-6.72 2.62-13.04 7.37-17.79 4.77-4.75 11.09-7.37 17.79-7.37h97.08c13.87 0 25.15 11.29 25.15 25.16 0 6.72-2.62 13.04-7.37 17.79-4.76 4.75-11.07 7.37-17.79 7.37zm-97.07-36.32c-2.98 0-5.78 1.16-7.9 3.28-2.1 2.1-3.26 4.9-3.26 7.88 0 6.15 5.01 11.16 11.16 11.16h97.08c2.98 0 5.77-1.16 7.88-3.27 2.11-2.11 3.27-4.91 3.27-7.89 0-6.15-5-11.16-11.15-11.16H350.4zm97.07 94.89H350.4c-13.87 0-25.16-11.29-25.16-25.16 0-6.73 2.62-13.05 7.38-17.79 4.74-4.74 11.06-7.36 17.78-7.36h97.08c13.87 0 25.15 11.28 25.15 25.15 0 6.72-2.62 13.04-7.37 17.79-4.74 4.75-11.05 7.37-17.79 7.37zm-97.07-36.31c-2.98 0-5.79 1.16-7.89 3.27-2.11 2.1-3.27 4.9-3.27 7.88 0 6.15 5.01 11.16 11.16 11.16h97.08c2.98 0 5.78-1.16 7.87-3.26a11.09 11.09 0 0 0 3.28-7.9c0-6.15-5-11.15-11.15-11.15H350.4zm97.07 94.88H350.4c-13.87 0-25.16-11.28-25.16-25.15 0-6.72 2.62-13.04 7.37-17.79s11.07-7.37 17.79-7.37h97.08c13.87 0 25.15 11.29 25.15 25.16 0 6.73-2.62 13.05-7.38 17.79-4.73 4.74-11.04 7.36-17.78 7.36zm-97.07-36.31c-2.98 0-5.79 1.16-7.89 3.27a11.082 11.082 0 0 0-3.27 7.89c0 6.15 5.01 11.15 11.16 11.15h97.08c2.98 0 5.78-1.16 7.87-3.26a11.05 11.05 0 0 0 3.28-7.89c0-6.15-5-11.16-11.15-11.16H350.4zm97.07 94.88H350.4c-13.87 0-25.16-11.28-25.16-25.15 0-6.72 2.62-13.04 7.37-17.79 4.77-4.75 11.09-7.37 17.79-7.37h97.08c13.87 0 25.15 11.29 25.15 25.16 0 6.73-2.62 13.05-7.38 17.79-4.73 4.74-11.04 7.36-17.78 7.36zm-97.07-36.31c-2.98 0-5.78 1.16-7.9 3.28-2.1 2.1-3.26 4.9-3.26 7.88 0 6.15 5.01 11.15 11.16 11.15h97.08c2.98 0 5.78-1.16 7.87-3.26a11.05 11.05 0 0 0 3.28-7.89c0-6.15-5-11.16-11.15-11.16H350.4z"/><path class="bst1" d="M370.32 106.76c-3.87 0-7-3.13-7-7V48.11c0-3.87 3.13-7 7-7s7 3.13 7 7v51.65c0 3.87-3.14 7-7 7z"/></g></symbol><symbol viewBox="0 0 512 512" id="build11" xmlns="http://www.w3.org/2000/svg"><style>.cst1{fill:#1b3954}</style><g id="cLayer_2"><path d="M157.31 226.23c-1.79 0-3.58-.68-4.95-2.05l-26.78-26.78H73.01c-1.86 0-3.64-.74-4.95-2.05l-11.01-11.01a7.007 7.007 0 0 1 0-9.9 7.007 7.007 0 0 1 9.9 0l8.96 8.96h52.57c1.86 0 3.64.74 4.95 2.05l23.88 23.88 34.42-34.42c3.9-3.9 9.09-6.05 14.61-6.05h20.01l2.2-2.21c2.73-2.74 7.16-2.74 9.9-.01s2.74 7.16.01 9.9l-4.25 4.26a6.992 6.992 0 0 1-4.96 2.06h-22.91c-1.78 0-3.46.69-4.71 1.95l-39.37 39.37a7.015 7.015 0 0 1-4.95 2.05zM29.47 153.86c-1.79 0-3.58-.68-4.95-2.05l-5.08-5.08a7.001 7.001 0 0 1-2.05-4.95l-.01-68.77c0-1.87.75-3.66 2.07-4.97l1.09-1.08a7.01 7.01 0 0 1 9.88.02l63.61 63.61 36.55-36.56-63.61-63.61a7.007 7.007 0 0 1 0-9.9l1.09-1.09a7.001 7.001 0 0 1 4.95-2.05l68.76.01c1.86 0 3.64.74 4.95 2.05l48.61 48.62a7.001 7.001 0 0 1 2.05 4.95v52.57l13.68 13.67a7.007 7.007 0 0 1 0 9.9 7.007 7.007 0 0 1-9.9 0l-15.73-15.73a7.001 7.001 0 0 1-2.05-4.95V75.91L138.87 31.4l-51.14-.01 57.7 57.7a7.007 7.007 0 0 1 0 9.9l-46.45 46.46a7.001 7.001 0 0 1-9.9 0l-57.7-57.7.01 51.14 3.03 3.03a7.007 7.007 0 0 1 0 9.9 6.987 6.987 0 0 1-4.95 2.04zm15.71 15.71c-1.84 0-3.64-.75-4.95-2.05-1.3-1.3-2.05-3.1-2.05-4.95a7.043 7.043 0 0 1 .54-2.68c.17-.42.39-.83.64-1.21.26-.38.55-.74.87-1.06 1.31-1.3 3.11-2.05 4.95-2.05s3.65.75 4.95 2.05c.33.32.62.68.87 1.06s.47.79.65 1.21c.17.43.3.87.39 1.31.09.45.14.91.14 1.37 0 1.84-.75 3.65-2.05 4.95-.32.32-.68.61-1.06.87-.38.25-.79.47-1.21.64-.42.18-.86.31-1.31.4s-.91.14-1.37.14zm393.81 325.05l-68.76-.01c-1.86 0-3.64-.74-4.95-2.05l-48.62-48.62a7.001 7.001 0 0 1-2.05-4.95v-52.57l-6.14-6.14a7.007 7.007 0 0 1 0-9.9 7.007 7.007 0 0 1 9.9 0l8.19 8.19a7.001 7.001 0 0 1 2.05 4.95v52.57l44.52 44.51 51.13.01-57.7-57.7a7.001 7.001 0 0 1 0-9.9l46.46-46.45c2.74-2.73 7.17-2.73 9.9 0l57.69 57.7-.01-51.14-44.51-44.51h-52.57c-1.86 0-3.64-.74-4.95-2.05l-27.81-27.81-45.61 45.6c-4.06 4.06-8.41 7.83-12.94 11.21a7.012 7.012 0 0 1-9.8-1.42 7.012 7.012 0 0 1 1.42-9.8c3.98-2.97 7.82-6.3 11.41-9.89l50.38-50.38c.05-.05.1-.1.15-.14l.17-.16c2.75-2.6 7.08-2.54 9.75.14l30.71 30.71h52.57c1.86 0 3.64.74 4.95 2.05l48.61 48.61a7.001 7.001 0 0 1 2.05 4.95l.01 68.76c0 1.86-.74 3.64-2.05 4.95l-1.09 1.09a7.001 7.001 0 0 1-9.9 0l-63.61-63.61-36.56 36.55L445 481.59c1.32 1.32 2.05 3.11 2.05 4.97s-.75 3.65-2.08 4.96l-1.09 1.08c-1.27 1.29-3.04 2.02-4.89 2.02z" fill="#16ade1"/><path class="cst1" d="M220.73 379.33c-3.87 0-7-3.13-7-7s3.13-7 7-7c22.59 0 45-7.46 63.11-20.99 3.99-2.98 7.83-6.3 11.42-9.89l50.38-50.38c.05-.05.1-.1.15-.14l.1-.09 6.17-6.17c5.5-5.5 8.53-12.81 8.53-20.59 0-7.78-3.03-15.09-8.53-20.59l-18.31-18.31a7.007 7.007 0 0 1 0-9.9 7.007 7.007 0 0 1 9.9 0l18.31 18.31c8.14 8.14 12.63 18.97 12.63 30.49s-4.49 22.35-12.63 30.49l-6.24 6.24c-.05.05-.1.09-.15.14l-.1.09-50.31 50.31c-4.06 4.06-8.41 7.83-12.94 11.21-20.5 15.33-45.89 23.77-71.49 23.77zm100.79-176.29c-1.84 0-3.64-.75-4.95-2.05-.32-.32-.61-.68-.87-1.07a7.043 7.043 0 0 1-1.18-3.88c0-1.84.75-3.65 2.05-4.95 1.63-1.63 4.05-2.37 6.32-1.91.45.09.89.22 1.31.4a6.818 6.818 0 0 1 2.27 1.51 7.043 7.043 0 0 1 1.92 6.32c-.09.44-.23.88-.4 1.31-.18.42-.39.82-.65 1.2-.25.39-.54.75-.87 1.07-.32.32-.68.61-1.06.87-.38.25-.79.47-1.21.64-.42.18-.86.31-1.31.4-.45.09-.91.14-1.37.14z"/><path class="cst1" d="M196 404.05c-1.79 0-3.58-.68-4.95-2.05l-78.14-78.14a7.007 7.007 0 0 1 0-9.9l27-27v-51.67c0-5.44 2.21-10.76 6.06-14.61l45.77-45.77c3.9-3.9 9.09-6.05 14.61-6.05h20.01l8.45-8.46c.52-.51 1.23-1.19 2-1.86 17.02-15.02 42.92-14.21 58.98 1.86l15.2 15.2a7.007 7.007 0 0 1 0 9.9 7.007 7.007 0 0 1-9.9 0l-15.2-15.2c-10.86-10.86-28.36-11.4-39.85-1.23-.03.03-.06.05-.09.08-.36.3-.77.69-1.29 1.2l-10.44 10.45a6.992 6.992 0 0 1-4.96 2.06h-22.91c-1.78 0-3.46.69-4.71 1.95l-45.77 45.77a6.68 6.68 0 0 0-1.96 4.71v54.57c0 1.86-.74 3.64-2.05 4.95l-24.1 24.1 73.19 73.19a7.007 7.007 0 0 1 0 9.9 6.973 6.973 0 0 1-4.95 2.05z"/><path class="cst1" d="M180 450.8c-1.86 0-3.64-.74-4.95-2.05L63.92 337.62a7.007 7.007 0 0 1 0-9.9l31.38-31.38a7.007 7.007 0 0 1 9.9 0l111.13 111.13a7.007 7.007 0 0 1 0 9.9l-31.38 31.38a7.001 7.001 0 0 1-4.95 2.05zM78.77 332.67L180 433.9l21.48-21.48-101.24-101.23-21.47 21.48z"/></g></symbol><symbol viewBox="0 0 512 512" id="build12" xmlns="http://www.w3.org/2000/svg"><style>.dst0{fill:#16ade1}.dst1{fill:#1b3954}</style><g id="dLayer_2"><path class="dst0" d="M215.93 268.31c-1.86 0-3.64-.74-4.95-2.05l-23.16-23.16a7.007 7.007 0 0 1 0-9.9l5.03-5.03-2.54-11.71c-.5-2.33.21-4.75 1.89-6.43l10.86-10.86a7.007 7.007 0 0 1 9.9 0l41.94 41.94a7.001 7.001 0 0 1 0 9.9l-10.86 10.86a6.99 6.99 0 0 1-6.43 1.89l-11.71-2.54-5.03 5.03a6.929 6.929 0 0 1-4.94 2.06zm-13.26-30.16l13.26 13.26 2.78-2.78a6.99 6.99 0 0 1 6.43-1.89l11.71 2.54 3.21-3.21-32.04-32.04-3.21 3.21 2.54 11.71c.5 2.33-.21 4.75-1.89 6.43l-2.79 2.77z"/><path class="dst0" d="M130.33 325.69a6.98 6.98 0 0 1-5.91-3.25c-11.9-18.77-9.12-43.82 6.63-59.56l21.75-21.21.1-.1 17.26-16.16 5.16-4.94c2.75-2.63 7.1-2.59 9.79.1l49.33 49.33a6.997 6.997 0 0 1 2.05 5.02 7 7 0 0 1-2.16 4.98l-44.16 42.3a6.994 6.994 0 0 1-9.79-.1l-21.78-21.78-23.31 23.31a7.02 7.02 0 0 1-4.96 2.06zm28.26-42.26c1.79 0 3.58.68 4.95 2.05l21.89 21.89 34.05-32.62-39.43-39.43-.24.23c-.02.02-.04.04-.06.05l-17.23 16.14-21.63 21.1c-8.9 8.9-11.93 22.09-8.42 33.82l21.18-21.18a6.958 6.958 0 0 1 4.94-2.05zm16.37-52.93zm149.15 229.62c-10.54 0-20.47-5.12-26.58-13.69l-81.4-110.67c-2.29-3.11-1.62-7.5 1.49-9.79 3.11-2.29 7.5-1.62 9.79 1.49l81.44 110.71c.02.03.05.06.07.1 3.54 4.98 9.07 7.84 15.19 7.84 4.96 0 9.62-1.94 13.14-5.45 3.52-3.51 5.45-8.19 5.45-13.16s-1.94-9.64-5.45-13.16L231.03 308.13l-14.53 14.53a7.007 7.007 0 0 1-9.9 0 7.007 7.007 0 0 1 0-9.9l19.48-19.48a7.007 7.007 0 0 1 9.9 0l111.16 111.16c6.16 6.16 9.55 14.35 9.55 23.06 0 8.71-3.39 16.9-9.55 23.06-6.15 6.16-14.33 9.56-23.03 9.56z"/><path class="dst0" d="M196.96 460.12c-8.12 0-15.96-3.23-21.73-9-11.97-11.97-11.97-31.45 0-43.42l46.01-46.01a7.007 7.007 0 0 1 9.9 0 7.007 7.007 0 0 1 0 9.9l-46.01 46.01c-6.51 6.52-6.51 17.12 0 23.63 3.41 3.41 7.92 5.14 12.73 4.88 4.8-.26 9.11-2.47 12.12-6.23l43.16-53.79-20.29-27.59c-2.29-3.11-1.62-7.5 1.49-9.79a7.007 7.007 0 0 1 9.79 1.49l23.48 31.92a6.995 6.995 0 0 1-.18 8.53l-46.52 57.99a30.744 30.744 0 0 1-22.27 11.45c-.57.01-1.13.03-1.68.03zm90.42-98.54c-1.79 0-3.58-.68-4.95-2.05l-24.56-24.56a7.007 7.007 0 0 1 0-9.9l30.48-30.49-7.72-28.81c-.65-2.42.04-4.99 1.81-6.76l36.83-36.83a6.99 6.99 0 0 1 6.76-1.81l26.29 7.05c2.42.65 4.3 2.54 4.95 4.95.65 2.42-.04 4.99-1.81 6.76l-26.84 26.84 4.34 16.21 16.21 4.34 26.84-26.84a6.99 6.99 0 0 1 6.76-1.81c2.42.65 4.3 2.53 4.95 4.95l7.05 26.29c.65 2.42-.04 4.99-1.81 6.76l-36.83 36.83a6.99 6.99 0 0 1-6.76 1.81l-30.38-8.14-15.6 19.45c-2.42 3.01-6.83 3.5-9.84 1.08a6.995 6.995 0 0 1-1.08-9.84l18.46-23.01a6.988 6.988 0 0 1 7.27-2.38l30.89 8.28 31.11-31.11-2.86-10.68-21.12 21.12a6.985 6.985 0 0 1-6.76 1.81l-24.02-6.43a7.012 7.012 0 0 1-4.95-4.95l-6.43-24.02c-.65-2.42.04-4.99 1.81-6.76l21.12-21.12-10.68-2.86-31.11 31.11 7.72 28.81c.65 2.42-.04 4.99-1.81 6.76l-28.39 28.4 19.61 19.61a7.007 7.007 0 0 1 0 9.9 7.047 7.047 0 0 1-4.95 2.04z"/><path class="dst1" d="M491.5 249.42h-76.43a7 7 0 0 1-4.97-2.07L256 92.2 101.9 247.35a7.007 7.007 0 0 1-4.97 2.07H20.5c-2.83 0-5.38-1.7-6.46-4.31a6.974 6.974 0 0 1 1.5-7.62L207.9 43.78a7.007 7.007 0 0 1 4.97-2.07h86.26a7 7 0 0 1 4.97 2.07l26.47 26.66a7.007 7.007 0 0 1-.03 9.9c-2.74 2.72-7.18 2.71-9.9-.03l-24.42-24.59h-80.44L37.32 235.42h56.7L251.03 77.33c1.31-1.32 3.1-2.07 4.97-2.07s3.65.74 4.97 2.07l157.01 158.09h56.7L359.69 119.63c-2.72-2.74-2.71-7.18.03-9.9s7.18-2.71 9.9.03l126.84 127.72a7.014 7.014 0 0 1 1.5 7.62 6.98 6.98 0 0 1-6.46 4.32z"/><path class="dst1" d="M347.43 104.47a6.99 6.99 0 0 1-4.93-2.03c-2.74-2.72-2.76-7.16-.04-9.9l.14-.14c2.72-2.74 7.16-2.76 9.9-.04 2.74 2.72 2.76 7.16.04 9.9l-.14.14a6.98 6.98 0 0 1-4.97 2.07zM94.68 376.17c-1.84 0-3.64-.75-4.95-2.05-.32-.32-.61-.68-.87-1.06-.25-.38-.47-.79-.64-1.21a7.043 7.043 0 0 1-.54-2.68c0-.46.05-.92.14-1.37.09-.44.22-.89.4-1.31.17-.42.39-.83.64-1.21.26-.38.55-.74.87-1.06.33-.32.68-.61 1.07-.87.38-.25.78-.47 1.21-.64.42-.18.86-.31 1.31-.4.9-.18 1.83-.19 2.73 0 .45.09.89.22 1.31.4.42.17.83.39 1.21.64.38.26.74.55 1.06.87.33.32.62.68.87 1.06.26.38.47.79.65 1.21.17.42.31.87.4 1.31.09.45.13.91.13 1.37 0 .45-.04.92-.13 1.37-.09.44-.23.88-.4 1.31-.18.42-.39.83-.65 1.21-.25.38-.54.74-.87 1.06-.32.32-.68.61-1.06.87-.38.25-.79.47-1.21.64-.42.18-.86.31-1.31.4-.45.09-.91.14-1.37.14zM417.32 498.5H94.68c-3.87 0-7-3.13-7-7v-91.52c0-3.87 3.13-7 7-7s7 3.13 7 7v84.52h308.63V302.62c0-3.87 3.13-7 7-7s7 3.13 7 7V491.5c.01 3.87-3.13 7-6.99 7zM94.68 345.36c-3.87 0-7-3.13-7-7v-95.94c0-3.63 2.76-6.62 6.3-6.97L251.03 77.33c1.31-1.32 3.1-2.07 4.97-2.07s3.65.74 4.97 2.07l157.05 158.12c3.54.35 6.3 3.33 6.3 6.97 0 3.87-3.13 7-7 7h-2.25a7 7 0 0 1-4.97-2.07L256 92.2 101.9 247.35c-.07.07-.14.14-.22.21v90.8c0 3.87-3.13 7-7 7z"/></g></symbol><symbol viewBox="0 0 512 512" id="build13" xmlns="http://www.w3.org/2000/svg"><style>.est0{fill:#16ade1}.est1{fill:#1b3954}</style><g id="eLayer_2"><path class="est0" d="M490.81 493.48h-37.48c-3.13 0-5.88-2.08-6.73-5.08l-38.72-136.07h-17.81c-3.87 0-7-3.13-7-7s3.13-7 7-7h23.09c3.13 0 5.88 2.08 6.73 5.08l38.72 136.07h22.92L354.35 32.52h-3.42l-9.75 34.27 27.88 97.98c.6 2.11.18 4.38-1.15 6.13a7 7 0 0 1-5.59 2.78h-51.57l-6.68 23.48H373c3.87 0 7 3.13 7 7s-3.13 7-7 7h-78.19c-2.2 0-4.26-1.03-5.59-2.78a7.004 7.004 0 0 1-1.15-6.13l10.67-37.48c.86-3.01 3.6-5.08 6.73-5.08h47.58l-25.89-90.98a6.926 6.926 0 0 1 0-3.83l11.74-41.27c.86-3.01 3.6-5.08 6.73-5.08h13.99c3.13 0 5.88 2.08 6.73 5.08l131.17 460.95c.6 2.11.18 4.38-1.15 6.13-1.29 1.76-3.36 2.79-5.56 2.79z"/><path class="est0" d="M367.54 352.32c-.46 0-.92-.04-1.37-.13a7.35 7.35 0 0 1-1.31-.4c-.42-.18-.83-.4-1.21-.65s-.74-.54-1.06-.87a6.818 6.818 0 0 1-1.51-2.27c-.18-.42-.31-.86-.4-1.31-.09-.45-.14-.91-.14-1.37 0-.45.05-.91.14-1.37.09-.44.22-.88.4-1.3.17-.43.39-.83.64-1.21.25-.39.55-.75.87-1.07.32-.32.68-.61 1.06-.87.38-.25.79-.47 1.21-.64.42-.18.86-.31 1.31-.4.9-.18 1.83-.18 2.74 0a7.043 7.043 0 0 1 2.51 1.04c.39.26.75.55 1.07.87.32.32.61.68.87 1.07.25.38.47.78.64 1.21.18.42.31.86.4 1.3.09.46.14.92.14 1.37 0 .46-.05.92-.14 1.37-.09.45-.22.89-.4 1.31-.17.42-.39.83-.64 1.21-.26.38-.55.74-.87 1.06-.32.33-.68.62-1.07.87-.38.25-.78.47-1.2.65-.43.17-.87.31-1.31.4-.45.09-.92.13-1.37.13z"/><path class="est0" d="M335 493.48h-37.48c-3.13 0-5.88-2.08-6.73-5.08l-41.53-145.92a6.926 6.926 0 0 1 0-3.83L268 272.79c.86-3.01 3.6-5.08 6.73-5.08 3.13 0 5.88 2.08 6.73 5.08l7.98 28.06h103.77l-19.76-69.43a7 7 0 0 1 4.82-8.65 7 7 0 0 1 8.65 4.82l22.29 78.34c.6 2.11.18 4.38-1.15 6.13a7 7 0 0 1-5.59 2.78h-118.3c-3.13 0-5.88-2.08-6.73-5.08l-2.7-9.48-11.46 40.28 39.54 138.92h22.92L288.1 347.24c-.6-2.11-.18-4.38 1.15-6.13a7 7 0 0 1 5.59-2.78h52.39c3.87 0 7 3.13 7 7s-3.13 7-7 7h-43.12l37.63 132.24c.6 2.11.18 4.38-1.15 6.13a7 7 0 0 1-5.59 2.78zM237.26 281.7c-3.13 0-5.88-2.08-6.73-5.08l-20.07-70.53c-.6-2.11-.18-4.38 1.15-6.13a7 7 0 0 1 5.59-2.78h37.48c3.13 0 5.88 2.08 6.73 5.08l1.33 4.68c.36 1.25.36 2.58 0 3.83L244 276.61a7.014 7.014 0 0 1-6.74 5.09zm-10.8-70.53l10.8 37.96 10.8-37.96h-21.6zM244 173.69h-37.48c-3.13 0-5.88-2.08-6.73-5.08l-28.43-99.9a6.926 6.926 0 0 1 0-3.83l1.08-3.79c.85-3.01 3.6-5.09 6.73-5.09h35.33c3.13 0 5.88 2.08 6.73 5.08l29.5 103.69c.6 2.11.18 4.38-1.15 6.13a6.962 6.962 0 0 1-5.58 2.79zm-32.19-14h22.92L209.21 70h-22.92l25.52 89.69z"/><path class="est1" d="M58.67 493.48H21.19c-2.2 0-4.26-1.03-5.59-2.78a7.004 7.004 0 0 1-1.15-6.13l100.19-352.09c1.06-3.72 4.93-5.87 8.65-4.82a7 7 0 0 1 4.82 8.65L30.46 479.48h22.92l29.66-104.24c1.06-3.72 4.93-5.87 8.65-4.82a7 7 0 0 1 4.82 8.65L65.4 488.39a7.011 7.011 0 0 1-6.73 5.09zm68.27-371.63c-.45 0-.91-.05-1.37-.14-.44-.09-.88-.23-1.31-.4-.42-.18-.82-.39-1.2-.64-.39-.26-.75-.55-1.07-.87-.32-.33-.61-.69-.87-1.07-.25-.38-.47-.78-.64-1.21-.18-.42-.31-.86-.4-1.31-.09-.45-.14-.91-.14-1.36 0-.46.05-.92.14-1.37.09-.45.22-.89.4-1.31.17-.43.39-.83.64-1.21.26-.38.55-.74.87-1.06.32-.33.68-.62 1.07-.88.38-.25.78-.46 1.2-.64.43-.17.87-.31 1.31-.4.91-.18 1.84-.18 2.74 0 .45.09.89.23 1.31.4.42.18.83.39 1.21.64.38.26.74.55 1.06.88.33.32.62.68.87 1.06.26.38.47.78.65 1.21.17.42.31.86.4 1.31.09.45.13.91.13 1.37 0 .45-.04.91-.13 1.36-.09.45-.23.89-.4 1.31-.18.43-.39.83-.65 1.21-.25.38-.54.74-.87 1.07-.32.32-.68.61-1.06.87-.38.25-.79.46-1.21.64-.42.17-.86.31-1.31.4-.45.09-.91.14-1.37.14z"/><path class="est1" d="M214.47 493.48H177c-2.2 0-4.26-1.03-5.59-2.78a7.004 7.004 0 0 1-1.15-6.13l37.63-132.24H98.83c-3.87 0-7-3.13-7-7s3.13-7 7-7h118.33c2.2 0 4.26 1.03 5.59 2.78a7.004 7.004 0 0 1 1.15 6.13l-37.63 132.24h22.92L336.38 32.52H157.65l-16.88 59.32a7 7 0 0 1-8.65 4.82 7 7 0 0 1-4.82-8.65l18.33-64.41c.86-3.01 3.6-5.08 6.73-5.08h193.29c2.2 0 4.26 1.03 5.59 2.78a7.004 7.004 0 0 1 1.15 6.13L221.21 488.39a7.014 7.014 0 0 1-6.74 5.09z"/><path class="est1" d="M227.83 314.84H109.5c-2.2 0-4.26-1.03-5.59-2.78a7.004 7.004 0 0 1-1.15-6.13l29.5-103.68c.86-3.01 3.6-5.08 6.73-5.08h118.33c2.2 0 4.26 1.03 5.59 2.78a7.004 7.004 0 0 1 1.15 6.13l-1.33 4.68-28.17 98.99a6.982 6.982 0 0 1-6.73 5.09zm-109.06-14h103.77l25.52-89.68H144.29l-25.52 89.68zM268 173.69H149.67c-2.2 0-4.26-1.03-5.59-2.78a7.004 7.004 0 0 1-1.15-6.13l29.5-103.68c.85-3.01 3.6-5.09 6.73-5.09H297.5c2.2 0 4.26 1.03 5.59 2.78a7.004 7.004 0 0 1 1.15 6.13l-29.5 103.69a7.005 7.005 0 0 1-6.74 5.08zm-109.06-14h103.77L288.23 70H184.46l-25.52 89.69z"/></g></symbol><symbol viewBox="0 0 512 512" id="build14" xmlns="http://www.w3.org/2000/svg"><style>.fst0{fill:#16ade1}.fst1{fill:#1b3954}</style><g id="fLayer_2"><path class="fst1" d="M176.4 432.88c-1.85 0-3.65-.75-4.96-2.05a7.061 7.061 0 0 1-2.05-4.95 7.043 7.043 0 0 1 .54-2.68c.18-.42.39-.83.64-1.21.26-.38.55-.74.87-1.06a7.085 7.085 0 0 1 4.96-2.05c1.83 0 3.64.75 4.94 2.05.33.32.62.68.87 1.06.26.38.47.79.65 1.21.17.43.31.87.4 1.31.09.46.14.92.14 1.37 0 1.84-.75 3.65-2.06 4.95a7.055 7.055 0 0 1-4.94 2.05z"/><path class="fst0" d="M55.78 463.22c-1.79 0-3.58-.68-4.95-2.05a7.007 7.007 0 0 1 0-9.9l90.23-90.23a7.007 7.007 0 0 1 9.9 0 7.007 7.007 0 0 1 0 9.9l-90.23 90.23a6.973 6.973 0 0 1-4.95 2.05zm115.25-115.25a7.043 7.043 0 0 1-2.68-.54c-.42-.17-.83-.39-1.2-.64-.39-.26-.75-.55-1.07-.87a7.079 7.079 0 0 1-2.05-4.95c0-.46.05-.92.14-1.37s.22-.89.4-1.31c.17-.42.39-.83.64-1.21.26-.38.55-.74.87-1.06.32-.33.68-.62 1.07-.87.37-.25.78-.47 1.2-.65.43-.17.87-.31 1.31-.39.91-.19 1.84-.19 2.74 0 .45.08.89.22 1.31.39.42.18.83.4 1.21.65s.74.54 1.06.87a6.818 6.818 0 0 1 1.51 2.27c.18.42.31.86.4 1.31s.14.91.14 1.37-.05.92-.14 1.37c-.09.44-.22.88-.4 1.31-.17.42-.39.83-.64 1.2-.25.39-.55.75-.87 1.07-.32.32-.68.61-1.06.87-.38.25-.79.47-1.21.64-.42.18-.86.31-1.31.4-.45.09-.91.14-1.37.14z"/><path class="fst1" d="M262.44 281.24c-1.79 0-3.58-.68-4.95-2.05l-24.68-24.68a7.007 7.007 0 0 1 0-9.9l121.48-121.48a7.007 7.007 0 0 1 9.9 0 7.007 7.007 0 0 1 0 9.9L247.66 249.56l14.78 14.78L401.2 125.58c-8.01-2.04-14.13-8.79-15.23-17.14l-1.52-11.59c-.5-3.83 2.2-7.35 6.03-7.85 3.83-.51 7.35 2.2 7.85 6.03l1.52 11.59a6.45 6.45 0 0 0 5.54 5.54l11.58 1.52c2.64.35 4.86 2.17 5.72 4.69.86 2.52.21 5.32-1.68 7.2L267.39 279.19a6.998 6.998 0 0 1-4.95 2.05z"/><path class="fst0" d="M246.38 325.35c-1.86 0-3.64-.74-4.95-2.05l-52.74-52.74a7.001 7.001 0 0 1 0-9.9l27.18-27.18c2.1-2.1 4.89-3.26 7.86-3.26s5.76 1.16 7.87 3.26l46.9 46.9c2.1 2.1 3.26 4.89 3.26 7.87s-1.16 5.76-3.26 7.87l-27.18 27.18a6.92 6.92 0 0 1-4.94 2.05zm-42.83-59.73l42.84 42.84 20.19-20.19-42.83-42.83-20.2 20.18zm231.68-135.6c-.88 0-1.77-.06-2.65-.18l-29.01-3.81c-9.15-1.21-16.39-8.44-17.6-17.59l-3.82-29.02c-.83-6.25 1.34-12.65 5.81-17.12l42.81-42.81a20.36 20.36 0 0 1 22.27-4.42l23.22 9.61c5.04 2.09 8.96 6.01 11.05 11.05l9.62 23.24a20.343 20.343 0 0 1-4.42 22.26l-42.81 42.81c-3.83 3.84-9.1 5.98-14.47 5.98zM445.2 27.5c-1.67 0-3.3.65-4.53 1.88L397.86 72.2a6.452 6.452 0 0 0-1.83 5.38l3.82 29.03a6.45 6.45 0 0 0 5.54 5.54l29.02 3.82c1.97.26 3.99-.42 5.39-1.83l42.82-42.81a6.395 6.395 0 0 0 1.39-6.99l-9.62-23.25a6.368 6.368 0 0 0-3.48-3.47L447.68 28c-.81-.34-1.65-.5-2.48-.5zm42.37 48.78z"/><path class="fst1" d="M100.91 498.49c-7.89 0-15.78-3-21.78-9.01l-56.61-56.61c-12.01-12.01-12.01-31.56 0-43.57l130.57-130.57c12.01-12.01 31.55-12.01 43.57 0l56.61 56.61c12.01 12.01 12.01 31.56 0 43.57l-44.94 44.94a7.007 7.007 0 0 1-9.9 0 7.007 7.007 0 0 1 0-9.9l44.94-44.94c6.55-6.55 6.55-17.21 0-23.77l-56.61-56.61c-6.55-6.55-17.21-6.55-23.77 0L32.42 399.2a16.694 16.694 0 0 0-4.92 11.88c0 4.49 1.75 8.71 4.92 11.88l56.61 56.61c3.17 3.17 7.39 4.92 11.88 4.92 4.49 0 8.71-1.75 11.88-4.92l36.04-36.04a7.007 7.007 0 0 1 9.9 0 7.007 7.007 0 0 1 0 9.9l-36.04 36.04c-6 6.01-13.89 9.02-21.78 9.02z"/></g></symbol><symbol viewBox="0 0 512 512" id="build15" xmlns="http://www.w3.org/2000/svg"><style>.gst0{fill:#16ade1}.gst1{fill:#1b3954}</style><g id="gLayer_2"><path class="gst1" d="M127.39 115.13c-1.85 0-3.65-.75-4.95-2.05a7.046 7.046 0 0 1-2.06-4.95c0-.46.05-.92.14-1.37s.23-.89.4-1.31c.18-.42.39-.83.65-1.21.25-.38.54-.74.87-1.06.32-.32.68-.62 1.06-.87s.79-.47 1.21-.65c.42-.17.86-.3 1.31-.39.9-.19 1.83-.19 2.73 0 .45.09.89.22 1.31.39.42.18.83.4 1.21.65s.74.55 1.06.87c.33.32.62.68.87 1.06.26.38.47.79.65 1.21.17.42.31.86.4 1.31s.13.91.13 1.37c0 1.84-.74 3.64-2.05 4.95-.32.32-.68.61-1.06.87-.38.25-.79.47-1.21.64-.42.18-.86.31-1.31.4-.45.09-.91.14-1.36.14zM445.33 498.5h-212.5c-3.87 0-7-3.13-7-7V178.93h-98.45c-3.87 0-7-3.13-7-7v-32.1c0-3.87 3.13-7 7-7s7 3.13 7 7v25.1h98.45c3.87 0 7 3.13 7 7V484.5h198.49v-82.48c0-3.87 3.13-7 7-7s7 3.13 7 7v89.48c.01 3.87-3.13 7-6.99 7zm0-111.52c-.46 0-.92-.05-1.37-.14s-.89-.22-1.31-.4c-.42-.17-.83-.39-1.21-.64-.38-.26-.74-.55-1.06-.87-.33-.32-.62-.68-.87-1.07-.26-.38-.47-.78-.65-1.2-.17-.43-.31-.87-.4-1.31-.09-.45-.13-.91-.13-1.37s.04-.92.13-1.37c.09-.45.23-.89.4-1.31.18-.42.39-.83.65-1.21.25-.38.54-.74.87-1.06.32-.33.68-.62 1.06-.87s.79-.47 1.21-.65c.42-.17.86-.31 1.31-.4.9-.18 1.83-.18 2.73 0 .45.09.89.23 1.31.4.42.18.83.4 1.21.65s.74.54 1.06.87c.33.32.62.68.87 1.06.26.38.47.79.65 1.21.17.42.31.86.4 1.31.09.45.13.91.13 1.37s-.04.92-.13 1.37c-.09.44-.23.88-.4 1.31-.18.42-.39.82-.65 1.2-.25.39-.54.75-.87 1.07-.32.32-.68.61-1.06.87-.38.25-.79.47-1.21.64-.42.18-.86.31-1.31.4-.45.09-.91.14-1.36.14z"/><path class="gst1" d="M445.33 360.17c-3.87 0-7-3.13-7-7V27.5H134.38v58.78c0 3.87-3.13 7-7 7s-7-3.13-7-7V20.5c0-3.87 3.13-7 7-7h317.94c3.87 0 7 3.13 7 7v332.67c.01 3.87-3.13 7-6.99 7z"/><path class="gst0" d="M132.01 263.14h-29.62c-3.87 0-7-3.13-7-7v-29.62c0-3.87 3.13-7 7-7h29.62c3.87 0 7 3.13 7 7v29.62c0 3.87-3.13 7-7 7zm-22.62-14h15.62v-15.62h-15.62v15.62zm87.73 14H167.5c-3.87 0-7-3.13-7-7v-29.62c0-3.87 3.13-7 7-7h29.62c3.87 0 7 3.13 7 7v29.62c0 3.87-3.14 7-7 7zm-22.62-14h15.62v-15.62H174.5v15.62zm-42.49 74.26h-29.62c-3.87 0-7-3.13-7-7v-29.62c0-3.87 3.13-7 7-7h29.62c3.87 0 7 3.13 7 7v29.62c0 3.86-3.13 7-7 7zm-22.62-14h15.62v-15.62h-15.62v15.62zm87.73 14H167.5c-3.87 0-7-3.13-7-7v-29.62c0-3.87 3.13-7 7-7h29.62c3.87 0 7 3.13 7 7v29.62c0 3.86-3.14 7-7 7zm-22.62-14h15.62v-15.62H174.5v15.62zm-42.49 74.25h-29.62c-3.87 0-7-3.13-7-7v-29.62c0-3.87 3.13-7 7-7h29.62c3.87 0 7 3.13 7 7v29.62c0 3.87-3.13 7-7 7zm-22.62-14h15.62v-15.62h-15.62v15.62zm87.73 14H167.5c-3.87 0-7-3.13-7-7v-29.62c0-3.87 3.13-7 7-7h29.62c3.87 0 7 3.13 7 7v29.62c0 3.87-3.14 7-7 7zm-22.62-14h15.62v-15.62H174.5v15.62zm-42.49 74.26h-29.62c-3.87 0-7-3.13-7-7v-29.62c0-3.87 3.13-7 7-7h29.62c3.87 0 7 3.13 7 7v29.62c0 3.86-3.13 7-7 7zm-22.62-14h15.62v-15.62h-15.62v15.62zm87.73 14H167.5c-3.87 0-7-3.13-7-7v-29.62c0-3.87 3.13-7 7-7h29.62c3.87 0 7 3.13 7 7v29.62c0 3.86-3.14 7-7 7zm-22.62-14h15.62v-15.62H174.5v15.62z"/><path class="gst1" d="M308.11 328.1h-28.6c-3.87 0-7-3.13-7-7v-28.6c0-3.87 3.13-7 7-7h28.6c3.87 0 7 3.13 7 7v28.6c0 3.87-3.14 7-7 7zm-21.6-14h14.6v-14.6h-14.6v14.6zm21.6 79.7h-28.6c-3.87 0-7-3.13-7-7v-28.6c0-3.87 3.13-7 7-7h28.6c3.87 0 7 3.13 7 7v28.6c0 3.87-3.14 7-7 7zm-21.6-14h14.6v-14.6h-14.6v14.6zm21.6 79.7h-28.6c-3.87 0-7-3.13-7-7v-28.6c0-3.87 3.13-7 7-7h28.6c3.87 0 7 3.13 7 7v28.6c0 3.86-3.14 7-7 7zm-21.6-14h14.6v-14.6h-14.6v14.6z"/><path class="gst0" d="M197.85 85.19h-29.53c-3.87 0-7-3.13-7-7V48.66c0-3.87 3.13-7 7-7h29.53c3.87 0 7 3.13 7 7v29.53c0 3.87-3.13 7-7 7zm-22.53-14h15.53V55.66h-15.53v15.53zm92.8 14h-29.53c-3.87 0-7-3.13-7-7V48.66c0-3.87 3.13-7 7-7h29.53c3.87 0 7 3.13 7 7v29.53c0 3.87-3.13 7-7 7zm-22.53-14h15.53V55.66h-15.53v15.53zm92.79 14h-29.53c-3.87 0-7-3.13-7-7V48.66c0-3.87 3.13-7 7-7h29.53c3.87 0 7 3.13 7 7v29.53c0 3.87-3.13 7-7 7zm-22.53-14h15.53V55.66h-15.53v15.53zm97.43 14h-29.53c-3.87 0-7-3.13-7-7V48.66c0-3.87 3.13-7 7-7h29.53c3.87 0 7 3.13 7 7v29.53c0 3.87-3.14 7-7 7zm-22.53-14h15.53V55.66h-15.53v15.53z"/><path class="gst1" d="M197.85 146.83h-29.53c-3.87 0-7-3.13-7-7V110.3c0-3.87 3.13-7 7-7h29.53c3.87 0 7 3.13 7 7v29.53c0 3.87-3.13 7-7 7zm-22.53-14h15.53V117.3h-15.53v15.53zm92.8 14h-29.53c-3.87 0-7-3.13-7-7V110.3c0-3.87 3.13-7 7-7h29.53c3.87 0 7 3.13 7 7v29.53c0 3.87-3.13 7-7 7zm-22.53-14h15.53V117.3h-15.53v15.53zm92.79 14h-29.53c-3.87 0-7-3.13-7-7V110.3c0-3.87 3.13-7 7-7h29.53c3.87 0 7 3.13 7 7v29.53c0 3.87-3.13 7-7 7zm-22.53-14h15.53V117.3h-15.53v15.53zm97.43 14h-29.53c-3.87 0-7-3.13-7-7V110.3c0-3.87 3.13-7 7-7h29.53c3.87 0 7 3.13 7 7v29.53c0 3.87-3.14 7-7 7zm-22.53-14h15.53V117.3h-15.53v15.53zm-122.64 75.64h-10.94c-3.87 0-7-3.13-7-7s3.13-7 7-7h3.94v-15.54h-4.71c-3.87 0-7-3.13-7-7s3.13-7 7-7h11.71c3.87 0 7 3.13 7 7v29.54c0 3.87-3.13 7-7 7zm70.27 0h-29.53c-3.87 0-7-3.13-7-7v-29.53c0-3.87 3.13-7 7-7h29.53c3.87 0 7 3.13 7 7v29.53c0 3.86-3.13 7-7 7zm-22.53-14h15.53v-15.53h-15.53v15.53zm97.43 14h-29.53c-3.87 0-7-3.13-7-7v-29.53c0-3.87 3.13-7 7-7h29.53c3.87 0 7 3.13 7 7v29.53c0 3.86-3.14 7-7 7zm-22.53-14h15.53v-15.53h-15.53v15.53zm22.53 75.63h-29.53c-3.87 0-7-3.13-7-7v-29.53c0-3.87 3.13-7 7-7h29.53c3.87 0 7 3.13 7 7v29.53c0 3.87-3.14 7-7 7zm-22.53-14h15.53v-15.53h-15.53v15.53zm22.53 75.64h-29.53c-3.87 0-7-3.13-7-7v-29.53c0-3.87 3.13-7 7-7h29.53c3.87 0 7 3.13 7 7v29.53c0 3.87-3.14 7-7 7zm-22.53-14h15.53v-15.53h-15.53v15.53zm22.53 75.64h-29.53c-3.87 0-7-3.13-7-7v-29.53c0-3.87 3.13-7 7-7h29.53c3.87 0 7 3.13 7 7v29.53c0 3.86-3.14 7-7 7zm-22.53-14h15.53v-15.53h-15.53v15.53zm22.53 75.63h-29.53c-3.87 0-7-3.13-7-7v-29.53c0-3.87 3.13-7 7-7h29.53c3.87 0 7 3.13 7 7v29.53c0 3.87-3.14 7-7 7zm-22.53-14h15.53v-15.53h-15.53v15.53z"/><path class="gst0" d="M354.79 498.5H232.83c-3.87 0-7-3.13-7-7v-238c0-3.87 3.13-7 7-7h121.95c3.87 0 7 3.13 7 7s-3.13 7-7 7H239.83v224h107.95V283.21c0-3.87 3.13-7 7-7s7 3.13 7 7V491.5c.01 3.87-3.13 7-6.99 7z"/><path class="gst1" d="M232.83 498.5H66.67c-3.87 0-7-3.13-7-7V171.93c0-3.87 3.13-7 7-7h166.16c3.87 0 7 3.13 7 7V491.5c0 3.87-3.13 7-7 7zm-159.16-14h152.16V178.93H73.67V484.5z"/></g></symbol><symbol viewBox="0 0 512 512" id="build2" xmlns="http://www.w3.org/2000/svg"><style>.hst0{fill:#16ade1}.hst1{fill:#1b3954}</style><g id="hLayer_2"><path class="hst1" d="M214.46 158.9c-1.74 0-3.49-.65-4.84-1.95l-38.19-36.59H48.17v27.38c0 3.87-3.13 7-7 7s-7-3.13-7-7v-34.38c0-3.87 3.13-7 7-7h133.07c1.8 0 3.54.7 4.84 1.95l40.22 38.54c2.79 2.67 2.89 7.11.21 9.9a6.975 6.975 0 0 1-5.05 2.15zm0 126.78H41.17c-3.87 0-7-3.13-7-7v-88.69c0-3.87 3.13-7 7-7s7 3.13 7 7v81.69h166.29c3.87 0 7 3.13 7 7s-3.13 7-7 7zM41.17 175.87c-1.85 0-3.65-.75-4.95-2.05a7.019 7.019 0 0 1-2.05-4.95c0-.46.04-.92.13-1.37.09-.45.23-.89.4-1.31.18-.42.39-.83.65-1.21.25-.38.54-.74.87-1.06 1.3-1.3 3.1-2.05 4.95-2.05 1.84 0 3.64.75 4.95 2.05.32.32.61.68.87 1.06.25.38.46.79.64 1.21.17.42.31.86.4 1.31.09.45.14.91.14 1.37 0 1.84-.75 3.65-2.05 4.95a7.079 7.079 0 0 1-4.95 2.05z"/><path class="hst0" d="M190.13 250.74H85.52c-3.87 0-7-3.13-7-7v-86.02c0-3.87 3.13-7 7-7h70.9c1.8 0 3.54.7 4.84 1.95l33.71 32.3a6.999 6.999 0 0 1 2.16 5.05v53.72c0 3.86-3.13 7-7 7zm-97.61-14h90.61v-43.73l-29.53-28.29H92.52v72.02z"/><path class="hst1" d="M258.09 450.7c-.46 0-.92-.05-1.37-.14a6.82 6.82 0 0 1-1.31-.4 6.818 6.818 0 0 1-2.27-1.51 6.818 6.818 0 0 1-1.51-2.27 6.82 6.82 0 0 1-.4-1.31c-.09-.45-.14-.91-.14-1.37s.05-.92.14-1.37c.09-.44.22-.89.4-1.31a6.818 6.818 0 0 1 1.51-2.27c.32-.32.68-.61 1.06-.87.38-.25.79-.47 1.21-.64.42-.18.87-.31 1.31-.4.9-.19 1.84-.19 2.74 0 .44.09.88.22 1.31.4.42.17.83.39 1.21.64.38.26.74.55 1.06.87a6.818 6.818 0 0 1 1.51 2.27 7.043 7.043 0 0 1 .54 2.68c0 .46-.05.92-.14 1.37-.09.44-.22.89-.4 1.31a6.818 6.818 0 0 1-1.51 2.27 6.818 6.818 0 0 1-2.27 1.51 7.043 7.043 0 0 1-2.68.54z"/><path class="hst1" d="M330.56 450.7H158.27c-3.87 0-7-3.13-7-7s3.13-7 7-7h172.29c16.69 0 30.28-13.58 30.28-30.28v-4.18c0-16.69-13.58-30.28-30.28-30.28H57.37c-16.69 0-30.28 13.58-30.28 30.28v4.18c0 16.69 13.58 30.28 30.28 30.28h57.12c3.87 0 7 3.13 7 7s-3.13 7-7 7H57.37c-24.41 0-44.28-19.86-44.28-44.28v-4.18c0-24.41 19.86-44.28 44.28-44.28h273.19c24.41 0 44.28 19.86 44.28 44.28v4.18c0 24.42-19.87 44.28-44.28 44.28z"/><path class="hst0" d="M64.23 426.61c-12.28 0-22.28-9.99-22.28-22.28s9.99-22.28 22.28-22.28 22.28 9.99 22.28 22.28-10 22.28-22.28 22.28zm0-30.56c-4.56 0-8.28 3.71-8.28 8.28 0 4.57 3.71 8.28 8.28 8.28 4.57 0 8.28-3.71 8.28-8.28-.01-4.56-3.72-8.28-8.28-8.28zm64.86 30.56c-12.28 0-22.28-9.99-22.28-22.28s9.99-22.28 22.28-22.28 22.28 9.99 22.28 22.28-9.99 22.28-22.28 22.28zm0-30.56c-4.56 0-8.28 3.71-8.28 8.28 0 4.57 3.71 8.28 8.28 8.28 4.57 0 8.28-3.71 8.28-8.28 0-4.56-3.71-8.28-8.28-8.28zm64.87 30.56c-12.28 0-22.28-9.99-22.28-22.28s9.99-22.28 22.28-22.28 22.28 9.99 22.28 22.28-9.99 22.28-22.28 22.28zm0-30.56c-4.56 0-8.28 3.71-8.28 8.28 0 4.57 3.71 8.28 8.28 8.28 4.57 0 8.28-3.71 8.28-8.28 0-4.56-3.71-8.28-8.28-8.28zm64.87 30.56c-12.28 0-22.28-9.99-22.28-22.28s9.99-22.28 22.28-22.28 22.28 9.99 22.28 22.28-9.99 22.28-22.28 22.28zm0-30.56c-4.56 0-8.28 3.71-8.28 8.28 0 4.57 3.71 8.28 8.28 8.28 4.57 0 8.28-3.71 8.28-8.28 0-4.56-3.71-8.28-8.28-8.28zm64.87 30.56c-12.28 0-22.28-9.99-22.28-22.28s9.99-22.28 22.28-22.28 22.28 9.99 22.28 22.28-10 22.28-22.28 22.28zm0-30.56c-4.56 0-8.28 3.71-8.28 8.28 0 4.57 3.71 8.28 8.28 8.28 4.57 0 8.28-3.71 8.28-8.28 0-4.56-3.71-8.28-8.28-8.28z"/><path class="hst1" d="M332.28 337.33H41.17c-3.87 0-7-3.13-7-7v-51.65c0-3.87 3.13-7 7-7h262.88c1.84 0 3.6.72 4.91 2.01l28.23 27.73a7.017 7.017 0 0 1 2.1 4.99v23.92a7.01 7.01 0 0 1-7.01 7zm-284.11-14h277.11v-13.98l-24.09-23.67H48.17v37.65z"/><path class="hst1" d="M389.27 323.72h-29.11c-3.87 0-7-3.13-7-7s3.13-7 7-7h22.11v-17.23H328.1l9.09 8.93a7.017 7.017 0 0 1 2.1 4.99v10.31c0 3.87-3.13 7-7 7s-7-3.13-7-7v-7.37l-19.2-18.86a6.982 6.982 0 0 1-1.57-7.64 7.01 7.01 0 0 1 6.48-4.35h78.29c3.87 0 7 3.13 7 7v31.23a7.023 7.023 0 0 1-7.02 6.99z"/><path class="hst0" d="M491.91 450.7H389.27c-3.87 0-7-3.13-7-7V216.04c0-3.87 3.13-7 7-7h52.08c3.87 0 7 3.13 7 7v109.38c0 42.55 17.64 83.81 48.39 113.22a7.01 7.01 0 0 1 1.66 7.67 6.989 6.989 0 0 1-6.49 4.39zm-95.64-14h79.37c-26.41-30.77-41.29-70.48-41.29-111.28V223.04h-38.08V436.7z"/><path class="hst1" d="M234.49 285.68h-20.03c-3.87 0-7-3.13-7-7s3.13-7 7-7h13.03v-97.6l-17.87-17.12c-2.79-2.67-2.89-7.11-.21-9.9a7 7 0 0 1 9.9-.21l20.03 19.19a6.999 6.999 0 0 1 2.16 5.05v107.59a7.01 7.01 0 0 1-7.01 7z"/><path class="hst1" d="M260.42 285.68h-25.93c-3.87 0-7-3.13-7-7v-104.6l-17.87-17.12a6.999 6.999 0 0 1-2.16-5.05v-26.07c0-3.87 3.13-7 7-7h45.96c3.87 0 7 3.13 7 7v152.85c0 3.86-3.13 6.99-7 6.99zm-18.93-14h11.93V132.83h-31.96v16.08l17.87 17.12a6.999 6.999 0 0 1 2.16 5.05v100.6z"/><path class="hst1" d="M251.23 132.83h-27.57c-3.87 0-7-3.13-7-7V68.3c0-3.87 3.13-7 7-7h27.57c3.87 0 7 3.13 7 7v57.53c0 3.87-3.14 7-7 7zm-20.58-14h13.57V75.3h-13.57v43.53zm-95 331.87c-1.84 0-3.64-.75-4.95-2.05-.32-.32-.61-.68-.87-1.06-.25-.38-.46-.79-.64-1.21-.17-.43-.31-.87-.4-1.31-.09-.45-.14-.91-.14-1.37 0-1.84.75-3.65 2.05-4.95a7.079 7.079 0 0 1 4.95-2.05c1.85 0 3.65.75 4.95 2.05a7.019 7.019 0 0 1 2.05 4.95c0 .46-.04.92-.13 1.37-.09.44-.23.88-.4 1.31-.18.42-.39.83-.65 1.21-.25.38-.54.74-.87 1.06-1.3 1.3-3.1 2.05-4.95 2.05z"/></g></symbol><symbol viewBox="0 0 512 512" id="build3" xmlns="http://www.w3.org/2000/svg"><style>.ist0{fill:#16ade1}.ist1{fill:#1b3954}</style><g id="iLayer_2"><path class="ist1" d="M256 249.72c-6.81 0-13.4-1.35-19.61-4.01a49.857 49.857 0 0 1-30.28-45.89v-73.11c0-3.87 3.13-7 7-7h85.78c3.87 0 7 3.13 7 7v73.11c0 20.01-11.89 38.02-30.29 45.9-6.2 2.65-12.79 4-19.6 4zm-35.89-116.01v66.11c0 14.4 8.55 27.36 21.79 33.02 4.45 1.91 9.2 2.88 14.1 2.88s9.64-.97 14.09-2.87a35.893 35.893 0 0 0 21.8-33.03v-66.11h-71.78z"/><path class="ist1" d="M213.11 191.16c-16.67 0-30.24-13.56-30.24-30.23s13.57-30.24 30.24-30.24c3.87 0 7 3.13 7 7v46.47c0 3.87-3.13 7-7 7zm-7-44.88c-5.46 2.62-9.24 8.2-9.24 14.65 0 6.45 3.78 12.03 9.24 14.64v-29.29zm92.78 44.88c-3.87 0-7-3.13-7-7v-46.47c0-3.87 3.13-7 7-7 16.67 0 30.24 13.57 30.24 30.24 0 16.67-13.57 30.23-30.24 30.23zm7-44.88v29.3c5.46-2.62 9.24-8.2 9.24-14.64 0-6.46-3.78-12.04-9.24-14.66zm-64.29-42.6h-44.23c-2 0-3.9-.85-5.23-2.34a6.994 6.994 0 0 1-1.73-5.46c3.14-27.07 23.03-49.72 49.48-56.36 2.09-.52 4.31-.06 6.01 1.27a6.999 6.999 0 0 1 2.69 5.52v50.38c.01 3.86-3.13 6.99-6.99 6.99zm-35.75-14h28.75V56.13c-14 6.35-24.63 18.72-28.75 33.55zm108.78 14H270.4c-3.87 0-7-3.13-7-7V46.3c0-2.16.99-4.19 2.69-5.52a7.007 7.007 0 0 1 6.01-1.27c26.45 6.64 46.34 29.29 49.48 56.36.23 1.98-.4 3.97-1.73 5.46a6.942 6.942 0 0 1-5.22 2.35zm-37.23-14h28.75c-4.12-14.83-14.75-27.21-28.75-33.55v33.55z"/><path class="ist1" d="M270.4 103.68h-28.8c-3.87 0-7-3.13-7-7V34.9c0-11.8 9.6-21.4 21.4-21.4 5.72 0 11.09 2.23 15.13 6.27 4.04 4.04 6.27 9.42 6.27 15.14v61.78c0 3.86-3.13 6.99-7 6.99zm-21.8-14h14.8V34.9c0-1.98-.77-3.84-2.17-5.24s-3.26-2.17-5.24-2.17c-4.08 0-7.4 3.32-7.4 7.4v54.79z"/><path class="ist0" d="M293.72 103.68c-3.87 0-7-3.13-7-7V46.3c0-3.87 3.13-7 7-7s7 3.13 7 7v50.38c0 3.87-3.13 7-7 7zm-75.44 0c-3.87 0-7-3.13-7-7V46.3c0-3.87 3.13-7 7-7s7 3.13 7 7v50.38c0 3.87-3.14 7-7 7z"/><path class="ist1" d="M256 302.54c-13.15 0-23.85-10.7-23.85-23.85v-16.33c0-3.87 3.13-7 7-7s7 3.13 7 7v16.33c0 5.43 4.42 9.85 9.85 9.85s9.85-4.42 9.85-9.85v-29.94c-3.22.65-6.51.97-9.85.97-6.81 0-13.41-1.35-19.61-4.01a7.005 7.005 0 0 1-3.68-9.19 7.005 7.005 0 0 1 9.19-3.68c4.45 1.91 9.19 2.87 14.09 2.87s9.64-.97 14.09-2.87c2.16-.93 4.65-.71 6.61.59a7.004 7.004 0 0 1 3.15 5.84v39.41c.01 13.16-10.69 23.86-23.84 23.86z"/><path class="ist0" d="M323.15 133.71h-134.3c-12.14 0-22.01-9.88-22.01-22.01 0-5.88 2.29-11.41 6.44-15.56 4.16-4.16 9.69-6.45 15.57-6.45h134.29c12.14 0 22.01 9.88 22.01 22.01 0 5.88-2.29 11.41-6.44 15.56-4.15 4.16-9.68 6.45-15.56 6.45zm-134.3-30.03c-2.14 0-4.16.83-5.68 2.35a7.955 7.955 0 0 0-2.34 5.67c0 4.42 3.6 8.01 8.01 8.01h134.29c2.15 0 4.16-.83 5.68-2.35a7.955 7.955 0 0 0 2.34-5.67c0-4.42-3.6-8.01-8.01-8.01H188.85zm67.04 348.92c-18.78 0-34.06-15.28-34.06-34.06v-47.49c0-3.87 3.13-7 7-7h54.13c3.87 0 7 3.13 7 7v47.49c0 18.77-15.28 34.06-34.07 34.06zm-20.06-74.56v40.49c0 11.06 9 20.06 20.06 20.06s20.06-9 20.06-20.06v-40.49h-40.12z"/><path class="ist1" d="M306.96 498.5H205.04c-3.87 0-7-3.13-7-7V334.11c0-3.87 3.13-7 7-7h101.92c3.87 0 7 3.13 7 7V491.5c0 3.87-3.13 7-7 7zm-94.92-14h87.92V341.11h-87.92V484.5z"/><path class="ist1" d="M117.52 444.68c-6.86 0-13.18-2.81-17.79-7.92l-59.92-66.33a6.99 6.99 0 0 1-1.79-5.11 6.98 6.98 0 0 1 2.39-4.86l20.48-17.88a7.009 7.009 0 0 1 9.32.1l41.56 37.91 55.91-104.49a6.997 6.997 0 0 1 13.17 3.3v72.07c0 1.15-.28 2.29-.83 3.3L138.7 432a23.997 23.997 0 0 1-21.18 12.68zm-62.55-78.35l55.15 61.05c1.95 2.16 4.51 3.3 7.41 3.3 3.7 0 7.09-2.03 8.84-5.29l40.48-75.67v-42.39l-46.98 87.8a7.03 7.03 0 0 1-4.99 3.6c-2.13.37-4.31-.27-5.9-1.73l-43.6-39.76-10.41 9.09zm251.99-25.22H205.04c-3.87 0-7-3.13-7-7v-55.42c0-3.87 3.13-7 7-7h34.11c3.87 0 7 3.13 7 7 0 5.43 4.42 9.85 9.85 9.85s9.85-4.42 9.85-9.85c0-3.87 3.13-7 7-7h34.11c3.87 0 7 3.13 7 7v55.42c0 3.87-3.13 7-7 7zm-94.92-14h87.92v-41.42H278.8c-3 9.75-12.09 16.85-22.8 16.85s-19.8-7.1-22.8-16.85h-21.16v41.42z"/><path class="ist1" d="M50.97 367.53c-.24 0-.48-.01-.72-.04-1.93-.2-3.7-1.19-4.87-2.75l-26.37-34.93a6.98 6.98 0 0 1-1.41-4.22v-30c0-2.76 1.62-5.26 4.14-6.39a6.984 6.984 0 0 1 7.52 1.17l15.88 14.2 5.81-2.61c1.99-.89 4.29-.81 6.2.23a7.012 7.012 0 0 1 3.58 5.07l6.83 43.71c.37 2.37-.5 4.77-2.31 6.35l-9.68 8.45a6.853 6.853 0 0 1-4.6 1.76zM31.6 323.25l20.43 27.06 1.11-.97-4.82-30.84-1.59.71a7.004 7.004 0 0 1-7.53-1.17l-7.6-6.8v12.01z"/><path class="ist0" d="M205.04 498.5h-31.2c-3.87 0-7-3.13-7-7v-31.99c0-3.87 3.13-7 7-7s7 3.13 7 7v24.99h17.2V285.69h-17.2V417c0 3.87-3.13 7-7 7s-7-3.13-7-7V279.41c0-1.16.29-2.31.84-3.33l.39-.72a7.004 7.004 0 0 1 6.16-3.67h30.81c3.87 0 7 3.13 7 7V491.5c0 3.87-3.13 7-7 7z"/><path class="ist0" d="M173.84 445.36c-1.84 0-3.65-.75-4.95-2.05-1.3-1.3-2.05-3.1-2.05-4.95 0-.45.05-.91.14-1.36.09-.45.22-.89.4-1.31.17-.43.39-.83.64-1.21.26-.39.55-.75.87-1.07 1.3-1.3 3.11-2.05 4.95-2.05s3.65.75 4.95 2.05c1.3 1.31 2.05 3.11 2.05 4.95s-.75 3.65-2.05 4.95a7.061 7.061 0 0 1-4.95 2.05z"/><path class="ist1" d="M394.48 444.68c-8.87 0-16.99-4.86-21.18-12.67l-41.31-77.23a7.053 7.053 0 0 1-.83-3.3v-72.07c0-3.87 3.13-7 7-7s7 3.13 7 7v70.31l40.48 75.67c1.75 3.26 5.13 5.28 8.84 5.28 2.89 0 5.45-1.14 7.41-3.3l55.15-61.05-10.41-9.09-43.6 39.77a7.012 7.012 0 0 1-5.9 1.73 7.004 7.004 0 0 1-4.99-3.6l-38.01-71.04c-1.82-3.41-.54-7.65 2.87-9.47 3.41-1.82 7.65-.54 9.47 2.87l33.76 63.11 41.56-37.91a6.998 6.998 0 0 1 9.32-.1l20.48 17.88c1.41 1.23 2.27 2.99 2.38 4.86s-.54 3.71-1.79 5.11l-59.92 66.33c-4.6 5.1-10.92 7.91-17.78 7.91z"/><path class="ist1" d="M461.03 367.53c-1.68 0-3.32-.61-4.6-1.73l-9.68-8.45a6.999 6.999 0 0 1-2.31-6.35l6.83-43.71a6.993 6.993 0 0 1 3.58-5.07 6.974 6.974 0 0 1 6.2-.23l5.81 2.61 15.88-14.2c2.06-1.84 5-2.3 7.52-1.17a7.001 7.001 0 0 1 4.14 6.39v30c0 1.52-.5 3-1.41 4.22l-26.37 34.93a7.036 7.036 0 0 1-4.87 2.75c-.24-.01-.48.01-.72.01zm-2.17-18.19l1.11.97 20.43-27.06v-12l-7.6 6.8a7.004 7.004 0 0 1-7.53 1.17l-1.59-.71-4.82 30.83z"/><path class="ist0" d="M338.16 498.5h-31.2c-3.87 0-7-3.13-7-7V278.69c0-3.87 3.13-7 7-7h30.81c2.57 0 4.93 1.41 6.15 3.67l.39.72c.55 1.02.85 2.17.85 3.33V491.5c0 3.87-3.13 7-7 7zm-24.2-14h17.2V285.69h-17.2V484.5z"/><path class="ist1" d="M239.75 165.96c-.46 0-.92-.05-1.37-.14s-.89-.22-1.31-.4c-.42-.17-.83-.39-1.21-.64-.38-.26-.74-.55-1.06-.87a7.036 7.036 0 0 1-1.92-6.32c.09-.45.23-.89.4-1.31.18-.42.39-.83.65-1.21.25-.38.54-.74.87-1.06 1.3-1.31 3.1-2.05 4.95-2.05 1.84 0 3.64.74 4.95 2.05.32.32.61.68.87 1.06.25.38.46.79.64 1.21.17.42.31.86.4 1.31s.14.91.14 1.37c0 1.84-.75 3.64-2.05 4.95a7.079 7.079 0 0 1-4.95 2.05zm32.5 0c-.45 0-.91-.05-1.36-.14-.45-.09-.89-.22-1.31-.4-.43-.17-.83-.39-1.21-.64-.39-.26-.74-.55-1.07-.87a7.079 7.079 0 0 1-2.05-4.95c0-.46.05-.92.14-1.37.09-.45.23-.89.4-1.31.18-.42.39-.83.64-1.21.26-.38.55-.74.87-1.06.33-.32.68-.62 1.07-.87.38-.25.78-.47 1.21-.65.42-.17.86-.31 1.31-.4.9-.18 1.83-.18 2.73 0 .45.09.89.23 1.31.4.42.18.83.4 1.21.65s.74.55 1.06.87a7.028 7.028 0 0 1 2.06 4.95c0 1.84-.75 3.64-2.06 4.95-.32.32-.68.61-1.06.87-.38.25-.79.47-1.21.64-.42.18-.86.31-1.31.4-.45.09-.91.14-1.37.14z"/></g></symbol><symbol viewBox="0 0 512 512" id="build4" xmlns="http://www.w3.org/2000/svg"><style>.jst0{fill:#16ade1}.jst1{fill:#1b3954}</style><g id="jLayer_2"><path class="jst1" d="M455.94 263.15H262.62c-3.87 0-7-3.13-7-7V148.56c0-1.91.78-3.73 2.16-5.05l60.25-57.72a6.994 6.994 0 0 1 4.84-1.95h133.07c3.87 0 7 3.13 7 7v34.37c0 3.87-3.13 7-7 7s-7-3.13-7-7V97.83H325.68l-56.06 53.71v97.6h179.32v-81.69c0-3.87 3.13-7 7-7s7 3.13 7 7v88.69c0 3.88-3.13 7.01-7 7.01z"/><path class="jst1" d="M455.94 153.33c-.45 0-.91-.04-1.37-.13-.44-.09-.88-.23-1.31-.4-.42-.18-.82-.39-1.2-.65-.39-.25-.75-.54-1.07-.87-.32-.32-.61-.68-.87-1.06-.25-.38-.47-.79-.64-1.21-.18-.42-.31-.86-.4-1.31-.09-.45-.14-.91-.14-1.37 0-.45.05-.91.14-1.36.09-.45.22-.89.4-1.31.17-.43.39-.83.64-1.21.26-.38.55-.74.87-1.07.32-.32.68-.61 1.07-.87.38-.25.78-.46 1.2-.64.43-.17.87-.31 1.31-.4.91-.18 1.84-.18 2.74 0 .45.09.89.23 1.31.4.42.18.83.39 1.21.64.38.26.74.55 1.06.87.32.33.62.69.87 1.07s.47.78.64 1.21c.18.42.32.86.41 1.31.09.45.13.91.13 1.36 0 .46-.04.92-.13 1.37-.09.45-.23.89-.41 1.31a6.818 6.818 0 0 1-1.51 2.27c-.32.33-.68.62-1.06.87-.38.26-.79.47-1.21.65-.42.17-.86.31-1.31.4-.45.09-.91.13-1.37.13z"/><path class="jst0" d="M411.59 228.2H306.98c-3.87 0-7-3.13-7-7v-53.72c0-1.91.78-3.73 2.16-5.05l33.71-32.3a6.994 6.994 0 0 1 4.84-1.95h70.9c3.87 0 7 3.13 7 7v86.02c0 3.87-3.13 7-7 7zm-97.61-14h90.61v-72.02H343.5l-29.53 28.29v43.73z"/><path class="jst1" d="M258.5 428.17c-1.84 0-3.65-.75-4.95-2.05-.32-.33-.61-.68-.87-1.07-.25-.38-.47-.78-.64-1.21-.18-.42-.31-.86-.4-1.31s-.14-.91-.14-1.36c0-.46.05-.92.14-1.37s.22-.89.4-1.31c.17-.42.39-.83.64-1.21.26-.38.55-.74.87-1.06a7.082 7.082 0 0 1 6.32-1.92c.44.09.88.23 1.31.4.42.18.83.39 1.21.65.38.25.74.54 1.06.87a6.818 6.818 0 0 1 1.51 2.27c.18.42.31.86.4 1.31.09.45.14.91.14 1.37 0 1.84-.75 3.64-2.05 4.95-.32.32-.68.61-1.06.87-.38.25-.79.46-1.21.64-.43.17-.87.31-1.31.4-.45.09-.91.14-1.37.14z"/><path class="jst1" d="M454.22 428.17H281.94c-3.87 0-7-3.13-7-7s3.13-7 7-7h172.29c16.69 0 30.28-13.58 30.28-30.28v-4.18c0-16.69-13.58-30.28-30.28-30.28h-273.2c-16.69 0-30.28 13.58-30.28 30.28v4.18c0 16.69 13.58 30.28 30.28 30.28h57.12c3.87 0 7 3.13 7 7s-3.13 7-7 7h-57.12c-24.41 0-44.28-19.86-44.28-44.28v-4.18c0-24.41 19.86-44.28 44.28-44.28h273.19c24.41 0 44.28 19.86 44.28 44.28v4.18c0 24.41-19.86 44.28-44.28 44.28zm1.72-113.37H164.83c-3.87 0-7-3.13-7-7v-23.92c0-1.88.75-3.68 2.09-4.99l28.23-27.73a6.99 6.99 0 0 1 4.91-2.01h262.88c3.87 0 7 3.13 7 7v51.65c0 3.87-3.13 7-7 7zm-284.11-14h277.11v-37.65H195.92l-24.09 23.67v13.98z"/><path class="jst1" d="M164.83 290.88c-1.81 0-3.62-.7-4.99-2.09a6.998 6.998 0 0 1 .09-9.9l23.13-22.72-102.6-100.23a36.45 36.45 0 0 1-7.43 9.03l70.84 83.42a7.012 7.012 0 0 1-.8 9.87c-2.95 2.5-7.37 2.14-9.87-.8l-75.84-89.3a7.003 7.003 0 0 1 2.12-10.75c5.89-3.05 10.16-8.73 11.41-15.21a7.002 7.002 0 0 1 4.79-5.35c2.46-.77 5.14-.12 6.98 1.67l115.29 112.63c1.35 1.31 2.11 3.12 2.11 5s-.75 3.68-2.09 5l-28.23 27.73c-1.37 1.33-3.14 2-4.91 2z"/><path class="jst1" d="M62.91 292.27H40.84c-3.77 0-6.87-2.99-7-6.76l-4.21-121.39a7.03 7.03 0 0 1 3.2-6.13 6.997 6.997 0 0 1 6.9-.39c3.01 1.49 6.26 2.25 9.67 2.25s6.67-.76 9.68-2.25a6.994 6.994 0 0 1 6.78.31 7.006 7.006 0 0 1 3.33 5.92l.72 121.39c.01 1.86-.72 3.65-2.04 4.98a6.96 6.96 0 0 1-4.96 2.07zm-15.31-14h8.27l-.62-104.88c-3.69.6-7.58.62-11.29.06l3.64 104.82z"/><path class="jst0" d="M100.66 360.94H46.9a7.01 7.01 0 0 1-5.47-2.63l-9.2-11.51a7.002 7.002 0 0 1-1.53-4.37v-57.15c0-3.87 3.13-7 7-7h33.84c3.87 0 7 3.13 7 7v37.04h10.6l19.69-19.7c2-2 5.01-2.6 7.63-1.52a6.994 6.994 0 0 1 4.32 6.47v33.61c0 1.89-.76 3.7-2.12 5.02l-13.12 12.77a7.01 7.01 0 0 1-4.88 1.97zm-50.39-14h47.55l8.96-8.72v-13.75l-9.79 9.8a7.001 7.001 0 0 1-4.95 2.05h-20.5c-3.87 0-7-3.13-7-7v-37.04H44.7v47.7l5.57 6.96zm137.62 57.14c-12.29 0-22.28-9.99-22.28-22.28s9.99-22.28 22.28-22.28c12.28 0 22.28 9.99 22.28 22.28s-10 22.28-22.28 22.28zm0-30.56c-4.57 0-8.28 3.71-8.28 8.28 0 4.57 3.71 8.28 8.28 8.28 4.56 0 8.28-3.71 8.28-8.28 0-4.57-3.71-8.28-8.28-8.28zm64.87 30.56c-12.29 0-22.28-9.99-22.28-22.28s9.99-22.28 22.28-22.28 22.28 9.99 22.28 22.28-10 22.28-22.28 22.28zm0-30.56c-4.57 0-8.28 3.71-8.28 8.28 0 4.57 3.71 8.28 8.28 8.28s8.28-3.71 8.28-8.28c0-4.57-3.72-8.28-8.28-8.28zm64.87 30.56c-12.29 0-22.28-9.99-22.28-22.28s9.99-22.28 22.28-22.28c12.28 0 22.28 9.99 22.28 22.28s-10 22.28-22.28 22.28zm0-30.56c-4.57 0-8.28 3.71-8.28 8.28 0 4.57 3.71 8.28 8.28 8.28 4.56 0 8.28-3.71 8.28-8.28 0-4.57-3.72-8.28-8.28-8.28zm64.87 30.56c-12.29 0-22.28-9.99-22.28-22.28s9.99-22.28 22.28-22.28 22.28 9.99 22.28 22.28-10 22.28-22.28 22.28zm0-30.56c-4.57 0-8.28 3.71-8.28 8.28 0 4.57 3.71 8.28 8.28 8.28s8.28-3.71 8.28-8.28c0-4.57-3.72-8.28-8.28-8.28zm64.87 30.56c-12.29 0-22.28-9.99-22.28-22.28s9.99-22.28 22.28-22.28c12.28 0 22.28 9.99 22.28 22.28s-10 22.28-22.28 22.28zm0-30.56c-4.57 0-8.28 3.71-8.28 8.28 0 4.57 3.71 8.28 8.28 8.28 4.56 0 8.28-3.71 8.28-8.28-.01-4.57-3.72-8.28-8.28-8.28zM49.4 116.04c-12.08 0-21.9 9.83-21.9 21.91 0 8.4 4.68 15.93 12.22 19.65a21.58 21.58 0 0 0 9.68 2.26c3.41 0 6.67-.76 9.68-2.25.04-.02.09-.04.13-.06l.27-.15c5.89-3.05 10.16-8.73 11.41-15.21.29-1.39.42-2.79.42-4.23.01-12.09-9.82-21.92-21.91-21.92zm0 57.82c-5.58 0-10.93-1.25-15.89-3.71-12.34-6.08-20.02-18.42-20.02-32.2 0-19.8 16.11-35.91 35.9-35.91 19.8 0 35.92 16.11 35.92 35.91 0 2.38-.23 4.73-.69 6.97-2.04 10.5-8.96 19.79-18.52 24.81-.3.17-.61.33-.93.48-4.92 2.42-10.22 3.65-15.77 3.65z"/></g></symbol><symbol viewBox="0 0 512 512" id="build5" xmlns="http://www.w3.org/2000/svg"><style>.kst0{fill:#16ade1}.kst1{fill:#1b3954}</style><g id="kLayer_2"><path class="kst1" d="M185.09 130.69h-37.54c-3.87 0-7-3.13-7-7V57.83c0-3.87 3.13-7 7-7h37.54c3.87 0 7 3.13 7 7v65.87c0 3.86-3.13 6.99-7 6.99zm-30.54-14h23.54V64.83h-23.54v51.86zm30.54 381.16h-37.54c-3.87 0-7-3.13-7-7V216.13c0-3.87 3.13-7 7-7h37.54c3.87 0 7 3.13 7 7s-3.13 7-7 7h-30.54v260.73h23.54V256.29c0-3.87 3.13-7 7-7s7 3.13 7 7v234.56c0 3.87-3.13 7-7 7zm-81.37-274.73H20.5c-3.87 0-7-3.13-7-7V123.7c0-3.87 3.13-7 7-7h83.22c3.87 0 7 3.13 7 7v92.43c0 3.86-3.13 6.99-7 6.99zm-76.22-14h69.22V130.7H27.5v78.42z"/><path class="kst1" d="M134.96 192.06h-31.24c-3.87 0-7-3.13-7-7v-30.13c0-3.87 3.13-7 7-7h31.24c3.87 0 7 3.13 7 7v30.13c0 3.86-3.13 7-7 7zm-24.24-14h17.24v-16.13h-17.24v16.13zm249 14H197.68c-3.87 0-7-3.13-7-7v-30.13c0-3.87 3.13-7 7-7h139.66c3.87 0 7 3.13 7 7s-3.13 7-7 7H204.68v16.13h148.04v-23.13c0-3.87 3.13-7 7-7s7 3.13 7 7v30.13c0 3.86-3.13 7-7 7zm88.17 0h-44.56c-3.87 0-7-3.13-7-7v-30.13c0-3.87 3.13-7 7-7h44.56c3.87 0 7 3.13 7 7v30.13c0 3.86-3.13 7-7 7zm-37.56-14h30.56v-16.13h-30.56v16.13z"/><path class="kst1" d="M403.33 235.88h-43.61c-3.87 0-7-3.13-7-7v-84.42c0-3.87 3.13-7 7-7h43.61c3.87 0 7 3.13 7 7v84.42c0 3.87-3.13 7-7 7zm-36.61-14h29.61v-70.42h-29.61v70.42zm97.81-70.42c-1.79 0-3.58-.68-4.95-2.05L356.65 46.48h-146.5c-3.87 0-7-3.13-7-7s3.13-7 7-7h149.4c1.86 0 3.64.74 4.95 2.05l104.98 104.98a7.007 7.007 0 0 1 0 9.9 6.973 6.973 0 0 1-4.95 2.05zM62.1 130.7a6.99 6.99 0 0 1-4.07-1.31c-3.14-2.25-3.86-6.63-1.61-9.77l60.38-84.21c2.25-3.14 6.63-3.86 9.77-1.61 3.14 2.25 3.86 6.63 1.61 9.77l-60.38 84.2a7.004 7.004 0 0 1-5.7 2.93zm429.4 288.68H271.55c-3.87 0-7-3.13-7-7v-37.11c0-3.87 3.13-7 7-7H491.5c3.87 0 7 3.13 7 7v37.11c0 3.86-3.13 7-7 7zm-212.95-14H484.5v-23.11H278.55v23.11z"/><path class="kst1" d="M381.53 382.27c-3.87 0-7-3.13-7-7v-62.91c0-3.87 3.13-7 7-7s7 3.13 7 7v62.91c0 3.86-3.13 7-7 7zm0-118.98c-3.87 0-7-3.13-7-7v-27.41c0-3.87 3.13-7 7-7s7 3.13 7 7v27.41c0 3.87-3.13 7-7 7zm-54.1 118.98c-1.23 0-2.48-.32-3.61-1-3.31-2-4.38-6.3-2.38-9.61l37.9-62.91c2-3.31 6.3-4.38 9.61-2.38 3.31 2 4.38 6.3 2.38 9.61l-37.9 62.91a6.995 6.995 0 0 1-6 3.38zm108.2 0c-2.37 0-4.69-1.21-6-3.39l-37.91-62.91c-2-3.31-.93-7.61 2.38-9.61 3.31-2 7.61-.93 9.61 2.38l37.91 62.91c2 3.31.93 7.61-2.38 9.61a7.022 7.022 0 0 1-3.61 1.01z"/><path class="kst0" d="M210.15 64.83h-87.66c-3.87 0-7-3.13-7-7V21.15c0-3.87 3.13-7 7-7h19.91c3.87 0 7 3.13 7 7s-3.13 7-7 7h-12.91v22.68h73.66V28.15h-22.49c-3.87 0-7-3.13-7-7s3.13-7 7-7h29.49c3.87 0 7 3.13 7 7v36.68c0 3.86-3.13 7-7 7z"/><path class="kst0" d="M161.43 28.15c-1.85 0-3.65-.75-4.95-2.05-.33-.33-.62-.69-.87-1.07a7.05 7.05 0 0 1-.65-1.21 7.35 7.35 0 0 1-.4-1.31c-.09-.45-.14-.91-.14-1.37 0-1.84.75-3.64 2.06-4.95 1.62-1.62 4.04-2.37 6.31-1.91.45.09.89.23 1.31.4.43.18.83.39 1.21.64a7.046 7.046 0 0 1 3.12 5.82c0 .46-.05.92-.14 1.37-.09.45-.22.89-.4 1.31s-.39.83-.64 1.21c-.26.38-.55.74-.88 1.07-.32.32-.67.61-1.06.86-.38.26-.78.47-1.21.65-.42.17-.86.31-1.31.4s-.91.14-1.36.14zm36.25 194.98h-62.72c-3.87 0-7-3.13-7-7V123.7c0-3.87 3.13-7 7-7h62.72c3.87 0 7 3.13 7 7v92.43c0 3.86-3.13 7-7 7zm-55.72-14h48.72V130.7h-48.72v78.43zm349.54-6.6h-43.61c-3.87 0-7-3.13-7-7v-51.06c0-3.87 3.13-7 7-7h43.61c3.87 0 7 3.13 7 7v51.06c0 3.86-3.13 7-7 7zm-36.61-14h29.61v-37.06h-29.61v37.06zm-57.18 130.82h-32.37c-2.5 0-4.81-1.33-6.06-3.5l-16.18-28.03a7.002 7.002 0 0 1 0-7l16.18-28.03a6.988 6.988 0 0 1 6.06-3.5h32.37c2.5 0 4.81 1.33 6.06 3.5l16.19 28.03a7.002 7.002 0 0 1 0 7l-16.19 28.03a6.988 6.988 0 0 1-6.06 3.5zm-28.33-14h24.29l12.15-21.03-12.15-21.03h-24.29l-12.14 21.03 12.14 21.03z"/></g></symbol><symbol viewBox="0 0 512 512" id="build6" xmlns="http://www.w3.org/2000/svg"><style>.lst0{fill:#16ade1}.lst1{fill:#1b3954}</style><g id="lLayer_2"><path class="lst1" d="M167.68 498.5a7.043 7.043 0 0 1-2.68-.54c-.42-.17-.83-.39-1.2-.64-.39-.26-.75-.55-1.07-.87a7.061 7.061 0 0 1-2.05-4.95 7.043 7.043 0 0 1 .54-2.68c.17-.42.39-.83.64-1.21.26-.38.55-.74.87-1.06a6.818 6.818 0 0 1 2.27-1.51c.42-.18.87-.31 1.31-.4.9-.18 1.84-.18 2.74 0 .45.09.89.22 1.31.4a6.818 6.818 0 0 1 2.27 1.51 6.818 6.818 0 0 1 1.51 2.27 7.043 7.043 0 0 1 .54 2.68c0 1.84-.75 3.65-2.05 4.95-.32.32-.68.61-1.06.87-.38.25-.79.47-1.21.64-.42.18-.86.31-1.31.4-.45.09-.91.14-1.37.14z"/><path class="lst0" d="M455.31 194.77h-22.17c-3.87 0-7-3.13-7-7s3.13-7 7-7h22.17c3.87 0 7 3.13 7 7s-3.13 7-7 7zm0 51.25h-22.17c-3.87 0-7-3.13-7-7s3.13-7 7-7h22.17c3.87 0 7 3.13 7 7s-3.13 7-7 7zm0 51.25h-22.17c-3.87 0-7-3.13-7-7s3.13-7 7-7h22.17c3.87 0 7 3.13 7 7s-3.13 7-7 7zm0 51.24h-22.17c-3.87 0-7-3.13-7-7s3.13-7 7-7h22.17c3.87 0 7 3.13 7 7s-3.13 7-7 7zm0 51.25h-22.17c-3.87 0-7-3.13-7-7s3.13-7 7-7h22.17c3.87 0 7 3.13 7 7s-3.13 7-7 7zm0 51.25h-22.17c-3.87 0-7-3.13-7-7s3.13-7 7-7h22.17c3.87 0 7 3.13 7 7s-3.13 7-7 7zm-76.23-28.74c-3.87 0-7-3.13-7-7V305L268.82 408.27h74.65c3.87 0 7 3.13 7 7s-3.13 7-7 7h-91.55a7.02 7.02 0 0 1-6.47-4.32 7.01 7.01 0 0 1 1.52-7.63l127.16-127.16c2-2 5.01-2.6 7.63-1.52a6.994 6.994 0 0 1 4.32 6.47v127.16c0 3.86-3.13 7-7 7z"/><path class="lst1" d="M455.31 498.5H190.53c-3.87 0-7-3.13-7-7s3.13-7 7-7h257.78V120.96L84.78 484.5h58.9c3.87 0 7 3.13 7 7s-3.13 7-7 7h-75.8a7.02 7.02 0 0 1-6.47-4.32 7.01 7.01 0 0 1 1.52-7.63L450.36 99.12c2-2 5.01-2.6 7.63-1.52a6.994 6.994 0 0 1 4.32 6.47V491.5c0 3.87-3.13 7-7 7zm-73.28-388.88c-1.49 0-2.99-.47-4.25-1.44a7.014 7.014 0 0 1-2.08-8.56 6.985 6.985 0 0 1 4.87-4.14c2.36-.55 4.84.15 6.55 1.87l.09.09a7.007 7.007 0 0 1 0 9.9l-.23.23a6.98 6.98 0 0 1-4.95 2.05z"/><path class="lst1" d="M101.15 381.36c-7.44 0-14.87-2.83-20.53-8.49L58.8 351.05c-11.32-11.32-11.32-29.74 0-41.06l19.44-19.44a7.007 7.007 0 0 1 9.9 0 7.007 7.007 0 0 1 0 9.9L68.7 319.89c-5.86 5.86-5.86 15.4 0 21.26l21.82 21.82c5.86 5.86 15.4 5.86 21.26 0l248.63-248.63a26.185 26.185 0 0 1-9.97-6.23 26.064 26.064 0 0 1-7.6-19.28c-7.17.25-14.19-2.52-19.28-7.6a26.09 26.09 0 0 1-6.24-9.97L107.8 280.79a7.007 7.007 0 0 1-9.9 0 7.007 7.007 0 0 1 0-9.9L320.75 48.04a6.989 6.989 0 0 1 9.27-.55 6.984 6.984 0 0 1 1.65 9.14c-2.88 4.73-2.14 10.78 1.79 14.71 2.4 2.4 5.59 3.66 8.98 3.51 3.84-.16 7.6 1.31 10.33 4.04 2.74 2.73 4.22 6.5 4.06 10.35-.14 3.4 1.1 6.58 3.51 8.99 3.92 3.92 9.96 4.66 14.69 1.8a7.005 7.005 0 0 1 9.13 1.67 7.011 7.011 0 0 1-.56 9.27l-261.92 261.9c-5.66 5.66-13.09 8.49-20.53 8.49z"/><path class="lst1" d="M109.68 328.99c-1.79 0-3.58-.68-4.95-2.05a7.007 7.007 0 0 1 0-9.9l199.2-199.2a7.007 7.007 0 0 1 9.9 0 7.007 7.007 0 0 1 0 9.9l-199.2 199.2a6.98 6.98 0 0 1-4.95 2.05zm215.86-215.86c-.45 0-.91-.05-1.36-.14-.45-.09-.89-.22-1.31-.4-.43-.17-.83-.39-1.21-.64-.39-.26-.74-.55-1.07-.87a7.079 7.079 0 0 1-2.05-4.95c0-.46.05-.92.14-1.37.09-.45.23-.89.4-1.31.17-.42.39-.83.64-1.21.26-.38.55-.74.87-1.06.33-.32.68-.62 1.07-.87.38-.25.78-.47 1.21-.64.42-.18.86-.31 1.31-.4a7.03 7.03 0 0 1 6.31 1.91c.33.32.62.68.87 1.06.26.38.47.79.65 1.21.17.42.31.86.4 1.31a7.036 7.036 0 0 1-1.92 6.32c-1.3 1.3-3.1 2.05-4.95 2.05z"/><path class="lst0" d="M101.15 381.97c-7.06 0-14.12-2.69-19.5-8.06l-23.89-23.89c-10.75-10.75-10.75-28.24 0-38.99l20.48-20.48a7.007 7.007 0 0 1 9.9 0l52.98 52.98a7.007 7.007 0 0 1 0 9.9l-20.48 20.48c-5.37 5.37-12.43 8.06-19.49 8.06zM91.55 364c5.29 5.29 13.9 5.29 19.19 0l15.53-15.53-43.08-43.08-15.53 15.53c-5.29 5.29-5.29 13.9 0 19.19L91.55 364zm277.26-248.26c-6.72 0-13.35-2.61-18.37-7.63a26.064 26.064 0 0 1-7.6-19.28c-7.18.24-14.19-2.52-19.28-7.6-8.51-8.51-10.09-21.62-3.85-31.89.36-.59.73-1.13 1.11-1.67 1.31-1.83 3.06-3.3 5.08-4.3.28-.14.57-.27.86-.38.79-.33 1.61-.59 2.47-.76l79.58-28.32c2.54-.91 5.39-.27 7.3 1.65s2.55 4.75 1.65 7.3l-28.34 79.61c-.17.82-.42 1.62-.73 2.38-.13.34-.27.67-.44.98a13.77 13.77 0 0 1-4.17 4.97c-.58.41-1.13.78-1.74 1.16a26.178 26.178 0 0 1-13.53 3.78zm-25.8-40.91c3.63 0 7.17 1.46 9.76 4.05 2.74 2.73 4.22 6.5 4.06 10.35-.14 3.4 1.1 6.58 3.51 8.99 3.92 3.92 9.96 4.66 14.69 1.8.2-.13.45-.29.71-.46.07-.43.17-.86.32-1.27l23.58-66.24-66.25 23.58c-.41.15-.83.25-1.26.32-.16.23-.32.47-.47.72-2.86 4.7-2.13 10.75 1.8 14.68 2.4 2.4 5.6 3.65 8.98 3.51.19-.03.38-.03.57-.03zm-11.44-18.69z"/><path class="lst0" d="M396.63 68.35c-1.79 0-3.58-.68-4.95-2.05l-26.31-26.31a7.007 7.007 0 0 1 0-9.9 7.007 7.007 0 0 1 9.9 0l26.31 26.31a7.007 7.007 0 0 1 0 9.9 6.973 6.973 0 0 1-4.95 2.05z"/></g></symbol><symbol viewBox="0 0 512 512" id="build7" xmlns="http://www.w3.org/2000/svg"><style>.mst0{fill:#16ade1}.mst1{fill:#1b3954}</style><g id="mLayer_2"><path class="mst1" d="M322.7 325.58c-1.85 0-3.65-.75-4.96-2.05-.32-.32-.61-.68-.87-1.06-.25-.38-.46-.79-.64-1.21a7.35 7.35 0 0 1-.4-1.31c-.09-.45-.14-.91-.14-1.37 0-.45.05-.91.14-1.37.09-.44.23-.88.4-1.31.18-.42.39-.82.64-1.2.26-.39.55-.75.87-1.07.33-.32.68-.61 1.07-.87.38-.25.78-.47 1.21-.64a6.968 6.968 0 0 1 5.35 0c.42.17.83.39 1.21.64.38.26.74.55 1.06.87.33.32.62.68.87 1.07.26.38.47.78.65 1.2.17.43.31.87.4 1.31.09.46.13.92.13 1.37 0 .46-.04.92-.13 1.37-.09.45-.23.89-.4 1.31-.18.42-.39.83-.65 1.21-.25.38-.54.74-.87 1.06-.32.32-.68.62-1.06.87s-.79.47-1.21.65c-.42.17-.86.3-1.31.39-.45.1-.91.14-1.36.14zM29.62 498.5c-1.01 0-2.04-.22-3.02-.69a7 7 0 0 1-3.29-9.34l116.03-242.29c3.02-6.3 8.33-11 14.95-13.23 6.62-2.23 13.69-1.7 19.9 1.49l128.36 65.92c3.44 1.77 4.8 5.99 3.03 9.42-1.77 3.44-5.99 4.8-9.42 3.03L167.8 246.9a11.566 11.566 0 0 0-9.04-.68 11.55 11.55 0 0 0-6.79 6.01L35.93 494.52a6.973 6.973 0 0 1-6.31 3.98z"/><path class="mst1" d="M29.62 498.5c-2.95 0-5.69-1.88-6.65-4.83-1.2-3.67.81-7.63 4.49-8.82l43.09-14.05c3.68-1.2 7.63.81 8.82 4.49 1.2 3.67-.81 7.63-4.49 8.82l-43.09 14.05c-.72.23-1.45.34-2.17.34z"/><path class="mst1" d="M72.71 484.46c-2.95 0-5.69-1.88-6.65-4.83-1.2-3.68.81-7.63 4.49-8.83l299.6-97.66c4.62-1.51 7.62-5.3 8-10.15.39-4.85-1.96-9.07-6.29-11.29l-27.21-13.97c-3.44-1.77-4.8-5.99-3.03-9.42 1.77-3.44 5.99-4.8 9.42-3.03l27.21 13.97c9.38 4.82 14.69 14.34 13.85 24.86-.84 10.52-7.59 19.08-17.62 22.35l-299.6 97.66c-.72.22-1.45.34-2.17.34zm125.77-142.77c-1.87 0-3.74-.75-5.12-2.22a6.99 6.99 0 0 1 .34-9.89l48.28-45.09v-79.97c0-7.45 3.62-14.48 9.68-18.8L301.62 150c3.14-2.25 7.52-1.52 9.77 1.62a7.007 7.007 0 0 1-1.62 9.77l-49.96 35.72a9.095 9.095 0 0 0-3.81 7.4v83.01c0 1.94-.8 3.79-2.22 5.12l-50.51 47.17a7.027 7.027 0 0 1-4.79 1.88z"/><path class="mst0" d="M334.21 176.83c-13.81 0-26.84-6.7-34.85-17.92-6.65-9.3-9.28-20.64-7.4-31.91 1.88-11.28 8.03-21.15 17.33-27.8l.09-.06 112.35-77.68c7.3-5.2 15.88-7.95 24.81-7.95 13.81 0 26.83 6.7 34.85 17.92 13.73 19.2 9.27 45.99-9.93 59.72l-.09.06-112.35 77.68c-7.29 5.19-15.87 7.94-24.81 7.94zm-16.82-66.22c-6.24 4.47-10.36 11.11-11.62 18.68-1.26 7.59.51 15.22 4.98 21.48a28.901 28.901 0 0 0 23.46 12.06c6.02 0 11.8-1.86 16.72-5.37l.09-.06 112.34-77.68c12.89-9.25 15.87-27.25 6.64-40.16a28.901 28.901 0 0 0-23.46-12.06c-6.02 0-11.8 1.86-16.72 5.37l-.09.06-112.34 77.68zM174.83 363.78c-.45 0-.91-.05-1.36-.14-.45-.09-.89-.22-1.31-.4-.43-.17-.83-.39-1.21-.64-.39-.26-.74-.55-1.07-.87-.32-.33-.61-.68-.87-1.07a7.043 7.043 0 0 1-1.18-3.88c0-.46.05-.92.14-1.37.09-.45.22-.89.4-1.31.17-.42.39-.83.64-1.21.26-.38.55-.74.87-1.06.33-.32.68-.62 1.07-.87.38-.25.78-.47 1.21-.65.42-.17.86-.3 1.31-.39.9-.19 1.83-.19 2.73 0 .45.09.89.22 1.31.39.42.18.83.4 1.21.65s.74.55 1.06.87c.33.32.62.68.87 1.06.26.38.47.79.65 1.21.17.42.31.86.4 1.31.09.45.13.91.13 1.37 0 .45-.04.91-.13 1.37-.09.44-.23.88-.4 1.31-.18.42-.39.82-.65 1.2-.25.39-.54.74-.87 1.07-1.3 1.3-3.1 2.05-4.95 2.05z"/><path class="mst0" d="M386.15 96.39c-1.79 0-3.58-.68-4.95-2.05l-20.02-20.02a7.007 7.007 0 0 1 0-9.9 7.007 7.007 0 0 1 9.9 0l20.02 20.02a7.007 7.007 0 0 1 0 9.9 6.973 6.973 0 0 1-4.95 2.05zm30.04-23.77c-1.79 0-3.58-.68-4.95-2.05L394.26 53.6a7.007 7.007 0 0 1 0-9.9 7.007 7.007 0 0 1 9.9 0l16.98 16.98a7.007 7.007 0 0 1 0 9.9 7.005 7.005 0 0 1-4.95 2.04zm-70 52.77c-1.79 0-3.58-.68-4.95-2.05l-20.29-20.29a7.007 7.007 0 0 1 0-9.9 7.007 7.007 0 0 1 9.9 0l20.29 20.29a7.007 7.007 0 0 1 0 9.9 7.015 7.015 0 0 1-4.95 2.05z"/></g></symbol><symbol viewBox="0 0 512 512" id="build8" xmlns="http://www.w3.org/2000/svg"><style>.nst0{fill:#16ade1}.nst1{fill:#1b3954}</style><g id="nLayer_2"><path class="nst1" d="M203.17 114.95c-1.26 0-2.54-.34-3.69-1.06-16.59-10.32-33.63-17.58-50.62-21.59a7.013 7.013 0 0 1-5.21-8.42 7.013 7.013 0 0 1 8.42-5.21c18.47 4.36 36.91 12.21 54.8 23.33 3.28 2.04 4.29 6.36 2.25 9.64a6.996 6.996 0 0 1-5.95 3.31zm-99.35 170.01a7.043 7.043 0 0 1-2.68-.54c-.42-.17-.83-.39-1.21-.64-.38-.26-.74-.55-1.06-.87a7.061 7.061 0 0 1-2.05-4.95c0-.46.05-.92.14-1.37.09-.44.22-.89.4-1.31a6.818 6.818 0 0 1 1.51-2.27 6.818 6.818 0 0 1 2.27-1.51c.43-.18.87-.31 1.31-.4 2.28-.46 4.7.28 6.32 1.91.32.32.61.68.87 1.06.25.38.47.79.64 1.21.18.42.31.87.4 1.31.09.45.14.91.14 1.37 0 1.84-.75 3.65-2.05 4.95a7.061 7.061 0 0 1-4.95 2.05z"/><path class="nst0" d="M126.31 262.47c-1.79 0-3.58-.68-4.95-2.05a7.007 7.007 0 0 1 0-9.9l138.11-138.11a7.007 7.007 0 0 1 9.9 0 7.007 7.007 0 0 1 0 9.9L131.26 260.42a6.998 6.998 0 0 1-4.95 2.05z"/><path class="nst1" d="M71.63 423.42H36.42c-3.87 0-7-3.13-7-7v-35.28c0-3.87 3.13-7 7-7h55.17a7.003 7.003 0 1 1 3.61 13c-10.38 6.25-16.57 17.19-16.57 29.28 0 3.87-3.13 7-7 7zm-28.21-14h21.73a48.446 48.446 0 0 1 8.71-21.28H43.42v21.28zm448.08 14h-25.6c-3.87 0-7-3.13-7-7 0-18.83-15.32-34.16-34.15-34.16s-34.16 15.32-34.16 34.16c0 3.87-3.13 7-7 7H153.94c-3.87 0-7-3.13-7-7 0-12.09-6.19-23.04-16.57-29.28a6.99 6.99 0 0 1-3.13-7.87 7 7 0 0 1 6.74-5.13H351v-67.22c0-3.87 3.13-7 7-7s7 3.13 7 7v74.22c0 3.87-3.13 7-7 7H151.72a48.683 48.683 0 0 1 8.71 21.28h216.69c3.4-23.25 23.47-41.16 47.65-41.16 24.17 0 44.24 17.91 47.64 41.16h12.1V283.85l-39.16-58.25h-80.33v25.66c0 3.87-3.13 7-7 7s-7-3.13-7-7V218.6c0-3.87 3.13-7 7-7h91.06c2.33 0 4.51 1.16 5.81 3.09l42.43 63.12a6.952 6.952 0 0 1 1.19 3.91v134.71a7.008 7.008 0 0 1-7.01 6.99z"/><path class="nst1" d="M358.01 284.81c-.46 0-.92-.04-1.37-.13a7.35 7.35 0 0 1-1.31-.4 7.05 7.05 0 0 1-1.21-.65c-.38-.25-.74-.54-1.06-.87-.33-.32-.62-.68-.87-1.06a7.05 7.05 0 0 1-.65-1.21 7.35 7.35 0 0 1-.4-1.31c-.09-.45-.13-.91-.13-1.37 0-.45.04-.91.13-1.36.09-.45.23-.89.4-1.31.18-.43.39-.83.65-1.21.25-.39.54-.74.87-1.07.32-.32.68-.61 1.06-.87.38-.25.79-.47 1.21-.64.42-.18.86-.31 1.31-.4 2.27-.46 4.69.29 6.32 1.91 1.3 1.31 2.05 3.11 2.05 4.95s-.75 3.65-2.05 4.95c-.33.33-.68.62-1.07.87-.38.26-.78.47-1.21.65-.42.17-.86.31-1.3.4-.46.09-.92.13-1.37.13zm99.56 30.31h-65.63c-3.87 0-7-3.13-7-7v-55.59c0-3.87 3.13-7 7-7H431c2.33 0 4.51 1.16 5.81 3.1l26.57 39.53a6.976 6.976 0 0 1 1.19 3.91v16.06c0 3.85-3.14 6.99-7 6.99zm-58.63-14h51.63v-6.93l-23.3-34.67h-28.32v41.6z"/><path class="nst0" d="M112.79 464.58c-26.55 0-48.16-21.6-48.16-48.16 0-16.79 8.95-32.61 23.35-41.28a48.08 48.08 0 0 1 24.81-6.88c8.76 0 17.34 2.38 24.81 6.88 14.4 8.67 23.35 24.48 23.35 41.27-.01 26.56-21.61 48.17-48.16 48.17zm0-82.32c-6.21 0-12.29 1.68-17.58 4.87-10.38 6.25-16.57 17.19-16.57 29.28 0 18.83 15.32 34.16 34.16 34.16s34.16-15.32 34.16-34.16c0-12.09-6.19-23.04-16.57-29.28a34.255 34.255 0 0 0-17.6-4.87z"/><path class="nst1" d="M112.79 434.35c-9.89 0-17.93-8.05-17.93-17.93 0-6.25 3.33-12.14 8.69-15.37 2.78-1.68 5.98-2.56 9.24-2.56s6.46.89 9.25 2.57c5.36 3.22 8.69 9.11 8.69 15.37-.01 9.88-8.06 17.92-17.94 17.92zm0-21.86c-.73 0-1.4.19-2.02.56a3.93 3.93 0 1 0 5.94 3.38c0-1.39-.71-2.65-1.91-3.37-.61-.39-1.29-.57-2.01-.57zm311.96 21.86c-9.89 0-17.93-8.05-17.93-17.93 0-6.25 3.33-12.14 8.69-15.37 2.78-1.68 5.98-2.56 9.24-2.56s6.46.89 9.25 2.57c5.36 3.22 8.69 9.11 8.69 15.37 0 9.88-8.05 17.92-17.94 17.92zm0-21.86c-.73 0-1.4.19-2.02.56a3.93 3.93 0 1 0 5.94 3.38c0-1.39-.71-2.65-1.91-3.37-.6-.39-1.28-.57-2.01-.57z"/><path class="nst0" d="M424.76 464.58c-26.55 0-48.16-21.6-48.16-48.16s21.6-48.16 48.16-48.16c26.55 0 48.15 21.6 48.15 48.16s-21.6 48.16-48.15 48.16zm0-82.32c-18.83 0-34.16 15.32-34.16 34.16s15.32 34.16 34.16 34.16c18.83 0 34.15-15.32 34.15-34.16s-15.32-34.16-34.15-34.16z"/><path class="nst1" d="M55.21 384.38c-1.79 0-3.58-.68-4.95-2.05a7.007 7.007 0 0 1 0-9.9l53.99-53.99a7.007 7.007 0 0 1 9.9 0 7.007 7.007 0 0 1 0 9.9l-53.99 53.99a6.956 6.956 0 0 1-4.95 2.05zm303.06 0c-1.79 0-3.58-.68-4.95-2.05l-51.74-51.74a7.007 7.007 0 0 1 0-9.9 7.007 7.007 0 0 1 9.9 0l51.74 51.74a7.007 7.007 0 0 1 0 9.9 6.973 6.973 0 0 1-4.95 2.05z"/><path class="nst0" d="M197.43 368.26c-2.77 0-5.54-.31-8.27-.95-39.22-9.14-78.53-31.88-110.67-64.02-32.15-32.15-54.88-71.45-64.02-110.67-2.9-12.44.98-25.84 10.12-34.98l99.14-99.14c9.14-9.14 22.54-13.02 34.98-10.12 39.22 9.14 78.53 31.88 110.67 64.02s54.88 71.45 64.02 110.67c2.9 12.44-.98 25.84-10.12 34.98l-99.14 99.14c-7.13 7.14-16.87 11.07-26.71 11.07zM150.39 61.43c-6.17 0-12.28 2.47-16.77 6.97l-99.14 99.14c-5.75 5.75-8.19 14.14-6.38 21.9 8.56 36.71 29.97 73.63 60.29 103.95 30.32 30.32 67.24 51.73 103.95 60.29 7.76 1.81 16.16-.63 21.91-6.38l99.14-99.14c5.75-5.75 8.19-14.14 6.38-21.9-8.56-36.71-29.97-73.63-60.29-103.95-30.32-30.32-67.24-51.73-103.95-60.29-1.7-.39-3.43-.59-5.14-.59z"/></g></symbol><symbol viewBox="0 0 512 512" id="build9" xmlns="http://www.w3.org/2000/svg"><style>.ost0{fill:#16ade1}.ost1{fill:#1b3954}</style><g id="oLayer_2"><path class="ost0" d="M36.03 475.97l115.42 8.48c4.84.37 9.59-1.41 13.04-4.85l83.33-83.32c6.52-6.52 6.52-17.12.01-23.63l-25.46-25.46-4.45 4.45a183.966 183.966 0 0 1-86.62 48.68c-5.55 1.35-11.28-.26-15.32-4.3-4.04-4.04-5.65-9.77-4.3-15.32a184.05 184.05 0 0 1 48.68-86.62l4.45-4.45-25.46-25.46a16.604 16.604 0 0 0-11.81-4.89c-4.46 0-8.66 1.74-11.82 4.9L32.4 347.51c-3.45 3.45-5.22 8.2-4.85 13.03l8.48 115.43zm216.73-74.75zM152.7 498.5c-.76 0-1.52-.03-2.29-.09l-121.43-8.92c-3.46-.25-6.21-3.01-6.47-6.47l-8.92-121.44a30.63 30.63 0 0 1 8.92-23.96l83.33-83.32c5.8-5.8 13.51-9 21.72-9h.01c8.2 0 15.91 3.19 21.71 8.99l30.41 30.41a7.007 7.007 0 0 1 0 9.9l-9.4 9.4a169.989 169.989 0 0 0-44.98 80.03c-.26 1.06.26 1.78.59 2.11.33.33 1.05.85 2.11.59 30.3-7.38 57.97-22.93 80.03-44.98l9.4-9.4a7.007 7.007 0 0 1 9.9 0l30.41 30.41c11.97 11.97 11.97 31.45-.01 43.43l-83.32 83.32c-5.82 5.78-13.62 8.99-21.72 8.99z"/><path class="ost1" d="M402 149.36c-1.8 0-3.59-.69-4.95-2.05l-32.37-32.37a7.006 7.006 0 0 1-.58-9.24l24.47-31.52a6.969 6.969 0 0 1 5.09-2.69c2.01-.12 3.97.62 5.39 2.04l39.41 39.41c1.42 1.42 2.16 3.38 2.04 5.39s-1.11 3.86-2.69 5.09l-31.52 24.47a6.926 6.926 0 0 1-4.29 1.47zm-23.05-39.95l23.64 23.64 20.37-15.82-28.19-28.19-15.82 20.37z"/><path class="ost1" d="M402 149.36c-1.8 0-3.59-.69-4.95-2.05l-32.37-32.37a7.006 7.006 0 0 1-.58-9.24l24.47-31.52a6.969 6.969 0 0 1 5.09-2.69c2.01-.12 3.97.62 5.39 2.04l39.41 39.41c1.42 1.42 2.16 3.38 2.04 5.39s-1.11 3.86-2.69 5.09l-31.52 24.47a6.926 6.926 0 0 1-4.29 1.47zm-23.05-39.95l23.64 23.64 20.37-15.82-28.19-28.19-15.82 20.37z"/><path class="ost1" d="M127.41 400.79c-4.24 0-8.33-1.67-11.43-4.76-4.04-4.04-5.65-9.77-4.3-15.32a184.05 184.05 0 0 1 48.68-86.62l9.4-9.4a7.007 7.007 0 0 1 9.9 0l5.01 5.01 147.86-147.86-17.24-17.24c-6-6-6.6-15.58-1.4-22.27l63.85-82.3c2.99-3.84 7.48-6.2 12.31-6.49 4.83-.3 9.54 1.49 12.95 4.9L493.56 109c3.42 3.42 5.2 8.15 4.9 12.98-.3 4.83-2.67 9.31-6.49 12.28l-82.3 63.86c-6.71 5.19-16.28 4.58-22.27-1.4l-22.2-22.2a7.007 7.007 0 0 1 0-9.9 7.007 7.007 0 0 1 9.9 0l22.2 22.2a2.87 2.87 0 0 0 3.79.23l82.29-63.85a2.84 2.84 0 0 0 1.1-2.09c.03-.48-.04-1.41-.83-2.2L393.1 28.33c-.79-.79-1.71-.85-2.19-.83-.49.03-1.42.21-2.12 1.12l-63.84 82.29c-.9 1.16-.8 2.75.24 3.79l22.19 22.19a7.001 7.001 0 0 1 0 9.9L189.62 304.55a7.007 7.007 0 0 1-9.9 0l-5.01-5.01-4.45 4.45a169.989 169.989 0 0 0-44.98 80.03c-.26 1.06.26 1.78.59 2.11.33.33 1.04.85 2.11.59 30.3-7.38 57.97-22.93 80.03-44.98l4.45-4.45-5.01-5.01a7.007 7.007 0 0 1 0-9.9l10.83-10.83a7.007 7.007 0 0 1 9.9 0 7.007 7.007 0 0 1 0 9.9l-5.89 5.88 5.01 5.01a7.001 7.001 0 0 1 0 9.9l-9.4 9.4a183.966 183.966 0 0 1-86.62 48.68c-1.28.32-2.58.47-3.87.47z"/><path class="ost1" d="M265.54 281.19c-1.79 0-3.58-.68-4.95-2.05a7.007 7.007 0 0 1 0-9.9l81.89-81.89a7.007 7.007 0 0 1 9.9 0 7.007 7.007 0 0 1 0 9.9l-81.89 81.9a7.047 7.047 0 0 1-4.95 2.04zm-19.94 19.94c-.45 0-.91-.05-1.37-.14-.44-.09-.88-.23-1.3-.4-.43-.18-.83-.39-1.21-.65-.39-.25-.74-.54-1.07-.87-1.3-1.3-2.05-3.1-2.05-4.94 0-.46.05-.92.14-1.37.09-.45.23-.89.4-1.31.17-.43.39-.83.64-1.21.26-.39.55-.74.87-1.07.33-.32.68-.61 1.07-.87.38-.25.78-.46 1.21-.64.42-.17.86-.31 1.3-.4 2.28-.46 4.7.29 6.32 1.91.32.33.62.68.87 1.07.26.38.47.78.65 1.21.17.42.31.86.4 1.31s.13.91.13 1.37c0 1.84-.74 3.64-2.05 4.94a7.01 7.01 0 0 1-4.95 2.06zM91.05 427.95c-1.79 0-3.58-.68-4.95-2.05a7.007 7.007 0 0 1 0-9.9l29.88-29.88a7.007 7.007 0 0 1 9.9 0 7.007 7.007 0 0 1 0 9.9L96 425.9a6.973 6.973 0 0 1-4.95 2.05zm-23.1 23.1c-.46 0-.92-.05-1.37-.14-.45-.09-.89-.22-1.31-.4A6.818 6.818 0 0 1 63 449c-.32-.32-.62-.68-.87-1.06s-.47-.79-.65-1.21c-.17-.42-.3-.87-.39-1.31-.1-.45-.14-.91-.14-1.37s.04-.92.14-1.37c.09-.44.22-.88.39-1.31.18-.42.4-.83.65-1.21s.55-.74.87-1.06a6.818 6.818 0 0 1 2.27-1.51c.42-.18.86-.31 1.31-.4 2.28-.46 4.69.29 6.32 1.91.32.32.61.68.87 1.06.25.38.47.79.64 1.21a7.043 7.043 0 0 1 .54 2.68c0 .46-.05.92-.14 1.37-.09.44-.22.89-.4 1.31-.17.42-.39.83-.64 1.21-.26.38-.55.74-.87 1.06a7.061 7.061 0 0 1-4.95 2.05z"/><path class="ost0" d="M402 149.36c-1.8 0-3.59-.69-4.95-2.05l-32.37-32.37a6.995 6.995 0 0 1-.58-9.24l24.48-31.51a6.969 6.969 0 0 1 5.09-2.69 7 7 0 0 1 5.39 2.04l39.4 39.4c1.42 1.42 2.16 3.38 2.04 5.39s-1.11 3.86-2.69 5.09l-31.52 24.47a7.009 7.009 0 0 1-4.29 1.47zm-23.05-39.95l23.63 23.63 20.37-15.82-28.18-28.18-15.82 20.37z"/></g></symbol></svg>