<svg viewBox="0 0 512 512" xmlns="http://www.w3.org/2000/svg"><style>.st0{fill:#16ade1}.st1{fill:#1b3954}</style><g id="Layer_2"><path class="st0" d="M215.93 268.31c-1.86 0-3.64-.74-4.95-2.05l-23.16-23.16a7.007 7.007 0 0 1 0-9.9l5.03-5.03-2.54-11.71c-.5-2.33.21-4.75 1.89-6.43l10.86-10.86a7.007 7.007 0 0 1 9.9 0l41.94 41.94a7.001 7.001 0 0 1 0 9.9l-10.86 10.86a6.99 6.99 0 0 1-6.43 1.89l-11.71-2.54-5.03 5.03a6.929 6.929 0 0 1-4.94 2.06zm-13.26-30.16l13.26 13.26 2.78-2.78a6.99 6.99 0 0 1 6.43-1.89l11.71 2.54 3.21-3.21-32.04-32.04-3.21 3.21 2.54 11.71c.5 2.33-.21 4.75-1.89 6.43l-2.79 2.77z"/><path class="st0" d="M130.33 325.69a6.98 6.98 0 0 1-5.91-3.25c-11.9-18.77-9.12-43.82 6.63-59.56l21.75-21.21.1-.1 17.26-16.16 5.16-4.94c2.75-2.63 7.1-2.59 9.79.1l49.33 49.33a6.997 6.997 0 0 1 2.05 5.02 7 7 0 0 1-2.16 4.98l-44.16 42.3a6.994 6.994 0 0 1-9.79-.1l-21.78-21.78-23.31 23.31a7.02 7.02 0 0 1-4.96 2.06zm28.26-42.26c1.79 0 3.58.68 4.95 2.05l21.89 21.89 34.05-32.62-39.43-39.43-.24.23c-.02.02-.04.04-.06.05l-17.23 16.14-21.63 21.1c-8.9 8.9-11.93 22.09-8.42 33.82l21.18-21.18a6.958 6.958 0 0 1 4.94-2.05zm16.37-52.93zm149.15 229.62c-10.54 0-20.47-5.12-26.58-13.69l-81.4-110.67c-2.29-3.11-1.62-7.5 1.49-9.79 3.11-2.29 7.5-1.62 9.79 1.49l81.44 110.71c.02.03.05.06.07.1 3.54 4.98 9.07 7.84 15.19 7.84 4.96 0 9.62-1.94 13.14-5.45 3.52-3.51 5.45-8.19 5.45-13.16s-1.94-9.64-5.45-13.16L231.03 308.13l-14.53 14.53a7.007 7.007 0 0 1-9.9 0 7.007 7.007 0 0 1 0-9.9l19.48-19.48a7.007 7.007 0 0 1 9.9 0l111.16 111.16c6.16 6.16 9.55 14.35 9.55 23.06 0 8.71-3.39 16.9-9.55 23.06-6.15 6.16-14.33 9.56-23.03 9.56z"/><path class="st0" d="M196.96 460.12c-8.12 0-15.96-3.23-21.73-9-11.97-11.97-11.97-31.45 0-43.42l46.01-46.01a7.007 7.007 0 0 1 9.9 0 7.007 7.007 0 0 1 0 9.9l-46.01 46.01c-6.51 6.52-6.51 17.12 0 23.63 3.41 3.41 7.92 5.14 12.73 4.88 4.8-.26 9.11-2.47 12.12-6.23l43.16-53.79-20.29-27.59c-2.29-3.11-1.62-7.5 1.49-9.79a7.007 7.007 0 0 1 9.79 1.49l23.48 31.92a6.995 6.995 0 0 1-.18 8.53l-46.52 57.99a30.744 30.744 0 0 1-22.27 11.45c-.57.01-1.13.03-1.68.03zm90.42-98.54c-1.79 0-3.58-.68-4.95-2.05l-24.56-24.56a7.007 7.007 0 0 1 0-9.9l30.48-30.49-7.72-28.81c-.65-2.42.04-4.99 1.81-6.76l36.83-36.83a6.99 6.99 0 0 1 6.76-1.81l26.29 7.05c2.42.65 4.3 2.54 4.95 4.95.65 2.42-.04 4.99-1.81 6.76l-26.84 26.84 4.34 16.21 16.21 4.34 26.84-26.84a6.99 6.99 0 0 1 6.76-1.81c2.42.65 4.3 2.53 4.95 4.95l7.05 26.29c.65 2.42-.04 4.99-1.81 6.76l-36.83 36.83a6.99 6.99 0 0 1-6.76 1.81l-30.38-8.14-15.6 19.45c-2.42 3.01-6.83 3.5-9.84 1.08a6.995 6.995 0 0 1-1.08-9.84l18.46-23.01a6.988 6.988 0 0 1 7.27-2.38l30.89 8.28 31.11-31.11-2.86-10.68-21.12 21.12a6.985 6.985 0 0 1-6.76 1.81l-24.02-6.43a7.012 7.012 0 0 1-4.95-4.95l-6.43-24.02c-.65-2.42.04-4.99 1.81-6.76l21.12-21.12-10.68-2.86-31.11 31.11 7.72 28.81c.65 2.42-.04 4.99-1.81 6.76l-28.39 28.4 19.61 19.61a7.007 7.007 0 0 1 0 9.9 7.047 7.047 0 0 1-4.95 2.04z"/><path class="st1" d="M491.5 249.42h-76.43a7 7 0 0 1-4.97-2.07L256 92.2 101.9 247.35a7.007 7.007 0 0 1-4.97 2.07H20.5c-2.83 0-5.38-1.7-6.46-4.31a6.974 6.974 0 0 1 1.5-7.62L207.9 43.78a7.007 7.007 0 0 1 4.97-2.07h86.26a7 7 0 0 1 4.97 2.07l26.47 26.66a7.007 7.007 0 0 1-.03 9.9c-2.74 2.72-7.18 2.71-9.9-.03l-24.42-24.59h-80.44L37.32 235.42h56.7L251.03 77.33c1.31-1.32 3.1-2.07 4.97-2.07s3.65.74 4.97 2.07l157.01 158.09h56.7L359.69 119.63c-2.72-2.74-2.71-7.18.03-9.9s7.18-2.71 9.9.03l126.84 127.72a7.014 7.014 0 0 1 1.5 7.62 6.98 6.98 0 0 1-6.46 4.32z"/><path class="st1" d="M347.43 104.47a6.99 6.99 0 0 1-4.93-2.03c-2.74-2.72-2.76-7.16-.04-9.9l.14-.14c2.72-2.74 7.16-2.76 9.9-.04 2.74 2.72 2.76 7.16.04 9.9l-.14.14a6.98 6.98 0 0 1-4.97 2.07zM94.68 376.17c-1.84 0-3.64-.75-4.95-2.05-.32-.32-.61-.68-.87-1.06-.25-.38-.47-.79-.64-1.21a7.043 7.043 0 0 1-.54-2.68c0-.46.05-.92.14-1.37.09-.44.22-.89.4-1.31.17-.42.39-.83.64-1.21.26-.38.55-.74.87-1.06.33-.32.68-.61 1.07-.87.38-.25.78-.47 1.21-.64.42-.18.86-.31 1.31-.4.9-.18 1.83-.19 2.73 0 .45.09.89.22 1.31.4.42.17.83.39 1.21.64.38.26.74.55 1.06.87.33.32.62.68.87 1.06.26.38.47.79.65 1.21.17.42.31.87.4 1.31.09.45.13.91.13 1.37 0 .45-.04.92-.13 1.37-.09.44-.23.88-.4 1.31-.18.42-.39.83-.65 1.21-.25.38-.54.74-.87 1.06-.32.32-.68.61-1.06.87-.38.25-.79.47-1.21.64-.42.18-.86.31-1.31.4-.45.09-.91.14-1.37.14zM417.32 498.5H94.68c-3.87 0-7-3.13-7-7v-91.52c0-3.87 3.13-7 7-7s7 3.13 7 7v84.52h308.63V302.62c0-3.87 3.13-7 7-7s7 3.13 7 7V491.5c.01 3.87-3.13 7-6.99 7zM94.68 345.36c-3.87 0-7-3.13-7-7v-95.94c0-3.63 2.76-6.62 6.3-6.97L251.03 77.33c1.31-1.32 3.1-2.07 4.97-2.07s3.65.74 4.97 2.07l157.05 158.12c3.54.35 6.3 3.33 6.3 6.97 0 3.87-3.13 7-7 7h-2.25a7 7 0 0 1-4.97-2.07L256 92.2 101.9 247.35c-.07.07-.14.14-.22.21v90.8c0 3.87-3.13 7-7 7z"/></g></svg>