<svg viewBox="0 0 512 512" xmlns="http://www.w3.org/2000/svg"><style>.st0{fill:#16ade1}.st1{fill:#1b3954}</style><g id="Layer_2"><path class="st1" d="M167.68 498.5a7.043 7.043 0 0 1-2.68-.54c-.42-.17-.83-.39-1.2-.64-.39-.26-.75-.55-1.07-.87a7.061 7.061 0 0 1-2.05-4.95 7.043 7.043 0 0 1 .54-2.68c.17-.42.39-.83.64-1.21.26-.38.55-.74.87-1.06a6.818 6.818 0 0 1 2.27-1.51c.42-.18.87-.31 1.31-.4.9-.18 1.84-.18 2.74 0 .45.09.89.22 1.31.4a6.818 6.818 0 0 1 2.27 1.51 6.818 6.818 0 0 1 1.51 2.27 7.043 7.043 0 0 1 .54 2.68c0 1.84-.75 3.65-2.05 4.95-.32.32-.68.61-1.06.87-.38.25-.79.47-1.21.64-.42.18-.86.31-1.31.4-.45.09-.91.14-1.37.14z"/><path class="st0" d="M455.31 194.77h-22.17c-3.87 0-7-3.13-7-7s3.13-7 7-7h22.17c3.87 0 7 3.13 7 7s-3.13 7-7 7zm0 51.25h-22.17c-3.87 0-7-3.13-7-7s3.13-7 7-7h22.17c3.87 0 7 3.13 7 7s-3.13 7-7 7zm0 51.25h-22.17c-3.87 0-7-3.13-7-7s3.13-7 7-7h22.17c3.87 0 7 3.13 7 7s-3.13 7-7 7zm0 51.24h-22.17c-3.87 0-7-3.13-7-7s3.13-7 7-7h22.17c3.87 0 7 3.13 7 7s-3.13 7-7 7zm0 51.25h-22.17c-3.87 0-7-3.13-7-7s3.13-7 7-7h22.17c3.87 0 7 3.13 7 7s-3.13 7-7 7zm0 51.25h-22.17c-3.87 0-7-3.13-7-7s3.13-7 7-7h22.17c3.87 0 7 3.13 7 7s-3.13 7-7 7zm-76.23-28.74c-3.87 0-7-3.13-7-7V305L268.82 408.27h74.65c3.87 0 7 3.13 7 7s-3.13 7-7 7h-91.55a7.02 7.02 0 0 1-6.47-4.32 7.01 7.01 0 0 1 1.52-7.63l127.16-127.16c2-2 5.01-2.6 7.63-1.52a6.994 6.994 0 0 1 4.32 6.47v127.16c0 3.86-3.13 7-7 7z"/><path class="st1" d="M455.31 498.5H190.53c-3.87 0-7-3.13-7-7s3.13-7 7-7h257.78V120.96L84.78 484.5h58.9c3.87 0 7 3.13 7 7s-3.13 7-7 7h-75.8a7.02 7.02 0 0 1-6.47-4.32 7.01 7.01 0 0 1 1.52-7.63L450.36 99.12c2-2 5.01-2.6 7.63-1.52a6.994 6.994 0 0 1 4.32 6.47V491.5c0 3.87-3.13 7-7 7zm-73.28-388.88c-1.49 0-2.99-.47-4.25-1.44a7.014 7.014 0 0 1-2.08-8.56 6.985 6.985 0 0 1 4.87-4.14c2.36-.55 4.84.15 6.55 1.87l.09.09a7.007 7.007 0 0 1 0 9.9l-.23.23a6.98 6.98 0 0 1-4.95 2.05z"/><path class="st1" d="M101.15 381.36c-7.44 0-14.87-2.83-20.53-8.49L58.8 351.05c-11.32-11.32-11.32-29.74 0-41.06l19.44-19.44a7.007 7.007 0 0 1 9.9 0 7.007 7.007 0 0 1 0 9.9L68.7 319.89c-5.86 5.86-5.86 15.4 0 21.26l21.82 21.82c5.86 5.86 15.4 5.86 21.26 0l248.63-248.63a26.185 26.185 0 0 1-9.97-6.23 26.064 26.064 0 0 1-7.6-19.28c-7.17.25-14.19-2.52-19.28-7.6a26.09 26.09 0 0 1-6.24-9.97L107.8 280.79a7.007 7.007 0 0 1-9.9 0 7.007 7.007 0 0 1 0-9.9L320.75 48.04a6.989 6.989 0 0 1 9.27-.55 6.984 6.984 0 0 1 1.65 9.14c-2.88 4.73-2.14 10.78 1.79 14.71 2.4 2.4 5.59 3.66 8.98 3.51 3.84-.16 7.6 1.31 10.33 4.04 2.74 2.73 4.22 6.5 4.06 10.35-.14 3.4 1.1 6.58 3.51 8.99 3.92 3.92 9.96 4.66 14.69 1.8a7.005 7.005 0 0 1 9.13 1.67 7.011 7.011 0 0 1-.56 9.27l-261.92 261.9c-5.66 5.66-13.09 8.49-20.53 8.49z"/><path class="st1" d="M109.68 328.99c-1.79 0-3.58-.68-4.95-2.05a7.007 7.007 0 0 1 0-9.9l199.2-199.2a7.007 7.007 0 0 1 9.9 0 7.007 7.007 0 0 1 0 9.9l-199.2 199.2a6.98 6.98 0 0 1-4.95 2.05zm215.86-215.86c-.45 0-.91-.05-1.36-.14-.45-.09-.89-.22-1.31-.4-.43-.17-.83-.39-1.21-.64-.39-.26-.74-.55-1.07-.87a7.079 7.079 0 0 1-2.05-4.95c0-.46.05-.92.14-1.37.09-.45.23-.89.4-1.31.17-.42.39-.83.64-1.21.26-.38.55-.74.87-1.06.33-.32.68-.62 1.07-.87.38-.25.78-.47 1.21-.64.42-.18.86-.31 1.31-.4a7.03 7.03 0 0 1 6.31 1.91c.33.32.62.68.87 1.06.26.38.47.79.65 1.21.17.42.31.86.4 1.31a7.036 7.036 0 0 1-1.92 6.32c-1.3 1.3-3.1 2.05-4.95 2.05z"/><path class="st0" d="M101.15 381.97c-7.06 0-14.12-2.69-19.5-8.06l-23.89-23.89c-10.75-10.75-10.75-28.24 0-38.99l20.48-20.48a7.007 7.007 0 0 1 9.9 0l52.98 52.98a7.007 7.007 0 0 1 0 9.9l-20.48 20.48c-5.37 5.37-12.43 8.06-19.49 8.06zM91.55 364c5.29 5.29 13.9 5.29 19.19 0l15.53-15.53-43.08-43.08-15.53 15.53c-5.29 5.29-5.29 13.9 0 19.19L91.55 364zm277.26-248.26c-6.72 0-13.35-2.61-18.37-7.63a26.064 26.064 0 0 1-7.6-19.28c-7.18.24-14.19-2.52-19.28-7.6-8.51-8.51-10.09-21.62-3.85-31.89.36-.59.73-1.13 1.11-1.67 1.31-1.83 3.06-3.3 5.08-4.3.28-.14.57-.27.86-.38.79-.33 1.61-.59 2.47-.76l79.58-28.32c2.54-.91 5.39-.27 7.3 1.65s2.55 4.75 1.65 7.3l-28.34 79.61c-.17.82-.42 1.62-.73 2.38-.13.34-.27.67-.44.98a13.77 13.77 0 0 1-4.17 4.97c-.58.41-1.13.78-1.74 1.16a26.178 26.178 0 0 1-13.53 3.78zm-25.8-40.91c3.63 0 7.17 1.46 9.76 4.05 2.74 2.73 4.22 6.5 4.06 10.35-.14 3.4 1.1 6.58 3.51 8.99 3.92 3.92 9.96 4.66 14.69 1.8.2-.13.45-.29.71-.46.07-.43.17-.86.32-1.27l23.58-66.24-66.25 23.58c-.41.15-.83.25-1.26.32-.16.23-.32.47-.47.72-2.86 4.7-2.13 10.75 1.8 14.68 2.4 2.4 5.6 3.65 8.98 3.51.19-.03.38-.03.57-.03zm-11.44-18.69z"/><path class="st0" d="M396.63 68.35c-1.79 0-3.58-.68-4.95-2.05l-26.31-26.31a7.007 7.007 0 0 1 0-9.9 7.007 7.007 0 0 1 9.9 0l26.31 26.31a7.007 7.007 0 0 1 0 9.9 6.973 6.973 0 0 1-4.95 2.05z"/></g></svg>