<svg viewBox="0 0 512 512" xmlns="http://www.w3.org/2000/svg"><style>.st0{fill:#16ade1}.st1{fill:#1b3954}</style><g id="Layer_2"><path class="st0" d="M490.81 493.48h-37.48c-3.13 0-5.88-2.08-6.73-5.08l-38.72-136.07h-17.81c-3.87 0-7-3.13-7-7s3.13-7 7-7h23.09c3.13 0 5.88 2.08 6.73 5.08l38.72 136.07h22.92L354.35 32.52h-3.42l-9.75 34.27 27.88 97.98c.6 2.11.18 4.38-1.15 6.13a7 7 0 0 1-5.59 2.78h-51.57l-6.68 23.48H373c3.87 0 7 3.13 7 7s-3.13 7-7 7h-78.19c-2.2 0-4.26-1.03-5.59-2.78a7.004 7.004 0 0 1-1.15-6.13l10.67-37.48c.86-3.01 3.6-5.08 6.73-5.08h47.58l-25.89-90.98a6.926 6.926 0 0 1 0-3.83l11.74-41.27c.86-3.01 3.6-5.08 6.73-5.08h13.99c3.13 0 5.88 2.08 6.73 5.08l131.17 460.95c.6 2.11.18 4.38-1.15 6.13-1.29 1.76-3.36 2.79-5.56 2.79z"/><path class="st0" d="M367.54 352.32c-.46 0-.92-.04-1.37-.13a7.35 7.35 0 0 1-1.31-.4c-.42-.18-.83-.4-1.21-.65s-.74-.54-1.06-.87a6.818 6.818 0 0 1-1.51-2.27c-.18-.42-.31-.86-.4-1.31-.09-.45-.14-.91-.14-1.37 0-.45.05-.91.14-1.37.09-.44.22-.88.4-1.3.17-.43.39-.83.64-1.21.25-.39.55-.75.87-1.07.32-.32.68-.61 1.06-.87.38-.25.79-.47 1.21-.64.42-.18.86-.31 1.31-.4.9-.18 1.83-.18 2.74 0a7.043 7.043 0 0 1 2.51 1.04c.39.26.75.55 1.07.87.32.32.61.68.87 1.07.25.38.47.78.64 1.21.18.42.31.86.4 1.3.09.46.14.92.14 1.37 0 .46-.05.92-.14 1.37-.09.45-.22.89-.4 1.31-.17.42-.39.83-.64 1.21-.26.38-.55.74-.87 1.06-.32.33-.68.62-1.07.87-.38.25-.78.47-1.2.65-.43.17-.87.31-1.31.4-.45.09-.92.13-1.37.13z"/><path class="st0" d="M335 493.48h-37.48c-3.13 0-5.88-2.08-6.73-5.08l-41.53-145.92a6.926 6.926 0 0 1 0-3.83L268 272.79c.86-3.01 3.6-5.08 6.73-5.08 3.13 0 5.88 2.08 6.73 5.08l7.98 28.06h103.77l-19.76-69.43a7 7 0 0 1 4.82-8.65 7 7 0 0 1 8.65 4.82l22.29 78.34c.6 2.11.18 4.38-1.15 6.13a7 7 0 0 1-5.59 2.78h-118.3c-3.13 0-5.88-2.08-6.73-5.08l-2.7-9.48-11.46 40.28 39.54 138.92h22.92L288.1 347.24c-.6-2.11-.18-4.38 1.15-6.13a7 7 0 0 1 5.59-2.78h52.39c3.87 0 7 3.13 7 7s-3.13 7-7 7h-43.12l37.63 132.24c.6 2.11.18 4.38-1.15 6.13a7 7 0 0 1-5.59 2.78zM237.26 281.7c-3.13 0-5.88-2.08-6.73-5.08l-20.07-70.53c-.6-2.11-.18-4.38 1.15-6.13a7 7 0 0 1 5.59-2.78h37.48c3.13 0 5.88 2.08 6.73 5.08l1.33 4.68c.36 1.25.36 2.58 0 3.83L244 276.61a7.014 7.014 0 0 1-6.74 5.09zm-10.8-70.53l10.8 37.96 10.8-37.96h-21.6zM244 173.69h-37.48c-3.13 0-5.88-2.08-6.73-5.08l-28.43-99.9a6.926 6.926 0 0 1 0-3.83l1.08-3.79c.85-3.01 3.6-5.09 6.73-5.09h35.33c3.13 0 5.88 2.08 6.73 5.08l29.5 103.69c.6 2.11.18 4.38-1.15 6.13a6.962 6.962 0 0 1-5.58 2.79zm-32.19-14h22.92L209.21 70h-22.92l25.52 89.69z"/><path class="st1" d="M58.67 493.48H21.19c-2.2 0-4.26-1.03-5.59-2.78a7.004 7.004 0 0 1-1.15-6.13l100.19-352.09c1.06-3.72 4.93-5.87 8.65-4.82a7 7 0 0 1 4.82 8.65L30.46 479.48h22.92l29.66-104.24c1.06-3.72 4.93-5.87 8.65-4.82a7 7 0 0 1 4.82 8.65L65.4 488.39a7.011 7.011 0 0 1-6.73 5.09zm68.27-371.63c-.45 0-.91-.05-1.37-.14-.44-.09-.88-.23-1.31-.4-.42-.18-.82-.39-1.2-.64-.39-.26-.75-.55-1.07-.87-.32-.33-.61-.69-.87-1.07-.25-.38-.47-.78-.64-1.21-.18-.42-.31-.86-.4-1.31-.09-.45-.14-.91-.14-1.36 0-.46.05-.92.14-1.37.09-.45.22-.89.4-1.31.17-.43.39-.83.64-1.21.26-.38.55-.74.87-1.06.32-.33.68-.62 1.07-.88.38-.25.78-.46 1.2-.64.43-.17.87-.31 1.31-.4.91-.18 1.84-.18 2.74 0 .45.09.89.23 1.31.4.42.18.83.39 1.21.64.38.26.74.55 1.06.88.33.32.62.68.87 1.06.26.38.47.78.65 1.21.17.42.31.86.4 1.31.09.45.13.91.13 1.37 0 .45-.04.91-.13 1.36-.09.45-.23.89-.4 1.31-.18.43-.39.83-.65 1.21-.25.38-.54.74-.87 1.07-.32.32-.68.61-1.06.87-.38.25-.79.46-1.21.64-.42.17-.86.31-1.31.4-.45.09-.91.14-1.37.14z"/><path class="st1" d="M214.47 493.48H177c-2.2 0-4.26-1.03-5.59-2.78a7.004 7.004 0 0 1-1.15-6.13l37.63-132.24H98.83c-3.87 0-7-3.13-7-7s3.13-7 7-7h118.33c2.2 0 4.26 1.03 5.59 2.78a7.004 7.004 0 0 1 1.15 6.13l-37.63 132.24h22.92L336.38 32.52H157.65l-16.88 59.32a7 7 0 0 1-8.65 4.82 7 7 0 0 1-4.82-8.65l18.33-64.41c.86-3.01 3.6-5.08 6.73-5.08h193.29c2.2 0 4.26 1.03 5.59 2.78a7.004 7.004 0 0 1 1.15 6.13L221.21 488.39a7.014 7.014 0 0 1-6.74 5.09z"/><path class="st1" d="M227.83 314.84H109.5c-2.2 0-4.26-1.03-5.59-2.78a7.004 7.004 0 0 1-1.15-6.13l29.5-103.68c.86-3.01 3.6-5.08 6.73-5.08h118.33c2.2 0 4.26 1.03 5.59 2.78a7.004 7.004 0 0 1 1.15 6.13l-1.33 4.68-28.17 98.99a6.982 6.982 0 0 1-6.73 5.09zm-109.06-14h103.77l25.52-89.68H144.29l-25.52 89.68zM268 173.69H149.67c-2.2 0-4.26-1.03-5.59-2.78a7.004 7.004 0 0 1-1.15-6.13l29.5-103.68c.85-3.01 3.6-5.09 6.73-5.09H297.5c2.2 0 4.26 1.03 5.59 2.78a7.004 7.004 0 0 1 1.15 6.13l-29.5 103.69a7.005 7.005 0 0 1-6.74 5.08zm-109.06-14h103.77L288.23 70H184.46l-25.52 89.69z"/></g></svg>