<svg viewBox="0 0 512 512" xmlns="http://www.w3.org/2000/svg"><style>.st0{fill:#16ade1}.st1{fill:#1b3954}</style><g id="Layer_2"><path class="st1" d="M214.46 158.9c-1.74 0-3.49-.65-4.84-1.95l-38.19-36.59H48.17v27.38c0 3.87-3.13 7-7 7s-7-3.13-7-7v-34.38c0-3.87 3.13-7 7-7h133.07c1.8 0 3.54.7 4.84 1.95l40.22 38.54c2.79 2.67 2.89 7.11.21 9.9a6.975 6.975 0 0 1-5.05 2.15zm0 126.78H41.17c-3.87 0-7-3.13-7-7v-88.69c0-3.87 3.13-7 7-7s7 3.13 7 7v81.69h166.29c3.87 0 7 3.13 7 7s-3.13 7-7 7zM41.17 175.87c-1.85 0-3.65-.75-4.95-2.05a7.019 7.019 0 0 1-2.05-4.95c0-.46.04-.92.13-1.37.09-.45.23-.89.4-1.31.18-.42.39-.83.65-1.21.25-.38.54-.74.87-1.06 1.3-1.3 3.1-2.05 4.95-2.05 1.84 0 3.64.75 4.95 2.05.32.32.61.68.87 1.06.25.38.46.79.64 1.21.17.42.31.86.4 1.31.09.45.14.91.14 1.37 0 1.84-.75 3.65-2.05 4.95a7.079 7.079 0 0 1-4.95 2.05z"/><path class="st0" d="M190.13 250.74H85.52c-3.87 0-7-3.13-7-7v-86.02c0-3.87 3.13-7 7-7h70.9c1.8 0 3.54.7 4.84 1.95l33.71 32.3a6.999 6.999 0 0 1 2.16 5.05v53.72c0 3.86-3.13 7-7 7zm-97.61-14h90.61v-43.73l-29.53-28.29H92.52v72.02z"/><path class="st1" d="M258.09 450.7c-.46 0-.92-.05-1.37-.14a6.82 6.82 0 0 1-1.31-.4 6.818 6.818 0 0 1-2.27-1.51 6.818 6.818 0 0 1-1.51-2.27 6.82 6.82 0 0 1-.4-1.31c-.09-.45-.14-.91-.14-1.37s.05-.92.14-1.37c.09-.44.22-.89.4-1.31a6.818 6.818 0 0 1 1.51-2.27c.32-.32.68-.61 1.06-.87.38-.25.79-.47 1.21-.64.42-.18.87-.31 1.31-.4.9-.19 1.84-.19 2.74 0 .44.09.88.22 1.31.4.42.17.83.39 1.21.64.38.26.74.55 1.06.87a6.818 6.818 0 0 1 1.51 2.27 7.043 7.043 0 0 1 .54 2.68c0 .46-.05.92-.14 1.37-.09.44-.22.89-.4 1.31a6.818 6.818 0 0 1-1.51 2.27 6.818 6.818 0 0 1-2.27 1.51 7.043 7.043 0 0 1-2.68.54z"/><path class="st1" d="M330.56 450.7H158.27c-3.87 0-7-3.13-7-7s3.13-7 7-7h172.29c16.69 0 30.28-13.58 30.28-30.28v-4.18c0-16.69-13.58-30.28-30.28-30.28H57.37c-16.69 0-30.28 13.58-30.28 30.28v4.18c0 16.69 13.58 30.28 30.28 30.28h57.12c3.87 0 7 3.13 7 7s-3.13 7-7 7H57.37c-24.41 0-44.28-19.86-44.28-44.28v-4.18c0-24.41 19.86-44.28 44.28-44.28h273.19c24.41 0 44.28 19.86 44.28 44.28v4.18c0 24.42-19.87 44.28-44.28 44.28z"/><path class="st0" d="M64.23 426.61c-12.28 0-22.28-9.99-22.28-22.28s9.99-22.28 22.28-22.28 22.28 9.99 22.28 22.28-10 22.28-22.28 22.28zm0-30.56c-4.56 0-8.28 3.71-8.28 8.28 0 4.57 3.71 8.28 8.28 8.28 4.57 0 8.28-3.71 8.28-8.28-.01-4.56-3.72-8.28-8.28-8.28zm64.86 30.56c-12.28 0-22.28-9.99-22.28-22.28s9.99-22.28 22.28-22.28 22.28 9.99 22.28 22.28-9.99 22.28-22.28 22.28zm0-30.56c-4.56 0-8.28 3.71-8.28 8.28 0 4.57 3.71 8.28 8.28 8.28 4.57 0 8.28-3.71 8.28-8.28 0-4.56-3.71-8.28-8.28-8.28zm64.87 30.56c-12.28 0-22.28-9.99-22.28-22.28s9.99-22.28 22.28-22.28 22.28 9.99 22.28 22.28-9.99 22.28-22.28 22.28zm0-30.56c-4.56 0-8.28 3.71-8.28 8.28 0 4.57 3.71 8.28 8.28 8.28 4.57 0 8.28-3.71 8.28-8.28 0-4.56-3.71-8.28-8.28-8.28zm64.87 30.56c-12.28 0-22.28-9.99-22.28-22.28s9.99-22.28 22.28-22.28 22.28 9.99 22.28 22.28-9.99 22.28-22.28 22.28zm0-30.56c-4.56 0-8.28 3.71-8.28 8.28 0 4.57 3.71 8.28 8.28 8.28 4.57 0 8.28-3.71 8.28-8.28 0-4.56-3.71-8.28-8.28-8.28zm64.87 30.56c-12.28 0-22.28-9.99-22.28-22.28s9.99-22.28 22.28-22.28 22.28 9.99 22.28 22.28-10 22.28-22.28 22.28zm0-30.56c-4.56 0-8.28 3.71-8.28 8.28 0 4.57 3.71 8.28 8.28 8.28 4.57 0 8.28-3.71 8.28-8.28 0-4.56-3.71-8.28-8.28-8.28z"/><path class="st1" d="M332.28 337.33H41.17c-3.87 0-7-3.13-7-7v-51.65c0-3.87 3.13-7 7-7h262.88c1.84 0 3.6.72 4.91 2.01l28.23 27.73a7.017 7.017 0 0 1 2.1 4.99v23.92a7.01 7.01 0 0 1-7.01 7zm-284.11-14h277.11v-13.98l-24.09-23.67H48.17v37.65z"/><path class="st1" d="M389.27 323.72h-29.11c-3.87 0-7-3.13-7-7s3.13-7 7-7h22.11v-17.23H328.1l9.09 8.93a7.017 7.017 0 0 1 2.1 4.99v10.31c0 3.87-3.13 7-7 7s-7-3.13-7-7v-7.37l-19.2-18.86a6.982 6.982 0 0 1-1.57-7.64 7.01 7.01 0 0 1 6.48-4.35h78.29c3.87 0 7 3.13 7 7v31.23a7.023 7.023 0 0 1-7.02 6.99z"/><path class="st0" d="M491.91 450.7H389.27c-3.87 0-7-3.13-7-7V216.04c0-3.87 3.13-7 7-7h52.08c3.87 0 7 3.13 7 7v109.38c0 42.55 17.64 83.81 48.39 113.22a7.01 7.01 0 0 1 1.66 7.67 6.989 6.989 0 0 1-6.49 4.39zm-95.64-14h79.37c-26.41-30.77-41.29-70.48-41.29-111.28V223.04h-38.08V436.7z"/><path class="st1" d="M234.49 285.68h-20.03c-3.87 0-7-3.13-7-7s3.13-7 7-7h13.03v-97.6l-17.87-17.12c-2.79-2.67-2.89-7.11-.21-9.9a7 7 0 0 1 9.9-.21l20.03 19.19a6.999 6.999 0 0 1 2.16 5.05v107.59a7.01 7.01 0 0 1-7.01 7z"/><path class="st1" d="M260.42 285.68h-25.93c-3.87 0-7-3.13-7-7v-104.6l-17.87-17.12a6.999 6.999 0 0 1-2.16-5.05v-26.07c0-3.87 3.13-7 7-7h45.96c3.87 0 7 3.13 7 7v152.85c0 3.86-3.13 6.99-7 6.99zm-18.93-14h11.93V132.83h-31.96v16.08l17.87 17.12a6.999 6.999 0 0 1 2.16 5.05v100.6z"/><path class="st1" d="M251.23 132.83h-27.57c-3.87 0-7-3.13-7-7V68.3c0-3.87 3.13-7 7-7h27.57c3.87 0 7 3.13 7 7v57.53c0 3.87-3.14 7-7 7zm-20.58-14h13.57V75.3h-13.57v43.53zm-95 331.87c-1.84 0-3.64-.75-4.95-2.05-.32-.32-.61-.68-.87-1.06-.25-.38-.46-.79-.64-1.21-.17-.43-.31-.87-.4-1.31-.09-.45-.14-.91-.14-1.37 0-1.84.75-3.65 2.05-4.95a7.079 7.079 0 0 1 4.95-2.05c1.85 0 3.65.75 4.95 2.05a7.019 7.019 0 0 1 2.05 4.95c0 .46-.04.92-.13 1.37-.09.44-.23.88-.4 1.31-.18.42-.39.83-.65 1.21-.25.38-.54.74-.87 1.06-1.3 1.3-3.1 2.05-4.95 2.05z"/></g></svg>