<svg viewBox="0 0 512 512" xmlns="http://www.w3.org/2000/svg"><style>.st1{fill:#1b3954}</style><g id="Layer_2"><path d="M157.31 226.23c-1.79 0-3.58-.68-4.95-2.05l-26.78-26.78H73.01c-1.86 0-3.64-.74-4.95-2.05l-11.01-11.01a7.007 7.007 0 0 1 0-9.9 7.007 7.007 0 0 1 9.9 0l8.96 8.96h52.57c1.86 0 3.64.74 4.95 2.05l23.88 23.88 34.42-34.42c3.9-3.9 9.09-6.05 14.61-6.05h20.01l2.2-2.21c2.73-2.74 7.16-2.74 9.9-.01s2.74 7.16.01 9.9l-4.25 4.26a6.992 6.992 0 0 1-4.96 2.06h-22.91c-1.78 0-3.46.69-4.71 1.95l-39.37 39.37a7.015 7.015 0 0 1-4.95 2.05zM29.47 153.86c-1.79 0-3.58-.68-4.95-2.05l-5.08-5.08a7.001 7.001 0 0 1-2.05-4.95l-.01-68.77c0-1.87.75-3.66 2.07-4.97l1.09-1.08a7.01 7.01 0 0 1 9.88.02l63.61 63.61 36.55-36.56-63.61-63.61a7.007 7.007 0 0 1 0-9.9l1.09-1.09a7.001 7.001 0 0 1 4.95-2.05l68.76.01c1.86 0 3.64.74 4.95 2.05l48.61 48.62a7.001 7.001 0 0 1 2.05 4.95v52.57l13.68 13.67a7.007 7.007 0 0 1 0 9.9 7.007 7.007 0 0 1-9.9 0l-15.73-15.73a7.001 7.001 0 0 1-2.05-4.95V75.91L138.87 31.4l-51.14-.01 57.7 57.7a7.007 7.007 0 0 1 0 9.9l-46.45 46.46a7.001 7.001 0 0 1-9.9 0l-57.7-57.7.01 51.14 3.03 3.03a7.007 7.007 0 0 1 0 9.9 6.987 6.987 0 0 1-4.95 2.04zm15.71 15.71c-1.84 0-3.64-.75-4.95-2.05-1.3-1.3-2.05-3.1-2.05-4.95a7.043 7.043 0 0 1 .54-2.68c.17-.42.39-.83.64-1.21.26-.38.55-.74.87-1.06 1.31-1.3 3.11-2.05 4.95-2.05s3.65.75 4.95 2.05c.33.32.62.68.87 1.06s.47.79.65 1.21c.17.43.3.87.39 1.31.09.45.14.91.14 1.37 0 1.84-.75 3.65-2.05 4.95-.32.32-.68.61-1.06.87-.38.25-.79.47-1.21.64-.42.18-.86.31-1.31.4s-.91.14-1.37.14zm393.81 325.05l-68.76-.01c-1.86 0-3.64-.74-4.95-2.05l-48.62-48.62a7.001 7.001 0 0 1-2.05-4.95v-52.57l-6.14-6.14a7.007 7.007 0 0 1 0-9.9 7.007 7.007 0 0 1 9.9 0l8.19 8.19a7.001 7.001 0 0 1 2.05 4.95v52.57l44.52 44.51 51.13.01-57.7-57.7a7.001 7.001 0 0 1 0-9.9l46.46-46.45c2.74-2.73 7.17-2.73 9.9 0l57.69 57.7-.01-51.14-44.51-44.51h-52.57c-1.86 0-3.64-.74-4.95-2.05l-27.81-27.81-45.61 45.6c-4.06 4.06-8.41 7.83-12.94 11.21a7.012 7.012 0 0 1-9.8-1.42 7.012 7.012 0 0 1 1.42-9.8c3.98-2.97 7.82-6.3 11.41-9.89l50.38-50.38c.05-.05.1-.1.15-.14l.17-.16c2.75-2.6 7.08-2.54 9.75.14l30.71 30.71h52.57c1.86 0 3.64.74 4.95 2.05l48.61 48.61a7.001 7.001 0 0 1 2.05 4.95l.01 68.76c0 1.86-.74 3.64-2.05 4.95l-1.09 1.09a7.001 7.001 0 0 1-9.9 0l-63.61-63.61-36.56 36.55L445 481.59c1.32 1.32 2.05 3.11 2.05 4.97s-.75 3.65-2.08 4.96l-1.09 1.08c-1.27 1.29-3.04 2.02-4.89 2.02z" fill="#16ade1"/><path class="st1" d="M220.73 379.33c-3.87 0-7-3.13-7-7s3.13-7 7-7c22.59 0 45-7.46 63.11-20.99 3.99-2.98 7.83-6.3 11.42-9.89l50.38-50.38c.05-.05.1-.1.15-.14l.1-.09 6.17-6.17c5.5-5.5 8.53-12.81 8.53-20.59 0-7.78-3.03-15.09-8.53-20.59l-18.31-18.31a7.007 7.007 0 0 1 0-9.9 7.007 7.007 0 0 1 9.9 0l18.31 18.31c8.14 8.14 12.63 18.97 12.63 30.49s-4.49 22.35-12.63 30.49l-6.24 6.24c-.05.05-.1.09-.15.14l-.1.09-50.31 50.31c-4.06 4.06-8.41 7.83-12.94 11.21-20.5 15.33-45.89 23.77-71.49 23.77zm100.79-176.29c-1.84 0-3.64-.75-4.95-2.05-.32-.32-.61-.68-.87-1.07a7.043 7.043 0 0 1-1.18-3.88c0-1.84.75-3.65 2.05-4.95 1.63-1.63 4.05-2.37 6.32-1.91.45.09.89.22 1.31.4a6.818 6.818 0 0 1 2.27 1.51 7.043 7.043 0 0 1 1.92 6.32c-.09.44-.23.88-.4 1.31-.18.42-.39.82-.65 1.2-.25.39-.54.75-.87 1.07-.32.32-.68.61-1.06.87-.38.25-.79.47-1.21.64-.42.18-.86.31-1.31.4-.45.09-.91.14-1.37.14z"/><path class="st1" d="M196 404.05c-1.79 0-3.58-.68-4.95-2.05l-78.14-78.14a7.007 7.007 0 0 1 0-9.9l27-27v-51.67c0-5.44 2.21-10.76 6.06-14.61l45.77-45.77c3.9-3.9 9.09-6.05 14.61-6.05h20.01l8.45-8.46c.52-.51 1.23-1.19 2-1.86 17.02-15.02 42.92-14.21 58.98 1.86l15.2 15.2a7.007 7.007 0 0 1 0 9.9 7.007 7.007 0 0 1-9.9 0l-15.2-15.2c-10.86-10.86-28.36-11.4-39.85-1.23-.03.03-.06.05-.09.08-.36.3-.77.69-1.29 1.2l-10.44 10.45a6.992 6.992 0 0 1-4.96 2.06h-22.91c-1.78 0-3.46.69-4.71 1.95l-45.77 45.77a6.68 6.68 0 0 0-1.96 4.71v54.57c0 1.86-.74 3.64-2.05 4.95l-24.1 24.1 73.19 73.19a7.007 7.007 0 0 1 0 9.9 6.973 6.973 0 0 1-4.95 2.05z"/><path class="st1" d="M180 450.8c-1.86 0-3.64-.74-4.95-2.05L63.92 337.62a7.007 7.007 0 0 1 0-9.9l31.38-31.38a7.007 7.007 0 0 1 9.9 0l111.13 111.13a7.007 7.007 0 0 1 0 9.9l-31.38 31.38a7.001 7.001 0 0 1-4.95 2.05zM78.77 332.67L180 433.9l21.48-21.48-101.24-101.23-21.47 21.48z"/></g></svg>