<svg viewBox="0 0 512 512" xmlns="http://www.w3.org/2000/svg"><style>.st0{fill:#16ade1}.st1{fill:#1b3954}</style><g id="Layer_2"><path class="st1" d="M176.4 432.88c-1.85 0-3.65-.75-4.96-2.05a7.061 7.061 0 0 1-2.05-4.95 7.043 7.043 0 0 1 .54-2.68c.18-.42.39-.83.64-1.21.26-.38.55-.74.87-1.06a7.085 7.085 0 0 1 4.96-2.05c1.83 0 3.64.75 4.94 2.05.33.32.62.68.87 1.06.26.38.47.79.65 1.21.17.43.31.87.4 1.31.09.46.14.92.14 1.37 0 1.84-.75 3.65-2.06 4.95a7.055 7.055 0 0 1-4.94 2.05z"/><path class="st0" d="M55.78 463.22c-1.79 0-3.58-.68-4.95-2.05a7.007 7.007 0 0 1 0-9.9l90.23-90.23a7.007 7.007 0 0 1 9.9 0 7.007 7.007 0 0 1 0 9.9l-90.23 90.23a6.973 6.973 0 0 1-4.95 2.05zm115.25-115.25a7.043 7.043 0 0 1-2.68-.54c-.42-.17-.83-.39-1.2-.64-.39-.26-.75-.55-1.07-.87a7.079 7.079 0 0 1-2.05-4.95c0-.46.05-.92.14-1.37s.22-.89.4-1.31c.17-.42.39-.83.64-1.21.26-.38.55-.74.87-1.06.32-.33.68-.62 1.07-.87.37-.25.78-.47 1.2-.65.43-.17.87-.31 1.31-.39.91-.19 1.84-.19 2.74 0 .45.08.89.22 1.31.39.42.18.83.4 1.21.65s.74.54 1.06.87a6.818 6.818 0 0 1 1.51 2.27c.18.42.31.86.4 1.31s.14.91.14 1.37-.05.92-.14 1.37c-.09.44-.22.88-.4 1.31-.17.42-.39.83-.64 1.2-.25.39-.55.75-.87 1.07-.32.32-.68.61-1.06.87-.38.25-.79.47-1.21.64-.42.18-.86.31-1.31.4-.45.09-.91.14-1.37.14z"/><path class="st1" d="M262.44 281.24c-1.79 0-3.58-.68-4.95-2.05l-24.68-24.68a7.007 7.007 0 0 1 0-9.9l121.48-121.48a7.007 7.007 0 0 1 9.9 0 7.007 7.007 0 0 1 0 9.9L247.66 249.56l14.78 14.78L401.2 125.58c-8.01-2.04-14.13-8.79-15.23-17.14l-1.52-11.59c-.5-3.83 2.2-7.35 6.03-7.85 3.83-.51 7.35 2.2 7.85 6.03l1.52 11.59a6.45 6.45 0 0 0 5.54 5.54l11.58 1.52c2.64.35 4.86 2.17 5.72 4.69.86 2.52.21 5.32-1.68 7.2L267.39 279.19a6.998 6.998 0 0 1-4.95 2.05z"/><path class="st0" d="M246.38 325.35c-1.86 0-3.64-.74-4.95-2.05l-52.74-52.74a7.001 7.001 0 0 1 0-9.9l27.18-27.18c2.1-2.1 4.89-3.26 7.86-3.26s5.76 1.16 7.87 3.26l46.9 46.9c2.1 2.1 3.26 4.89 3.26 7.87s-1.16 5.76-3.26 7.87l-27.18 27.18a6.92 6.92 0 0 1-4.94 2.05zm-42.83-59.73l42.84 42.84 20.19-20.19-42.83-42.83-20.2 20.18zm231.68-135.6c-.88 0-1.77-.06-2.65-.18l-29.01-3.81c-9.15-1.21-16.39-8.44-17.6-17.59l-3.82-29.02c-.83-6.25 1.34-12.65 5.81-17.12l42.81-42.81a20.36 20.36 0 0 1 22.27-4.42l23.22 9.61c5.04 2.09 8.96 6.01 11.05 11.05l9.62 23.24a20.343 20.343 0 0 1-4.42 22.26l-42.81 42.81c-3.83 3.84-9.1 5.98-14.47 5.98zM445.2 27.5c-1.67 0-3.3.65-4.53 1.88L397.86 72.2a6.452 6.452 0 0 0-1.83 5.38l3.82 29.03a6.45 6.45 0 0 0 5.54 5.54l29.02 3.82c1.97.26 3.99-.42 5.39-1.83l42.82-42.81a6.395 6.395 0 0 0 1.39-6.99l-9.62-23.25a6.368 6.368 0 0 0-3.48-3.47L447.68 28c-.81-.34-1.65-.5-2.48-.5zm42.37 48.78z"/><path class="st1" d="M100.91 498.49c-7.89 0-15.78-3-21.78-9.01l-56.61-56.61c-12.01-12.01-12.01-31.56 0-43.57l130.57-130.57c12.01-12.01 31.55-12.01 43.57 0l56.61 56.61c12.01 12.01 12.01 31.56 0 43.57l-44.94 44.94a7.007 7.007 0 0 1-9.9 0 7.007 7.007 0 0 1 0-9.9l44.94-44.94c6.55-6.55 6.55-17.21 0-23.77l-56.61-56.61c-6.55-6.55-17.21-6.55-23.77 0L32.42 399.2a16.694 16.694 0 0 0-4.92 11.88c0 4.49 1.75 8.71 4.92 11.88l56.61 56.61c3.17 3.17 7.39 4.92 11.88 4.92 4.49 0 8.71-1.75 11.88-4.92l36.04-36.04a7.007 7.007 0 0 1 9.9 0 7.007 7.007 0 0 1 0 9.9l-36.04 36.04c-6 6.01-13.89 9.02-21.78 9.02z"/></g></svg>