<svg viewBox="0 0 512 512" xmlns="http://www.w3.org/2000/svg"><style>.st0{fill:#16ade1}.st1{fill:#1b3954}</style><g id="Layer_2"><path class="st1" d="M159.23 408.61H38.02c-1.94 0-3.79-.8-5.12-2.22-1.32-1.42-2-3.32-1.87-5.26l5.64-82.36a6.999 6.999 0 0 1 11.91-4.49c13.39 13.29 31.16 20.6 50.04 20.6 18.87 0 36.64-7.31 50.04-20.59a7.007 7.007 0 0 1 9.9.04 7.007 7.007 0 0 1-.04 9.9c-16.04 15.9-37.31 24.65-59.89 24.65-17.76 0-34.7-5.41-48.92-15.45l-4.19 61.18H151.7l-3.12-42.22c-.29-3.86 2.61-7.21 6.46-7.5 3.83-.28 7.21 2.61 7.5 6.46l3.68 49.73c.14 1.94-.53 3.85-1.85 5.28a7.004 7.004 0 0 1-5.14 2.25zM98.62 307.52c-24.11 0-43.73-19.62-43.73-43.73 0-16.73 9.31-31.74 24.31-39.18 6.06-3.01 12.59-4.54 19.42-4.54 24.11 0 43.73 19.62 43.73 43.73 0 6.82-1.52 13.36-4.53 19.42-7.46 14.99-22.48 24.3-39.2 24.3zm0-73.45c-4.64 0-9.08 1.04-13.19 3.08-10.21 5.06-16.54 15.27-16.54 26.64 0 16.39 13.33 29.73 29.73 29.73 11.37 0 21.58-6.33 26.66-16.53 2.04-4.11 3.07-8.55 3.07-13.2 0-16.39-13.34-29.72-29.73-29.72z"/><path class="st1" d="M98.62 348.88c-22.59 0-43.87-8.76-59.9-24.66-16.25-16.09-25.19-37.55-25.19-60.43 0-46.92 38.17-85.1 85.09-85.1 9.6 0 19.04 1.59 28.05 4.74 24.27 8.46 43.82 28.02 52.31 52.31a85.045 85.045 0 0 1 4.74 28.05c0 22.88-8.95 44.35-25.21 60.44-16.03 15.9-37.3 24.65-59.89 24.65zm0-156.19c-39.2 0-71.09 31.9-71.09 71.1 0 19.11 7.48 37.04 21.05 50.48 13.39 13.29 31.16 20.61 50.04 20.61 18.87 0 36.64-7.31 50.04-20.59 13.58-13.45 21.06-31.38 21.06-50.5 0-8.03-1.33-15.92-3.96-23.44-7.09-20.29-23.42-36.63-43.7-43.7a70.837 70.837 0 0 0-23.44-3.96z"/><path class="st0" d="M98.62 307.52c-24.11 0-43.73-19.62-43.73-43.73 0-16.73 9.31-31.74 24.31-39.18 6.06-3.01 12.59-4.54 19.42-4.54 24.11 0 43.73 19.62 43.73 43.73 0 6.82-1.52 13.36-4.53 19.42-7.46 14.99-22.48 24.3-39.2 24.3zm0-73.45c-4.64 0-9.08 1.04-13.19 3.08-10.21 5.06-16.54 15.27-16.54 26.64 0 16.39 13.33 29.73 29.73 29.73 11.37 0 21.58-6.33 26.66-16.53 2.04-4.11 3.07-8.55 3.07-13.2 0-16.39-13.34-29.72-29.73-29.72z"/><path class="st1" d="M172.38 245.04a6.982 6.982 0 0 1-6.61-4.69c-7.09-20.29-23.42-36.63-43.7-43.7a6.982 6.982 0 0 1-4.55-5.21 7 7 0 0 1 2.15-6.58l75.05-68.26a7.003 7.003 0 0 1 9.89.47 7.003 7.003 0 0 1-.47 9.89l-67 60.94c16 8.17 29.21 21.38 37.39 37.39l76.45-84.05c-17.02-7.02-29.71-22.02-33.58-40.61a6.996 6.996 0 0 1 5.43-8.28c3.78-.79 7.49 1.64 8.28 5.43 3.47 16.69 17.06 29.97 33.81 33.05 2.5.46 4.55 2.24 5.37 4.65s.26 5.07-1.45 6.95l-91.26 100.33a7.1 7.1 0 0 1-5.2 2.28zm84.97-132.11c-1.63 0-3.27-.57-4.59-1.72l-.95-.82a6.995 6.995 0 0 1-.38-10.2 7.102 7.102 0 0 1 4.98-2.1h.02c1.85 0 3.65.71 4.97 2.02.16.16.32.31.48.46l.33.32c2.74 2.63 2.87 6.97.31 9.77a6.99 6.99 0 0 1-5.17 2.27z"/><path class="st1" d="M272.66 145.53c-3.48 0-6.95-.32-10.3-.94-22.62-4.16-40.28-21.42-44.97-43.96a57.23 57.23 0 0 1-1.18-11.55c0-31.12 25.32-56.44 56.45-56.44 3.87 0 7 3.13 7 7s-3.13 7-7 7c-23.41 0-42.45 19.04-42.45 42.44 0 2.93.3 5.86.89 8.7 3.47 16.68 17.06 29.96 33.81 33.04 2.52.47 5.13.71 7.75.71 5.35 0 10.55-.98 15.47-2.91 10.32-4.04 18.82-12.16 23.32-22.3a42.074 42.074 0 0 0 3.66-17.25c0-9.75-3.39-19.27-9.54-26.81a7.002 7.002 0 0 1 10.85-8.85c8.19 10.03 12.7 22.7 12.7 35.66 0 7.98-1.64 15.69-4.87 22.94-5.98 13.47-17.28 24.27-31 29.64-6.56 2.58-13.49 3.88-20.59 3.88z"/><path class="st1" d="M294.61 51.77c-3.87 0-7-3.13-7-7s3.13-7 7-7h.01c3.87 0 7 3.13 7 7s-3.14 7-7.01 7zm-21.95 67.07c-7.38 0-14.47-2.72-19.95-7.67l-.9-.78c-.41-.35-.77-.75-1.08-1.18-5.06-5.51-7.83-12.62-7.83-20.12 0-7.94 3.09-15.41 8.71-21.03.09-.09.18-.18.28-.26 5.6-5.45 12.96-8.45 20.77-8.45 13.17 0 24.61 8.46 28.46 21.05.86 2.8 1.3 5.73 1.3 8.7 0 7.94-3.09 15.41-8.71 21.04-5.65 5.61-13.12 8.7-21.05 8.7zm-10.95-18.39l.24.21a15.753 15.753 0 0 0 10.7 4.18c4.2 0 8.16-1.64 11.15-4.62a15.69 15.69 0 0 0 4.6-11.14c0-1.58-.23-3.12-.68-4.6-2.04-6.67-8.1-11.15-15.07-11.15-4.2 0-8.15 1.64-11.14 4.62-.06.06-.13.12-.19.18-2.86 2.95-4.42 6.83-4.42 10.94 0 4.16 1.61 8.1 4.54 11.07.09.11.18.21.27.31z"/><path class="st0" d="M272.66 118.84c-7.41 0-14.51-2.74-20.01-7.72-.05-.05-.1-.09-.15-.14l-.27-.26c-.24-.23-.48-.46-.72-.7-5.57-5.66-8.61-13.08-8.61-20.94 0-7.94 3.09-15.41 8.71-21.03.09-.09.18-.18.28-.26 5.6-5.45 12.96-8.45 20.77-8.45 13.17 0 24.61 8.46 28.46 21.05.86 2.8 1.3 5.73 1.3 8.7 0 7.94-3.09 15.41-8.71 21.04-5.65 5.62-13.12 8.71-21.05 8.71zm-10.55-18.04c2.9 2.6 6.64 4.04 10.54 4.04 4.2 0 8.16-1.64 11.15-4.62a15.69 15.69 0 0 0 4.6-11.14c0-1.58-.23-3.12-.68-4.6-2.04-6.67-8.1-11.15-15.07-11.15-4.2 0-8.15 1.64-11.14 4.62-.06.06-.13.12-.19.18-2.86 2.95-4.42 6.83-4.42 10.94 0 4.16 1.61 8.1 4.54 11.07.12.11.27.26.43.42l.24.24z"/><path class="st1" d="M363.52 205.96c-1.68 0-3.32-.6-4.61-1.73l-72.84-63.82a6.993 6.993 0 0 1-2.28-6.47 6.989 6.989 0 0 1 4.35-5.31c10.32-4.04 18.81-12.16 23.31-22.29a7.002 7.002 0 0 1 11.67-1.77l63.04 71.95c1.51 1.73 2.08 4.09 1.52 6.32s-2.18 4.04-4.33 4.85c-6.21 2.33-11.03 7.28-13.21 13.58a7.012 7.012 0 0 1-4.82 4.48c-.6.13-1.2.21-1.8.21zm-60.49-69.31l58.38 51.15c2.31-3.34 5.17-6.25 8.46-8.64l-50.8-57.97a57.187 57.187 0 0 1-16.04 15.46z"/><path class="st1" d="M342.99 301.08h-28.92c-3.87 0-7-3.13-7-7v-59.74c0-2.57 1.41-4.94 3.67-6.16l47.85-25.86a6.982 6.982 0 0 1 6.91.15 7 7 0 0 1 3.42 6.01c0 7.96 4.05 15.11 10.84 19.18a7.01 7.01 0 0 1 3.4 6.16 7.01 7.01 0 0 1-3.67 6l-29.5 15.94v38.31c0 3.87-3.13 7.01-7 7.01zm-21.92-14h14.92v-35.49c0-2.57 1.41-4.94 3.67-6.16l24.2-13.08a36.755 36.755 0 0 1-7.28-13.03l-35.51 19.19v48.57zm147.3 14h-28.92c-3.87 0-7-3.13-7-7v-38.31l-29.48-15.93a6.997 6.997 0 0 1-3.67-6 7.013 7.013 0 0 1 3.39-6.16c6.78-4.08 10.83-11.24 10.83-19.14 0-2.47 1.3-4.78 3.42-6.04 2.12-1.26 4.74-1.35 6.91-.17l47.85 25.86a7.004 7.004 0 0 1 3.67 6.16v59.74c0 3.85-3.13 6.99-7 6.99zm-21.91-14h14.92v-48.56l-35.51-19.19c-1.5 4.8-3.99 9.24-7.27 13.04l24.19 13.07a7.004 7.004 0 0 1 3.67 6.16v35.48z"/><path class="st0" d="M391.23 244.83c-6.59 0-13.05-1.79-18.68-5.17-10.87-6.52-17.63-18.45-17.63-31.12.01-4.08.68-8.04 1.98-11.84 3.56-10.27 11.4-18.33 21.53-22.13 4.06-1.55 8.38-2.34 12.8-2.34 19.97 0 36.25 16.26 36.3 36.24v.07c0 12.67-6.75 24.6-17.62 31.13a36.368 36.368 0 0 1-18.68 5.16zm0-58.6c-2.71 0-5.36.48-7.85 1.43a22.221 22.221 0 0 0-13.24 13.59c-.79 2.33-1.21 4.78-1.22 7.25 0 7.94 4.05 15.08 10.84 19.15 3.46 2.08 7.42 3.17 11.47 3.17a22.3 22.3 0 0 0 11.48-3.17c6.77-4.07 10.82-11.23 10.82-19.13l7-.06-7 .01c-.03-12.25-10.03-22.24-22.3-22.24zm48.23 182.15H343c-3.87 0-7-3.13-7-7v-86.97c0-3.87 3.13-7 7-7h96.46c3.87 0 7 3.13 7 7v86.97c0 3.87-3.14 7-7 7zm-89.47-14h82.46v-72.97h-82.46v72.97z"/><path class="st1" d="M290.98 412.35c-.46 0-.92-.05-1.37-.14-.44-.09-.88-.23-1.31-.4-.42-.18-.82-.39-1.2-.64-.39-.26-.74-.55-1.07-.87a7.079 7.079 0 0 1-2.05-4.95c0-.46.05-.92.14-1.37.09-.45.22-.89.4-1.31.17-.42.39-.83.64-1.21.26-.38.55-.74.87-1.06.33-.33.68-.62 1.07-.87.38-.26.78-.47 1.2-.65.43-.17.87-.31 1.31-.4 2.28-.45 4.7.29 6.32 1.92.33.32.62.68.87 1.06.26.38.47.79.65 1.21.17.42.31.86.4 1.31a7.036 7.036 0 0 1-1.92 6.32 7.061 7.061 0 0 1-4.95 2.05z"/><path class="st1" d="M491.47 479.36H290.98c-3.87 0-7-3.13-7-7v-46.18c0-3.87 3.13-7 7-7s7 3.13 7 7v39.18h186.48v-96.97H297.98v16.13c0 3.87-3.13 7-7 7s-7-3.13-7-7v-23.13c0-3.87 3.13-7 7-7h200.48c3.87 0 7 3.13 7 7v110.97c.01 3.86-3.13 7-6.99 7zm-314.75 0H20.53c-3.87 0-7-3.13-7-7v-70.75c0-3.87 3.13-7 7-7h156.19c3.87 0 7 3.13 7 7v70.75c0 3.86-3.13 7-7 7zm-149.19-14h142.19v-56.75H27.53v56.75z"/></g></svg>