<svg viewBox="0 0 512 512" xmlns="http://www.w3.org/2000/svg"><style>.st0{fill:#16ade1}.st1{fill:#1b3954}</style><g id="Layer_2"><path class="st1" d="M322.7 325.58c-1.85 0-3.65-.75-4.96-2.05-.32-.32-.61-.68-.87-1.06-.25-.38-.46-.79-.64-1.21a7.35 7.35 0 0 1-.4-1.31c-.09-.45-.14-.91-.14-1.37 0-.45.05-.91.14-1.37.09-.44.23-.88.4-1.31.18-.42.39-.82.64-1.2.26-.39.55-.75.87-1.07.33-.32.68-.61 1.07-.87.38-.25.78-.47 1.21-.64a6.968 6.968 0 0 1 5.35 0c.42.17.83.39 1.21.64.38.26.74.55 1.06.87.33.32.62.68.87 1.07.26.38.47.78.65 1.2.17.43.31.87.4 1.31.09.46.13.92.13 1.37 0 .46-.04.92-.13 1.37-.09.45-.23.89-.4 1.31-.18.42-.39.83-.65 1.21-.25.38-.54.74-.87 1.06-.32.32-.68.62-1.06.87s-.79.47-1.21.65c-.42.17-.86.3-1.31.39-.45.1-.91.14-1.36.14zM29.62 498.5c-1.01 0-2.04-.22-3.02-.69a7 7 0 0 1-3.29-9.34l116.03-242.29c3.02-6.3 8.33-11 14.95-13.23 6.62-2.23 13.69-1.7 19.9 1.49l128.36 65.92c3.44 1.77 4.8 5.99 3.03 9.42-1.77 3.44-5.99 4.8-9.42 3.03L167.8 246.9a11.566 11.566 0 0 0-9.04-.68 11.55 11.55 0 0 0-6.79 6.01L35.93 494.52a6.973 6.973 0 0 1-6.31 3.98z"/><path class="st1" d="M29.62 498.5c-2.95 0-5.69-1.88-6.65-4.83-1.2-3.67.81-7.63 4.49-8.82l43.09-14.05c3.68-1.2 7.63.81 8.82 4.49 1.2 3.67-.81 7.63-4.49 8.82l-43.09 14.05c-.72.23-1.45.34-2.17.34z"/><path class="st1" d="M72.71 484.46c-2.95 0-5.69-1.88-6.65-4.83-1.2-3.68.81-7.63 4.49-8.83l299.6-97.66c4.62-1.51 7.62-5.3 8-10.15.39-4.85-1.96-9.07-6.29-11.29l-27.21-13.97c-3.44-1.77-4.8-5.99-3.03-9.42 1.77-3.44 5.99-4.8 9.42-3.03l27.21 13.97c9.38 4.82 14.69 14.34 13.85 24.86-.84 10.52-7.59 19.08-17.62 22.35l-299.6 97.66c-.72.22-1.45.34-2.17.34zm125.77-142.77c-1.87 0-3.74-.75-5.12-2.22a6.99 6.99 0 0 1 .34-9.89l48.28-45.09v-79.97c0-7.45 3.62-14.48 9.68-18.8L301.62 150c3.14-2.25 7.52-1.52 9.77 1.62a7.007 7.007 0 0 1-1.62 9.77l-49.96 35.72a9.095 9.095 0 0 0-3.81 7.4v83.01c0 1.94-.8 3.79-2.22 5.12l-50.51 47.17a7.027 7.027 0 0 1-4.79 1.88z"/><path class="st0" d="M334.21 176.83c-13.81 0-26.84-6.7-34.85-17.92-6.65-9.3-9.28-20.64-7.4-31.91 1.88-11.28 8.03-21.15 17.33-27.8l.09-.06 112.35-77.68c7.3-5.2 15.88-7.95 24.81-7.95 13.81 0 26.83 6.7 34.85 17.92 13.73 19.2 9.27 45.99-9.93 59.72l-.09.06-112.35 77.68c-7.29 5.19-15.87 7.94-24.81 7.94zm-16.82-66.22c-6.24 4.47-10.36 11.11-11.62 18.68-1.26 7.59.51 15.22 4.98 21.48a28.901 28.901 0 0 0 23.46 12.06c6.02 0 11.8-1.86 16.72-5.37l.09-.06 112.34-77.68c12.89-9.25 15.87-27.25 6.64-40.16a28.901 28.901 0 0 0-23.46-12.06c-6.02 0-11.8 1.86-16.72 5.37l-.09.06-112.34 77.68zM174.83 363.78c-.45 0-.91-.05-1.36-.14-.45-.09-.89-.22-1.31-.4-.43-.17-.83-.39-1.21-.64-.39-.26-.74-.55-1.07-.87-.32-.33-.61-.68-.87-1.07a7.043 7.043 0 0 1-1.18-3.88c0-.46.05-.92.14-1.37.09-.45.22-.89.4-1.31.17-.42.39-.83.64-1.21.26-.38.55-.74.87-1.06.33-.32.68-.62 1.07-.87.38-.25.78-.47 1.21-.65.42-.17.86-.3 1.31-.39.9-.19 1.83-.19 2.73 0 .45.09.89.22 1.31.39.42.18.83.4 1.21.65s.74.55 1.06.87c.33.32.62.68.87 1.06.26.38.47.79.65 1.21.17.42.31.86.4 1.31.09.45.13.91.13 1.37 0 .45-.04.91-.13 1.37-.09.44-.23.88-.4 1.31-.18.42-.39.82-.65 1.2-.25.39-.54.74-.87 1.07-1.3 1.3-3.1 2.05-4.95 2.05z"/><path class="st0" d="M386.15 96.39c-1.79 0-3.58-.68-4.95-2.05l-20.02-20.02a7.007 7.007 0 0 1 0-9.9 7.007 7.007 0 0 1 9.9 0l20.02 20.02a7.007 7.007 0 0 1 0 9.9 6.973 6.973 0 0 1-4.95 2.05zm30.04-23.77c-1.79 0-3.58-.68-4.95-2.05L394.26 53.6a7.007 7.007 0 0 1 0-9.9 7.007 7.007 0 0 1 9.9 0l16.98 16.98a7.007 7.007 0 0 1 0 9.9 7.005 7.005 0 0 1-4.95 2.04zm-70 52.77c-1.79 0-3.58-.68-4.95-2.05l-20.29-20.29a7.007 7.007 0 0 1 0-9.9 7.007 7.007 0 0 1 9.9 0l20.29 20.29a7.007 7.007 0 0 1 0 9.9 7.015 7.015 0 0 1-4.95 2.05z"/></g></svg>