<svg viewBox="0 0 512 512" xmlns="http://www.w3.org/2000/svg"><style>.st0{fill:#16ade1}.st1{fill:#1b3954}</style><g id="Layer_2"><path class="st1" d="M127.39 115.13c-1.85 0-3.65-.75-4.95-2.05a7.046 7.046 0 0 1-2.06-4.95c0-.46.05-.92.14-1.37s.23-.89.4-1.31c.18-.42.39-.83.65-1.21.25-.38.54-.74.87-1.06.32-.32.68-.62 1.06-.87s.79-.47 1.21-.65c.42-.17.86-.3 1.31-.39.9-.19 1.83-.19 2.73 0 .45.09.89.22 1.31.39.42.18.83.4 1.21.65s.74.55 1.06.87c.33.32.62.68.87 1.06.26.38.47.79.65 1.21.17.42.31.86.4 1.31s.13.91.13 1.37c0 1.84-.74 3.64-2.05 4.95-.32.32-.68.61-1.06.87-.38.25-.79.47-1.21.64-.42.18-.86.31-1.31.4-.45.09-.91.14-1.36.14zM445.33 498.5h-212.5c-3.87 0-7-3.13-7-7V178.93h-98.45c-3.87 0-7-3.13-7-7v-32.1c0-3.87 3.13-7 7-7s7 3.13 7 7v25.1h98.45c3.87 0 7 3.13 7 7V484.5h198.49v-82.48c0-3.87 3.13-7 7-7s7 3.13 7 7v89.48c.01 3.87-3.13 7-6.99 7zm0-111.52c-.46 0-.92-.05-1.37-.14s-.89-.22-1.31-.4c-.42-.17-.83-.39-1.21-.64-.38-.26-.74-.55-1.06-.87-.33-.32-.62-.68-.87-1.07-.26-.38-.47-.78-.65-1.2-.17-.43-.31-.87-.4-1.31-.09-.45-.13-.91-.13-1.37s.04-.92.13-1.37c.09-.45.23-.89.4-1.31.18-.42.39-.83.65-1.21.25-.38.54-.74.87-1.06.32-.33.68-.62 1.06-.87s.79-.47 1.21-.65c.42-.17.86-.31 1.31-.4.9-.18 1.83-.18 2.73 0 .45.09.89.23 1.31.4.42.18.83.4 1.21.65s.74.54 1.06.87c.33.32.62.68.87 1.06.26.38.47.79.65 1.21.17.42.31.86.4 1.31.09.45.13.91.13 1.37s-.04.92-.13 1.37c-.09.44-.23.88-.4 1.31-.18.42-.39.82-.65 1.2-.25.39-.54.75-.87 1.07-.32.32-.68.61-1.06.87-.38.25-.79.47-1.21.64-.42.18-.86.31-1.31.4-.45.09-.91.14-1.36.14z"/><path class="st1" d="M445.33 360.17c-3.87 0-7-3.13-7-7V27.5H134.38v58.78c0 3.87-3.13 7-7 7s-7-3.13-7-7V20.5c0-3.87 3.13-7 7-7h317.94c3.87 0 7 3.13 7 7v332.67c.01 3.87-3.13 7-6.99 7z"/><path class="st0" d="M132.01 263.14h-29.62c-3.87 0-7-3.13-7-7v-29.62c0-3.87 3.13-7 7-7h29.62c3.87 0 7 3.13 7 7v29.62c0 3.87-3.13 7-7 7zm-22.62-14h15.62v-15.62h-15.62v15.62zm87.73 14H167.5c-3.87 0-7-3.13-7-7v-29.62c0-3.87 3.13-7 7-7h29.62c3.87 0 7 3.13 7 7v29.62c0 3.87-3.14 7-7 7zm-22.62-14h15.62v-15.62H174.5v15.62zm-42.49 74.26h-29.62c-3.87 0-7-3.13-7-7v-29.62c0-3.87 3.13-7 7-7h29.62c3.87 0 7 3.13 7 7v29.62c0 3.86-3.13 7-7 7zm-22.62-14h15.62v-15.62h-15.62v15.62zm87.73 14H167.5c-3.87 0-7-3.13-7-7v-29.62c0-3.87 3.13-7 7-7h29.62c3.87 0 7 3.13 7 7v29.62c0 3.86-3.14 7-7 7zm-22.62-14h15.62v-15.62H174.5v15.62zm-42.49 74.25h-29.62c-3.87 0-7-3.13-7-7v-29.62c0-3.87 3.13-7 7-7h29.62c3.87 0 7 3.13 7 7v29.62c0 3.87-3.13 7-7 7zm-22.62-14h15.62v-15.62h-15.62v15.62zm87.73 14H167.5c-3.87 0-7-3.13-7-7v-29.62c0-3.87 3.13-7 7-7h29.62c3.87 0 7 3.13 7 7v29.62c0 3.87-3.14 7-7 7zm-22.62-14h15.62v-15.62H174.5v15.62zm-42.49 74.26h-29.62c-3.87 0-7-3.13-7-7v-29.62c0-3.87 3.13-7 7-7h29.62c3.87 0 7 3.13 7 7v29.62c0 3.86-3.13 7-7 7zm-22.62-14h15.62v-15.62h-15.62v15.62zm87.73 14H167.5c-3.87 0-7-3.13-7-7v-29.62c0-3.87 3.13-7 7-7h29.62c3.87 0 7 3.13 7 7v29.62c0 3.86-3.14 7-7 7zm-22.62-14h15.62v-15.62H174.5v15.62z"/><path class="st1" d="M308.11 328.1h-28.6c-3.87 0-7-3.13-7-7v-28.6c0-3.87 3.13-7 7-7h28.6c3.87 0 7 3.13 7 7v28.6c0 3.87-3.14 7-7 7zm-21.6-14h14.6v-14.6h-14.6v14.6zm21.6 79.7h-28.6c-3.87 0-7-3.13-7-7v-28.6c0-3.87 3.13-7 7-7h28.6c3.87 0 7 3.13 7 7v28.6c0 3.87-3.14 7-7 7zm-21.6-14h14.6v-14.6h-14.6v14.6zm21.6 79.7h-28.6c-3.87 0-7-3.13-7-7v-28.6c0-3.87 3.13-7 7-7h28.6c3.87 0 7 3.13 7 7v28.6c0 3.86-3.14 7-7 7zm-21.6-14h14.6v-14.6h-14.6v14.6z"/><path class="st0" d="M197.85 85.19h-29.53c-3.87 0-7-3.13-7-7V48.66c0-3.87 3.13-7 7-7h29.53c3.87 0 7 3.13 7 7v29.53c0 3.87-3.13 7-7 7zm-22.53-14h15.53V55.66h-15.53v15.53zm92.8 14h-29.53c-3.87 0-7-3.13-7-7V48.66c0-3.87 3.13-7 7-7h29.53c3.87 0 7 3.13 7 7v29.53c0 3.87-3.13 7-7 7zm-22.53-14h15.53V55.66h-15.53v15.53zm92.79 14h-29.53c-3.87 0-7-3.13-7-7V48.66c0-3.87 3.13-7 7-7h29.53c3.87 0 7 3.13 7 7v29.53c0 3.87-3.13 7-7 7zm-22.53-14h15.53V55.66h-15.53v15.53zm97.43 14h-29.53c-3.87 0-7-3.13-7-7V48.66c0-3.87 3.13-7 7-7h29.53c3.87 0 7 3.13 7 7v29.53c0 3.87-3.14 7-7 7zm-22.53-14h15.53V55.66h-15.53v15.53z"/><path class="st1" d="M197.85 146.83h-29.53c-3.87 0-7-3.13-7-7V110.3c0-3.87 3.13-7 7-7h29.53c3.87 0 7 3.13 7 7v29.53c0 3.87-3.13 7-7 7zm-22.53-14h15.53V117.3h-15.53v15.53zm92.8 14h-29.53c-3.87 0-7-3.13-7-7V110.3c0-3.87 3.13-7 7-7h29.53c3.87 0 7 3.13 7 7v29.53c0 3.87-3.13 7-7 7zm-22.53-14h15.53V117.3h-15.53v15.53zm92.79 14h-29.53c-3.87 0-7-3.13-7-7V110.3c0-3.87 3.13-7 7-7h29.53c3.87 0 7 3.13 7 7v29.53c0 3.87-3.13 7-7 7zm-22.53-14h15.53V117.3h-15.53v15.53zm97.43 14h-29.53c-3.87 0-7-3.13-7-7V110.3c0-3.87 3.13-7 7-7h29.53c3.87 0 7 3.13 7 7v29.53c0 3.87-3.14 7-7 7zm-22.53-14h15.53V117.3h-15.53v15.53zm-122.64 75.64h-10.94c-3.87 0-7-3.13-7-7s3.13-7 7-7h3.94v-15.54h-4.71c-3.87 0-7-3.13-7-7s3.13-7 7-7h11.71c3.87 0 7 3.13 7 7v29.54c0 3.87-3.13 7-7 7zm70.27 0h-29.53c-3.87 0-7-3.13-7-7v-29.53c0-3.87 3.13-7 7-7h29.53c3.87 0 7 3.13 7 7v29.53c0 3.86-3.13 7-7 7zm-22.53-14h15.53v-15.53h-15.53v15.53zm97.43 14h-29.53c-3.87 0-7-3.13-7-7v-29.53c0-3.87 3.13-7 7-7h29.53c3.87 0 7 3.13 7 7v29.53c0 3.86-3.14 7-7 7zm-22.53-14h15.53v-15.53h-15.53v15.53zm22.53 75.63h-29.53c-3.87 0-7-3.13-7-7v-29.53c0-3.87 3.13-7 7-7h29.53c3.87 0 7 3.13 7 7v29.53c0 3.87-3.14 7-7 7zm-22.53-14h15.53v-15.53h-15.53v15.53zm22.53 75.64h-29.53c-3.87 0-7-3.13-7-7v-29.53c0-3.87 3.13-7 7-7h29.53c3.87 0 7 3.13 7 7v29.53c0 3.87-3.14 7-7 7zm-22.53-14h15.53v-15.53h-15.53v15.53zm22.53 75.64h-29.53c-3.87 0-7-3.13-7-7v-29.53c0-3.87 3.13-7 7-7h29.53c3.87 0 7 3.13 7 7v29.53c0 3.86-3.14 7-7 7zm-22.53-14h15.53v-15.53h-15.53v15.53zm22.53 75.63h-29.53c-3.87 0-7-3.13-7-7v-29.53c0-3.87 3.13-7 7-7h29.53c3.87 0 7 3.13 7 7v29.53c0 3.87-3.14 7-7 7zm-22.53-14h15.53v-15.53h-15.53v15.53z"/><path class="st0" d="M354.79 498.5H232.83c-3.87 0-7-3.13-7-7v-238c0-3.87 3.13-7 7-7h121.95c3.87 0 7 3.13 7 7s-3.13 7-7 7H239.83v224h107.95V283.21c0-3.87 3.13-7 7-7s7 3.13 7 7V491.5c.01 3.87-3.13 7-6.99 7z"/><path class="st1" d="M232.83 498.5H66.67c-3.87 0-7-3.13-7-7V171.93c0-3.87 3.13-7 7-7h166.16c3.87 0 7 3.13 7 7V491.5c0 3.87-3.13 7-7 7zm-159.16-14h152.16V178.93H73.67V484.5z"/></g></svg>