<svg viewBox="0 0 512 512" xmlns="http://www.w3.org/2000/svg"><style>.st0{fill:#16ade1}.st1{fill:#1b3954}</style><g id="Layer_2"><path class="st1" d="M203.17 114.95c-1.26 0-2.54-.34-3.69-1.06-16.59-10.32-33.63-17.58-50.62-21.59a7.013 7.013 0 0 1-5.21-8.42 7.013 7.013 0 0 1 8.42-5.21c18.47 4.36 36.91 12.21 54.8 23.33 3.28 2.04 4.29 6.36 2.25 9.64a6.996 6.996 0 0 1-5.95 3.31zm-99.35 170.01a7.043 7.043 0 0 1-2.68-.54c-.42-.17-.83-.39-1.21-.64-.38-.26-.74-.55-1.06-.87a7.061 7.061 0 0 1-2.05-4.95c0-.46.05-.92.14-1.37.09-.44.22-.89.4-1.31a6.818 6.818 0 0 1 1.51-2.27 6.818 6.818 0 0 1 2.27-1.51c.43-.18.87-.31 1.31-.4 2.28-.46 4.7.28 6.32 1.91.32.32.61.68.87 1.06.25.38.47.79.64 1.21.18.42.31.87.4 1.31.09.45.14.91.14 1.37 0 1.84-.75 3.65-2.05 4.95a7.061 7.061 0 0 1-4.95 2.05z"/><path class="st0" d="M126.31 262.47c-1.79 0-3.58-.68-4.95-2.05a7.007 7.007 0 0 1 0-9.9l138.11-138.11a7.007 7.007 0 0 1 9.9 0 7.007 7.007 0 0 1 0 9.9L131.26 260.42a6.998 6.998 0 0 1-4.95 2.05z"/><path class="st1" d="M71.63 423.42H36.42c-3.87 0-7-3.13-7-7v-35.28c0-3.87 3.13-7 7-7h55.17a7.003 7.003 0 1 1 3.61 13c-10.38 6.25-16.57 17.19-16.57 29.28 0 3.87-3.13 7-7 7zm-28.21-14h21.73a48.446 48.446 0 0 1 8.71-21.28H43.42v21.28zm448.08 14h-25.6c-3.87 0-7-3.13-7-7 0-18.83-15.32-34.16-34.15-34.16s-34.16 15.32-34.16 34.16c0 3.87-3.13 7-7 7H153.94c-3.87 0-7-3.13-7-7 0-12.09-6.19-23.04-16.57-29.28a6.99 6.99 0 0 1-3.13-7.87 7 7 0 0 1 6.74-5.13H351v-67.22c0-3.87 3.13-7 7-7s7 3.13 7 7v74.22c0 3.87-3.13 7-7 7H151.72a48.683 48.683 0 0 1 8.71 21.28h216.69c3.4-23.25 23.47-41.16 47.65-41.16 24.17 0 44.24 17.91 47.64 41.16h12.1V283.85l-39.16-58.25h-80.33v25.66c0 3.87-3.13 7-7 7s-7-3.13-7-7V218.6c0-3.87 3.13-7 7-7h91.06c2.33 0 4.51 1.16 5.81 3.09l42.43 63.12a6.952 6.952 0 0 1 1.19 3.91v134.71a7.008 7.008 0 0 1-7.01 6.99z"/><path class="st1" d="M358.01 284.81c-.46 0-.92-.04-1.37-.13a7.35 7.35 0 0 1-1.31-.4 7.05 7.05 0 0 1-1.21-.65c-.38-.25-.74-.54-1.06-.87-.33-.32-.62-.68-.87-1.06a7.05 7.05 0 0 1-.65-1.21 7.35 7.35 0 0 1-.4-1.31c-.09-.45-.13-.91-.13-1.37 0-.45.04-.91.13-1.36.09-.45.23-.89.4-1.31.18-.43.39-.83.65-1.21.25-.39.54-.74.87-1.07.32-.32.68-.61 1.06-.87.38-.25.79-.47 1.21-.64.42-.18.86-.31 1.31-.4 2.27-.46 4.69.29 6.32 1.91 1.3 1.31 2.05 3.11 2.05 4.95s-.75 3.65-2.05 4.95c-.33.33-.68.62-1.07.87-.38.26-.78.47-1.21.65-.42.17-.86.31-1.3.4-.46.09-.92.13-1.37.13zm99.56 30.31h-65.63c-3.87 0-7-3.13-7-7v-55.59c0-3.87 3.13-7 7-7H431c2.33 0 4.51 1.16 5.81 3.1l26.57 39.53a6.976 6.976 0 0 1 1.19 3.91v16.06c0 3.85-3.14 6.99-7 6.99zm-58.63-14h51.63v-6.93l-23.3-34.67h-28.32v41.6z"/><path class="st0" d="M112.79 464.58c-26.55 0-48.16-21.6-48.16-48.16 0-16.79 8.95-32.61 23.35-41.28a48.08 48.08 0 0 1 24.81-6.88c8.76 0 17.34 2.38 24.81 6.88 14.4 8.67 23.35 24.48 23.35 41.27-.01 26.56-21.61 48.17-48.16 48.17zm0-82.32c-6.21 0-12.29 1.68-17.58 4.87-10.38 6.25-16.57 17.19-16.57 29.28 0 18.83 15.32 34.16 34.16 34.16s34.16-15.32 34.16-34.16c0-12.09-6.19-23.04-16.57-29.28a34.255 34.255 0 0 0-17.6-4.87z"/><path class="st1" d="M112.79 434.35c-9.89 0-17.93-8.05-17.93-17.93 0-6.25 3.33-12.14 8.69-15.37 2.78-1.68 5.98-2.56 9.24-2.56s6.46.89 9.25 2.57c5.36 3.22 8.69 9.11 8.69 15.37-.01 9.88-8.06 17.92-17.94 17.92zm0-21.86c-.73 0-1.4.19-2.02.56a3.93 3.93 0 1 0 5.94 3.38c0-1.39-.71-2.65-1.91-3.37-.61-.39-1.29-.57-2.01-.57zm311.96 21.86c-9.89 0-17.93-8.05-17.93-17.93 0-6.25 3.33-12.14 8.69-15.37 2.78-1.68 5.98-2.56 9.24-2.56s6.46.89 9.25 2.57c5.36 3.22 8.69 9.11 8.69 15.37 0 9.88-8.05 17.92-17.94 17.92zm0-21.86c-.73 0-1.4.19-2.02.56a3.93 3.93 0 1 0 5.94 3.38c0-1.39-.71-2.65-1.91-3.37-.6-.39-1.28-.57-2.01-.57z"/><path class="st0" d="M424.76 464.58c-26.55 0-48.16-21.6-48.16-48.16s21.6-48.16 48.16-48.16c26.55 0 48.15 21.6 48.15 48.16s-21.6 48.16-48.15 48.16zm0-82.32c-18.83 0-34.16 15.32-34.16 34.16s15.32 34.16 34.16 34.16c18.83 0 34.15-15.32 34.15-34.16s-15.32-34.16-34.15-34.16z"/><path class="st1" d="M55.21 384.38c-1.79 0-3.58-.68-4.95-2.05a7.007 7.007 0 0 1 0-9.9l53.99-53.99a7.007 7.007 0 0 1 9.9 0 7.007 7.007 0 0 1 0 9.9l-53.99 53.99a6.956 6.956 0 0 1-4.95 2.05zm303.06 0c-1.79 0-3.58-.68-4.95-2.05l-51.74-51.74a7.007 7.007 0 0 1 0-9.9 7.007 7.007 0 0 1 9.9 0l51.74 51.74a7.007 7.007 0 0 1 0 9.9 6.973 6.973 0 0 1-4.95 2.05z"/><path class="st0" d="M197.43 368.26c-2.77 0-5.54-.31-8.27-.95-39.22-9.14-78.53-31.88-110.67-64.02-32.15-32.15-54.88-71.45-64.02-110.67-2.9-12.44.98-25.84 10.12-34.98l99.14-99.14c9.14-9.14 22.54-13.02 34.98-10.12 39.22 9.14 78.53 31.88 110.67 64.02s54.88 71.45 64.02 110.67c2.9 12.44-.98 25.84-10.12 34.98l-99.14 99.14c-7.13 7.14-16.87 11.07-26.71 11.07zM150.39 61.43c-6.17 0-12.28 2.47-16.77 6.97l-99.14 99.14c-5.75 5.75-8.19 14.14-6.38 21.9 8.56 36.71 29.97 73.63 60.29 103.95 30.32 30.32 67.24 51.73 103.95 60.29 7.76 1.81 16.16-.63 21.91-6.38l99.14-99.14c5.75-5.75 8.19-14.14 6.38-21.9-8.56-36.71-29.97-73.63-60.29-103.95-30.32-30.32-67.24-51.73-103.95-60.29-1.7-.39-3.43-.59-5.14-.59z"/></g></svg>