<svg viewBox="0 0 512 512" xmlns="http://www.w3.org/2000/svg"><style>.st0{fill:#16ade1}.st1{fill:#1b3954}</style><g id="Layer_2"><path class="st0" d="M36.03 475.97l115.42 8.48c4.84.37 9.59-1.41 13.04-4.85l83.33-83.32c6.52-6.52 6.52-17.12.01-23.63l-25.46-25.46-4.45 4.45a183.966 183.966 0 0 1-86.62 48.68c-5.55 1.35-11.28-.26-15.32-4.3-4.04-4.04-5.65-9.77-4.3-15.32a184.05 184.05 0 0 1 48.68-86.62l4.45-4.45-25.46-25.46a16.604 16.604 0 0 0-11.81-4.89c-4.46 0-8.66 1.74-11.82 4.9L32.4 347.51c-3.45 3.45-5.22 8.2-4.85 13.03l8.48 115.43zm216.73-74.75zM152.7 498.5c-.76 0-1.52-.03-2.29-.09l-121.43-8.92c-3.46-.25-6.21-3.01-6.47-6.47l-8.92-121.44a30.63 30.63 0 0 1 8.92-23.96l83.33-83.32c5.8-5.8 13.51-9 21.72-9h.01c8.2 0 15.91 3.19 21.71 8.99l30.41 30.41a7.007 7.007 0 0 1 0 9.9l-9.4 9.4a169.989 169.989 0 0 0-44.98 80.03c-.26 1.06.26 1.78.59 2.11.33.33 1.05.85 2.11.59 30.3-7.38 57.97-22.93 80.03-44.98l9.4-9.4a7.007 7.007 0 0 1 9.9 0l30.41 30.41c11.97 11.97 11.97 31.45-.01 43.43l-83.32 83.32c-5.82 5.78-13.62 8.99-21.72 8.99z"/><path class="st1" d="M402 149.36c-1.8 0-3.59-.69-4.95-2.05l-32.37-32.37a7.006 7.006 0 0 1-.58-9.24l24.47-31.52a6.969 6.969 0 0 1 5.09-2.69c2.01-.12 3.97.62 5.39 2.04l39.41 39.41c1.42 1.42 2.16 3.38 2.04 5.39s-1.11 3.86-2.69 5.09l-31.52 24.47a6.926 6.926 0 0 1-4.29 1.47zm-23.05-39.95l23.64 23.64 20.37-15.82-28.19-28.19-15.82 20.37z"/><path class="st1" d="M402 149.36c-1.8 0-3.59-.69-4.95-2.05l-32.37-32.37a7.006 7.006 0 0 1-.58-9.24l24.47-31.52a6.969 6.969 0 0 1 5.09-2.69c2.01-.12 3.97.62 5.39 2.04l39.41 39.41c1.42 1.42 2.16 3.38 2.04 5.39s-1.11 3.86-2.69 5.09l-31.52 24.47a6.926 6.926 0 0 1-4.29 1.47zm-23.05-39.95l23.64 23.64 20.37-15.82-28.19-28.19-15.82 20.37z"/><path class="st1" d="M127.41 400.79c-4.24 0-8.33-1.67-11.43-4.76-4.04-4.04-5.65-9.77-4.3-15.32a184.05 184.05 0 0 1 48.68-86.62l9.4-9.4a7.007 7.007 0 0 1 9.9 0l5.01 5.01 147.86-147.86-17.24-17.24c-6-6-6.6-15.58-1.4-22.27l63.85-82.3c2.99-3.84 7.48-6.2 12.31-6.49 4.83-.3 9.54 1.49 12.95 4.9L493.56 109c3.42 3.42 5.2 8.15 4.9 12.98-.3 4.83-2.67 9.31-6.49 12.28l-82.3 63.86c-6.71 5.19-16.28 4.58-22.27-1.4l-22.2-22.2a7.007 7.007 0 0 1 0-9.9 7.007 7.007 0 0 1 9.9 0l22.2 22.2a2.87 2.87 0 0 0 3.79.23l82.29-63.85a2.84 2.84 0 0 0 1.1-2.09c.03-.48-.04-1.41-.83-2.2L393.1 28.33c-.79-.79-1.71-.85-2.19-.83-.49.03-1.42.21-2.12 1.12l-63.84 82.29c-.9 1.16-.8 2.75.24 3.79l22.19 22.19a7.001 7.001 0 0 1 0 9.9L189.62 304.55a7.007 7.007 0 0 1-9.9 0l-5.01-5.01-4.45 4.45a169.989 169.989 0 0 0-44.98 80.03c-.26 1.06.26 1.78.59 2.11.33.33 1.04.85 2.11.59 30.3-7.38 57.97-22.93 80.03-44.98l4.45-4.45-5.01-5.01a7.007 7.007 0 0 1 0-9.9l10.83-10.83a7.007 7.007 0 0 1 9.9 0 7.007 7.007 0 0 1 0 9.9l-5.89 5.88 5.01 5.01a7.001 7.001 0 0 1 0 9.9l-9.4 9.4a183.966 183.966 0 0 1-86.62 48.68c-1.28.32-2.58.47-3.87.47z"/><path class="st1" d="M265.54 281.19c-1.79 0-3.58-.68-4.95-2.05a7.007 7.007 0 0 1 0-9.9l81.89-81.89a7.007 7.007 0 0 1 9.9 0 7.007 7.007 0 0 1 0 9.9l-81.89 81.9a7.047 7.047 0 0 1-4.95 2.04zm-19.94 19.94c-.45 0-.91-.05-1.37-.14-.44-.09-.88-.23-1.3-.4-.43-.18-.83-.39-1.21-.65-.39-.25-.74-.54-1.07-.87-1.3-1.3-2.05-3.1-2.05-4.94 0-.46.05-.92.14-1.37.09-.45.23-.89.4-1.31.17-.43.39-.83.64-1.21.26-.39.55-.74.87-1.07.33-.32.68-.61 1.07-.87.38-.25.78-.46 1.21-.64.42-.17.86-.31 1.3-.4 2.28-.46 4.7.29 6.32 1.91.32.33.62.68.87 1.07.26.38.47.78.65 1.21.17.42.31.86.4 1.31s.13.91.13 1.37c0 1.84-.74 3.64-2.05 4.94a7.01 7.01 0 0 1-4.95 2.06zM91.05 427.95c-1.79 0-3.58-.68-4.95-2.05a7.007 7.007 0 0 1 0-9.9l29.88-29.88a7.007 7.007 0 0 1 9.9 0 7.007 7.007 0 0 1 0 9.9L96 425.9a6.973 6.973 0 0 1-4.95 2.05zm-23.1 23.1c-.46 0-.92-.05-1.37-.14-.45-.09-.89-.22-1.31-.4A6.818 6.818 0 0 1 63 449c-.32-.32-.62-.68-.87-1.06s-.47-.79-.65-1.21c-.17-.42-.3-.87-.39-1.31-.1-.45-.14-.91-.14-1.37s.04-.92.14-1.37c.09-.44.22-.88.39-1.31.18-.42.4-.83.65-1.21s.55-.74.87-1.06a6.818 6.818 0 0 1 2.27-1.51c.42-.18.86-.31 1.31-.4 2.28-.46 4.69.29 6.32 1.91.32.32.61.68.87 1.06.25.38.47.79.64 1.21a7.043 7.043 0 0 1 .54 2.68c0 .46-.05.92-.14 1.37-.09.44-.22.89-.4 1.31-.17.42-.39.83-.64 1.21-.26.38-.55.74-.87 1.06a7.061 7.061 0 0 1-4.95 2.05z"/><path class="st0" d="M402 149.36c-1.8 0-3.59-.69-4.95-2.05l-32.37-32.37a6.995 6.995 0 0 1-.58-9.24l24.48-31.51a6.969 6.969 0 0 1 5.09-2.69 7 7 0 0 1 5.39 2.04l39.4 39.4c1.42 1.42 2.16 3.38 2.04 5.39s-1.11 3.86-2.69 5.09l-31.52 24.47a7.009 7.009 0 0 1-4.29 1.47zm-23.05-39.95l23.63 23.63 20.37-15.82-28.18-28.18-15.82 20.37z"/></g></svg>