<svg viewBox="0 0 512 512" xmlns="http://www.w3.org/2000/svg"><style>.st0{fill:#16ade1}.st1{fill:#1b3954}</style><g id="Layer_2"><path class="st1" d="M209.24 456.79H98.68c-1.86 0-3.64-.74-4.95-2.05l-78.18-78.18a7.001 7.001 0 0 1-2.05-4.95V261.04c0-1.86.74-3.64 2.05-4.95l78.18-78.18a7.001 7.001 0 0 1 4.95-2.05h110.56c3.87 0 7 3.13 7 7s-3.13 7-7 7H101.58L27.5 263.94V368.7l74.08 74.08h104.76l74.08-74.08V263.94l-49.33-49.33a7.007 7.007 0 0 1 0-9.9 7.007 7.007 0 0 1 9.9 0l51.38 51.38a7.001 7.001 0 0 1 2.05 4.95V371.6c0 1.86-.74 3.64-2.05 4.95l-78.18 78.18a6.969 6.969 0 0 1-4.95 2.06z"/><path class="st0" d="M213.26 378.75c-.46 0-.92-.05-1.37-.14-.45-.09-.89-.22-1.31-.4-.42-.17-.83-.39-1.21-.64-.38-.26-.74-.55-1.07-.87-.32-.32-.61-.68-.86-1.07-.26-.38-.47-.78-.65-1.2-.17-.43-.31-.87-.4-1.31-.09-.45-.13-.91-.13-1.37s.04-.92.13-1.37c.09-.44.23-.89.4-1.31.18-.42.39-.83.65-1.21.25-.38.54-.74.86-1.06a7.001 7.001 0 0 1 2.28-1.51 6.968 6.968 0 0 1 5.35 0 7.001 7.001 0 0 1 2.28 1.51c.32.32.61.68.87 1.06.25.38.46.79.64 1.21.17.42.31.87.4 1.31.09.45.14.91.14 1.37s-.05.92-.14 1.37c-.09.44-.23.88-.4 1.31-.18.42-.39.83-.64 1.2-.26.39-.55.75-.87 1.07-.33.32-.69.61-1.07.87-.38.25-.79.47-1.21.64-.42.18-.86.31-1.31.4-.45.09-.91.14-1.36.14z"/><path class="st0" d="M153.96 406.33c-49.63 0-90.01-40.38-90.01-90.01s40.38-90.01 90.01-90.01 90.01 40.38 90.01 90.01c0 14.92-3.73 29.69-10.78 42.74a7.002 7.002 0 1 1-12.32-6.66c5.95-11.01 9.09-23.48 9.09-36.08 0-41.91-34.1-76.01-76.01-76.01s-76.01 34.1-76.01 76.01 34.1 76.01 76.01 76.01c13.66 0 27.05-3.66 38.72-10.59 3.33-1.97 7.62-.88 9.59 2.45 1.97 3.33.88 7.62-2.45 9.59-13.82 8.21-29.68 12.55-45.85 12.55z"/><path class="st1" d="M446.82 153.56h-95.77c-3.87 0-7-3.13-7-7v-32.13c0-3.87 3.13-7 7-7h95.77c3.87 0 7 3.13 7 7v32.13c0 3.86-3.14 7-7 7zm-88.77-14h81.77v-18.13h-81.77v18.13zm88.77 72.57h-95.77c-3.87 0-7-3.13-7-7v-22.26c0-3.87 3.13-7 7-7h95.77c3.87 0 7 3.13 7 7v22.26c0 3.86-3.14 7-7 7zm-88.77-14h81.77v-8.26h-81.77v8.26zm88.77 72.58h-95.77c-3.87 0-7-3.13-7-7v-22.26c0-3.87 3.13-7 7-7h95.77c3.87 0 7 3.13 7 7v22.26c0 3.87-3.14 7-7 7zm-88.77-14h81.77v-8.26h-81.77v8.26zm88.77 72.57h-95.77c-3.87 0-7-3.13-7-7v-22.26c0-3.87 3.13-7 7-7h95.77c3.87 0 7 3.13 7 7v22.26c0 3.87-3.14 7-7 7zm-88.77-14h81.77v-8.26h-81.77v8.26zm88.77 72.57h-95.77c-3.87 0-7-3.13-7-7v-22.26c0-3.87 3.13-7 7-7h95.77c3.87 0 7 3.13 7 7v22.26c0 3.87-3.14 7-7 7zm-88.77-14h81.77v-8.26h-81.77v8.26zm79.67 97.04a7.004 7.004 0 0 1-6.38-9.88l8.47-18.74v-18.1h-81.77v18.01l7.07 14.71h41.67c3.87 0 7 3.13 7 7s-3.13 7-7 7h-46.07a7 7 0 0 1-6.31-3.97l-9.66-20.11a7.07 7.07 0 0 1-.69-3.03v-26.61c0-3.87 3.13-7 7-7h95.77c3.87 0 7 3.13 7 7v26.61c0 .99-.21 1.98-.62 2.88l-9.09 20.11a7.032 7.032 0 0 1-6.39 4.12z"/><path class="st1" d="M477.76 121.42H320.11c-1.5 0-2.96-.48-4.17-1.38l-13.74-10.2a7.005 7.005 0 0 1-2.83-5.62V60.37c0-1.78.68-3.49 1.89-4.79l11.27-12.03a6.997 6.997 0 0 1 5.11-2.21h162.6c1.94 0 3.79.8 5.11 2.21l11.27 12.03a7.034 7.034 0 0 1 1.89 4.79v43.86c0 2.22-1.05 4.3-2.83 5.62l-13.74 10.2a7.088 7.088 0 0 1-4.18 1.37zm-155.34-14h153.02l9.05-6.72V63.13l-7.3-7.79H320.67l-7.3 7.79v37.57l9.05 6.72z"/><path class="st1" d="M477.76 121.42H320.11c-1.5 0-2.96-.48-4.17-1.38l-13.74-10.2a7.005 7.005 0 0 1-2.83-5.62V60.37c0-1.78.68-3.49 1.89-4.79l11.27-12.03a6.997 6.997 0 0 1 5.11-2.21h162.6c1.94 0 3.79.8 5.11 2.21l11.27 12.03a7.034 7.034 0 0 1 1.89 4.79v43.86c0 2.22-1.05 4.3-2.83 5.62l-13.74 10.2a7.088 7.088 0 0 1-4.18 1.37zm-155.34-14h153.02l9.05-6.72V63.13l-7.3-7.79H320.67l-7.3 7.79v37.57l9.05 6.72z"/><path class="st1" d="M427.55 121.64h-57.23c-3.87 0-7-3.13-7-7V99.76c0-3.87 3.13-7 7-7s7 3.13 7 7v7.88h43.23V55.11h-50.23c-3.87 0-7-3.13-7-7s3.13-7 7-7h57.23c3.87 0 7 3.13 7 7v66.53c0 3.87-3.13 7-7 7z"/><path class="st0" d="M447.47 189.86H350.4c-13.87 0-25.16-11.28-25.16-25.15 0-6.72 2.62-13.04 7.37-17.79s11.07-7.37 17.79-7.37h97.08c13.87 0 25.15 11.29 25.15 25.16 0 6.73-2.62 13.05-7.38 17.79-4.73 4.75-11.04 7.36-17.78 7.36zm-97.07-36.3c-2.98 0-5.79 1.16-7.89 3.27a11.082 11.082 0 0 0-3.27 7.89c0 6.15 5.01 11.15 11.16 11.15h97.08c2.98 0 5.78-1.16 7.87-3.26a11.05 11.05 0 0 0 3.28-7.89c0-6.15-5-11.16-11.15-11.16H350.4zm97.07 94.89H350.4c-13.87 0-25.16-11.29-25.16-25.16 0-6.72 2.62-13.04 7.37-17.79 4.77-4.75 11.09-7.37 17.79-7.37h97.08c13.87 0 25.15 11.29 25.15 25.16 0 6.72-2.62 13.04-7.37 17.79-4.76 4.75-11.07 7.37-17.79 7.37zm-97.07-36.32c-2.98 0-5.78 1.16-7.9 3.28-2.1 2.1-3.26 4.9-3.26 7.88 0 6.15 5.01 11.16 11.16 11.16h97.08c2.98 0 5.77-1.16 7.88-3.27 2.11-2.11 3.27-4.91 3.27-7.89 0-6.15-5-11.16-11.15-11.16H350.4zm97.07 94.89H350.4c-13.87 0-25.16-11.29-25.16-25.16 0-6.73 2.62-13.05 7.38-17.79 4.74-4.74 11.06-7.36 17.78-7.36h97.08c13.87 0 25.15 11.28 25.15 25.15 0 6.72-2.62 13.04-7.37 17.79-4.74 4.75-11.05 7.37-17.79 7.37zm-97.07-36.31c-2.98 0-5.79 1.16-7.89 3.27-2.11 2.1-3.27 4.9-3.27 7.88 0 6.15 5.01 11.16 11.16 11.16h97.08c2.98 0 5.78-1.16 7.87-3.26a11.09 11.09 0 0 0 3.28-7.9c0-6.15-5-11.15-11.15-11.15H350.4zm97.07 94.88H350.4c-13.87 0-25.16-11.28-25.16-25.15 0-6.72 2.62-13.04 7.37-17.79s11.07-7.37 17.79-7.37h97.08c13.87 0 25.15 11.29 25.15 25.16 0 6.73-2.62 13.05-7.38 17.79-4.73 4.74-11.04 7.36-17.78 7.36zm-97.07-36.31c-2.98 0-5.79 1.16-7.89 3.27a11.082 11.082 0 0 0-3.27 7.89c0 6.15 5.01 11.15 11.16 11.15h97.08c2.98 0 5.78-1.16 7.87-3.26a11.05 11.05 0 0 0 3.28-7.89c0-6.15-5-11.16-11.15-11.16H350.4zm97.07 94.88H350.4c-13.87 0-25.16-11.28-25.16-25.15 0-6.72 2.62-13.04 7.37-17.79 4.77-4.75 11.09-7.37 17.79-7.37h97.08c13.87 0 25.15 11.29 25.15 25.16 0 6.73-2.62 13.05-7.38 17.79-4.73 4.74-11.04 7.36-17.78 7.36zm-97.07-36.31c-2.98 0-5.78 1.16-7.9 3.28-2.1 2.1-3.26 4.9-3.26 7.88 0 6.15 5.01 11.15 11.16 11.15h97.08c2.98 0 5.78-1.16 7.87-3.26a11.05 11.05 0 0 0 3.28-7.89c0-6.15-5-11.16-11.15-11.16H350.4z"/><path class="st1" d="M370.32 106.76c-3.87 0-7-3.13-7-7V48.11c0-3.87 3.13-7 7-7s7 3.13 7 7v51.65c0 3.87-3.14 7-7 7z"/></g></svg>