<svg viewBox="0 0 512 512" xmlns="http://www.w3.org/2000/svg"><style>.st0{fill:#16ade1}.st1{fill:#1b3954}</style><g id="Layer_2"><path class="st1" d="M256 249.72c-6.81 0-13.4-1.35-19.61-4.01a49.857 49.857 0 0 1-30.28-45.89v-73.11c0-3.87 3.13-7 7-7h85.78c3.87 0 7 3.13 7 7v73.11c0 20.01-11.89 38.02-30.29 45.9-6.2 2.65-12.79 4-19.6 4zm-35.89-116.01v66.11c0 14.4 8.55 27.36 21.79 33.02 4.45 1.91 9.2 2.88 14.1 2.88s9.64-.97 14.09-2.87a35.893 35.893 0 0 0 21.8-33.03v-66.11h-71.78z"/><path class="st1" d="M213.11 191.16c-16.67 0-30.24-13.56-30.24-30.23s13.57-30.24 30.24-30.24c3.87 0 7 3.13 7 7v46.47c0 3.87-3.13 7-7 7zm-7-44.88c-5.46 2.62-9.24 8.2-9.24 14.65 0 6.45 3.78 12.03 9.24 14.64v-29.29zm92.78 44.88c-3.87 0-7-3.13-7-7v-46.47c0-3.87 3.13-7 7-7 16.67 0 30.24 13.57 30.24 30.24 0 16.67-13.57 30.23-30.24 30.23zm7-44.88v29.3c5.46-2.62 9.24-8.2 9.24-14.64 0-6.46-3.78-12.04-9.24-14.66zm-64.29-42.6h-44.23c-2 0-3.9-.85-5.23-2.34a6.994 6.994 0 0 1-1.73-5.46c3.14-27.07 23.03-49.72 49.48-56.36 2.09-.52 4.31-.06 6.01 1.27a6.999 6.999 0 0 1 2.69 5.52v50.38c.01 3.86-3.13 6.99-6.99 6.99zm-35.75-14h28.75V56.13c-14 6.35-24.63 18.72-28.75 33.55zm108.78 14H270.4c-3.87 0-7-3.13-7-7V46.3c0-2.16.99-4.19 2.69-5.52a7.007 7.007 0 0 1 6.01-1.27c26.45 6.64 46.34 29.29 49.48 56.36.23 1.98-.4 3.97-1.73 5.46a6.942 6.942 0 0 1-5.22 2.35zm-37.23-14h28.75c-4.12-14.83-14.75-27.21-28.75-33.55v33.55z"/><path class="st1" d="M270.4 103.68h-28.8c-3.87 0-7-3.13-7-7V34.9c0-11.8 9.6-21.4 21.4-21.4 5.72 0 11.09 2.23 15.13 6.27 4.04 4.04 6.27 9.42 6.27 15.14v61.78c0 3.86-3.13 6.99-7 6.99zm-21.8-14h14.8V34.9c0-1.98-.77-3.84-2.17-5.24s-3.26-2.17-5.24-2.17c-4.08 0-7.4 3.32-7.4 7.4v54.79z"/><path class="st0" d="M293.72 103.68c-3.87 0-7-3.13-7-7V46.3c0-3.87 3.13-7 7-7s7 3.13 7 7v50.38c0 3.87-3.13 7-7 7zm-75.44 0c-3.87 0-7-3.13-7-7V46.3c0-3.87 3.13-7 7-7s7 3.13 7 7v50.38c0 3.87-3.14 7-7 7z"/><path class="st1" d="M256 302.54c-13.15 0-23.85-10.7-23.85-23.85v-16.33c0-3.87 3.13-7 7-7s7 3.13 7 7v16.33c0 5.43 4.42 9.85 9.85 9.85s9.85-4.42 9.85-9.85v-29.94c-3.22.65-6.51.97-9.85.97-6.81 0-13.41-1.35-19.61-4.01a7.005 7.005 0 0 1-3.68-9.19 7.005 7.005 0 0 1 9.19-3.68c4.45 1.91 9.19 2.87 14.09 2.87s9.64-.97 14.09-2.87c2.16-.93 4.65-.71 6.61.59a7.004 7.004 0 0 1 3.15 5.84v39.41c.01 13.16-10.69 23.86-23.84 23.86z"/><path class="st0" d="M323.15 133.71h-134.3c-12.14 0-22.01-9.88-22.01-22.01 0-5.88 2.29-11.41 6.44-15.56 4.16-4.16 9.69-6.45 15.57-6.45h134.29c12.14 0 22.01 9.88 22.01 22.01 0 5.88-2.29 11.41-6.44 15.56-4.15 4.16-9.68 6.45-15.56 6.45zm-134.3-30.03c-2.14 0-4.16.83-5.68 2.35a7.955 7.955 0 0 0-2.34 5.67c0 4.42 3.6 8.01 8.01 8.01h134.29c2.15 0 4.16-.83 5.68-2.35a7.955 7.955 0 0 0 2.34-5.67c0-4.42-3.6-8.01-8.01-8.01H188.85zm67.04 348.92c-18.78 0-34.06-15.28-34.06-34.06v-47.49c0-3.87 3.13-7 7-7h54.13c3.87 0 7 3.13 7 7v47.49c0 18.77-15.28 34.06-34.07 34.06zm-20.06-74.56v40.49c0 11.06 9 20.06 20.06 20.06s20.06-9 20.06-20.06v-40.49h-40.12z"/><path class="st1" d="M306.96 498.5H205.04c-3.87 0-7-3.13-7-7V334.11c0-3.87 3.13-7 7-7h101.92c3.87 0 7 3.13 7 7V491.5c0 3.87-3.13 7-7 7zm-94.92-14h87.92V341.11h-87.92V484.5z"/><path class="st1" d="M117.52 444.68c-6.86 0-13.18-2.81-17.79-7.92l-59.92-66.33a6.99 6.99 0 0 1-1.79-5.11 6.98 6.98 0 0 1 2.39-4.86l20.48-17.88a7.009 7.009 0 0 1 9.32.1l41.56 37.91 55.91-104.49a6.997 6.997 0 0 1 13.17 3.3v72.07c0 1.15-.28 2.29-.83 3.3L138.7 432a23.997 23.997 0 0 1-21.18 12.68zm-62.55-78.35l55.15 61.05c1.95 2.16 4.51 3.3 7.41 3.3 3.7 0 7.09-2.03 8.84-5.29l40.48-75.67v-42.39l-46.98 87.8a7.03 7.03 0 0 1-4.99 3.6c-2.13.37-4.31-.27-5.9-1.73l-43.6-39.76-10.41 9.09zm251.99-25.22H205.04c-3.87 0-7-3.13-7-7v-55.42c0-3.87 3.13-7 7-7h34.11c3.87 0 7 3.13 7 7 0 5.43 4.42 9.85 9.85 9.85s9.85-4.42 9.85-9.85c0-3.87 3.13-7 7-7h34.11c3.87 0 7 3.13 7 7v55.42c0 3.87-3.13 7-7 7zm-94.92-14h87.92v-41.42H278.8c-3 9.75-12.09 16.85-22.8 16.85s-19.8-7.1-22.8-16.85h-21.16v41.42z"/><path class="st1" d="M50.97 367.53c-.24 0-.48-.01-.72-.04-1.93-.2-3.7-1.19-4.87-2.75l-26.37-34.93a6.98 6.98 0 0 1-1.41-4.22v-30c0-2.76 1.62-5.26 4.14-6.39a6.984 6.984 0 0 1 7.52 1.17l15.88 14.2 5.81-2.61c1.99-.89 4.29-.81 6.2.23a7.012 7.012 0 0 1 3.58 5.07l6.83 43.71c.37 2.37-.5 4.77-2.31 6.35l-9.68 8.45a6.853 6.853 0 0 1-4.6 1.76zM31.6 323.25l20.43 27.06 1.11-.97-4.82-30.84-1.59.71a7.004 7.004 0 0 1-7.53-1.17l-7.6-6.8v12.01z"/><path class="st0" d="M205.04 498.5h-31.2c-3.87 0-7-3.13-7-7v-31.99c0-3.87 3.13-7 7-7s7 3.13 7 7v24.99h17.2V285.69h-17.2V417c0 3.87-3.13 7-7 7s-7-3.13-7-7V279.41c0-1.16.29-2.31.84-3.33l.39-.72a7.004 7.004 0 0 1 6.16-3.67h30.81c3.87 0 7 3.13 7 7V491.5c0 3.87-3.13 7-7 7z"/><path class="st0" d="M173.84 445.36c-1.84 0-3.65-.75-4.95-2.05-1.3-1.3-2.05-3.1-2.05-4.95 0-.45.05-.91.14-1.36.09-.45.22-.89.4-1.31.17-.43.39-.83.64-1.21.26-.39.55-.75.87-1.07 1.3-1.3 3.11-2.05 4.95-2.05s3.65.75 4.95 2.05c1.3 1.31 2.05 3.11 2.05 4.95s-.75 3.65-2.05 4.95a7.061 7.061 0 0 1-4.95 2.05z"/><path class="st1" d="M394.48 444.68c-8.87 0-16.99-4.86-21.18-12.67l-41.31-77.23a7.053 7.053 0 0 1-.83-3.3v-72.07c0-3.87 3.13-7 7-7s7 3.13 7 7v70.31l40.48 75.67c1.75 3.26 5.13 5.28 8.84 5.28 2.89 0 5.45-1.14 7.41-3.3l55.15-61.05-10.41-9.09-43.6 39.77a7.012 7.012 0 0 1-5.9 1.73 7.004 7.004 0 0 1-4.99-3.6l-38.01-71.04c-1.82-3.41-.54-7.65 2.87-9.47 3.41-1.82 7.65-.54 9.47 2.87l33.76 63.11 41.56-37.91a6.998 6.998 0 0 1 9.32-.1l20.48 17.88c1.41 1.23 2.27 2.99 2.38 4.86s-.54 3.71-1.79 5.11l-59.92 66.33c-4.6 5.1-10.92 7.91-17.78 7.91z"/><path class="st1" d="M461.03 367.53c-1.68 0-3.32-.61-4.6-1.73l-9.68-8.45a6.999 6.999 0 0 1-2.31-6.35l6.83-43.71a6.993 6.993 0 0 1 3.58-5.07 6.974 6.974 0 0 1 6.2-.23l5.81 2.61 15.88-14.2c2.06-1.84 5-2.3 7.52-1.17a7.001 7.001 0 0 1 4.14 6.39v30c0 1.52-.5 3-1.41 4.22l-26.37 34.93a7.036 7.036 0 0 1-4.87 2.75c-.24-.01-.48.01-.72.01zm-2.17-18.19l1.11.97 20.43-27.06v-12l-7.6 6.8a7.004 7.004 0 0 1-7.53 1.17l-1.59-.71-4.82 30.83z"/><path class="st0" d="M338.16 498.5h-31.2c-3.87 0-7-3.13-7-7V278.69c0-3.87 3.13-7 7-7h30.81c2.57 0 4.93 1.41 6.15 3.67l.39.72c.55 1.02.85 2.17.85 3.33V491.5c0 3.87-3.13 7-7 7zm-24.2-14h17.2V285.69h-17.2V484.5z"/><path class="st1" d="M239.75 165.96c-.46 0-.92-.05-1.37-.14s-.89-.22-1.31-.4c-.42-.17-.83-.39-1.21-.64-.38-.26-.74-.55-1.06-.87a7.036 7.036 0 0 1-1.92-6.32c.09-.45.23-.89.4-1.31.18-.42.39-.83.65-1.21.25-.38.54-.74.87-1.06 1.3-1.31 3.1-2.05 4.95-2.05 1.84 0 3.64.74 4.95 2.05.32.32.61.68.87 1.06.25.38.46.79.64 1.21.17.42.31.86.4 1.31s.14.91.14 1.37c0 1.84-.75 3.64-2.05 4.95a7.079 7.079 0 0 1-4.95 2.05zm32.5 0c-.45 0-.91-.05-1.36-.14-.45-.09-.89-.22-1.31-.4-.43-.17-.83-.39-1.21-.64-.39-.26-.74-.55-1.07-.87a7.079 7.079 0 0 1-2.05-4.95c0-.46.05-.92.14-1.37.09-.45.23-.89.4-1.31.18-.42.39-.83.64-1.21.26-.38.55-.74.87-1.06.33-.32.68-.62 1.07-.87.38-.25.78-.47 1.21-.65.42-.17.86-.31 1.31-.4.9-.18 1.83-.18 2.73 0 .45.09.89.23 1.31.4.42.18.83.4 1.21.65s.74.55 1.06.87a7.028 7.028 0 0 1 2.06 4.95c0 1.84-.75 3.64-2.06 4.95-.32.32-.68.61-1.06.87-.38.25-.79.47-1.21.64-.42.18-.86.31-1.31.4-.45.09-.91.14-1.37.14z"/></g></svg>