<svg viewBox="0 0 512 512" xmlns="http://www.w3.org/2000/svg"><style>.st0{fill:#16ade1}.st1{fill:#1b3954}</style><g id="Layer_2"><path class="st1" d="M185.09 130.69h-37.54c-3.87 0-7-3.13-7-7V57.83c0-3.87 3.13-7 7-7h37.54c3.87 0 7 3.13 7 7v65.87c0 3.86-3.13 6.99-7 6.99zm-30.54-14h23.54V64.83h-23.54v51.86zm30.54 381.16h-37.54c-3.87 0-7-3.13-7-7V216.13c0-3.87 3.13-7 7-7h37.54c3.87 0 7 3.13 7 7s-3.13 7-7 7h-30.54v260.73h23.54V256.29c0-3.87 3.13-7 7-7s7 3.13 7 7v234.56c0 3.87-3.13 7-7 7zm-81.37-274.73H20.5c-3.87 0-7-3.13-7-7V123.7c0-3.87 3.13-7 7-7h83.22c3.87 0 7 3.13 7 7v92.43c0 3.86-3.13 6.99-7 6.99zm-76.22-14h69.22V130.7H27.5v78.42z"/><path class="st1" d="M134.96 192.06h-31.24c-3.87 0-7-3.13-7-7v-30.13c0-3.87 3.13-7 7-7h31.24c3.87 0 7 3.13 7 7v30.13c0 3.86-3.13 7-7 7zm-24.24-14h17.24v-16.13h-17.24v16.13zm249 14H197.68c-3.87 0-7-3.13-7-7v-30.13c0-3.87 3.13-7 7-7h139.66c3.87 0 7 3.13 7 7s-3.13 7-7 7H204.68v16.13h148.04v-23.13c0-3.87 3.13-7 7-7s7 3.13 7 7v30.13c0 3.86-3.13 7-7 7zm88.17 0h-44.56c-3.87 0-7-3.13-7-7v-30.13c0-3.87 3.13-7 7-7h44.56c3.87 0 7 3.13 7 7v30.13c0 3.86-3.13 7-7 7zm-37.56-14h30.56v-16.13h-30.56v16.13z"/><path class="st1" d="M403.33 235.88h-43.61c-3.87 0-7-3.13-7-7v-84.42c0-3.87 3.13-7 7-7h43.61c3.87 0 7 3.13 7 7v84.42c0 3.87-3.13 7-7 7zm-36.61-14h29.61v-70.42h-29.61v70.42zm97.81-70.42c-1.79 0-3.58-.68-4.95-2.05L356.65 46.48h-146.5c-3.87 0-7-3.13-7-7s3.13-7 7-7h149.4c1.86 0 3.64.74 4.95 2.05l104.98 104.98a7.007 7.007 0 0 1 0 9.9 6.973 6.973 0 0 1-4.95 2.05zM62.1 130.7a6.99 6.99 0 0 1-4.07-1.31c-3.14-2.25-3.86-6.63-1.61-9.77l60.38-84.21c2.25-3.14 6.63-3.86 9.77-1.61 3.14 2.25 3.86 6.63 1.61 9.77l-60.38 84.2a7.004 7.004 0 0 1-5.7 2.93zm429.4 288.68H271.55c-3.87 0-7-3.13-7-7v-37.11c0-3.87 3.13-7 7-7H491.5c3.87 0 7 3.13 7 7v37.11c0 3.86-3.13 7-7 7zm-212.95-14H484.5v-23.11H278.55v23.11z"/><path class="st1" d="M381.53 382.27c-3.87 0-7-3.13-7-7v-62.91c0-3.87 3.13-7 7-7s7 3.13 7 7v62.91c0 3.86-3.13 7-7 7zm0-118.98c-3.87 0-7-3.13-7-7v-27.41c0-3.87 3.13-7 7-7s7 3.13 7 7v27.41c0 3.87-3.13 7-7 7zm-54.1 118.98c-1.23 0-2.48-.32-3.61-1-3.31-2-4.38-6.3-2.38-9.61l37.9-62.91c2-3.31 6.3-4.38 9.61-2.38 3.31 2 4.38 6.3 2.38 9.61l-37.9 62.91a6.995 6.995 0 0 1-6 3.38zm108.2 0c-2.37 0-4.69-1.21-6-3.39l-37.91-62.91c-2-3.31-.93-7.61 2.38-9.61 3.31-2 7.61-.93 9.61 2.38l37.91 62.91c2 3.31.93 7.61-2.38 9.61a7.022 7.022 0 0 1-3.61 1.01z"/><path class="st0" d="M210.15 64.83h-87.66c-3.87 0-7-3.13-7-7V21.15c0-3.87 3.13-7 7-7h19.91c3.87 0 7 3.13 7 7s-3.13 7-7 7h-12.91v22.68h73.66V28.15h-22.49c-3.87 0-7-3.13-7-7s3.13-7 7-7h29.49c3.87 0 7 3.13 7 7v36.68c0 3.86-3.13 7-7 7z"/><path class="st0" d="M161.43 28.15c-1.85 0-3.65-.75-4.95-2.05-.33-.33-.62-.69-.87-1.07a7.05 7.05 0 0 1-.65-1.21 7.35 7.35 0 0 1-.4-1.31c-.09-.45-.14-.91-.14-1.37 0-1.84.75-3.64 2.06-4.95 1.62-1.62 4.04-2.37 6.31-1.91.45.09.89.23 1.31.4.43.18.83.39 1.21.64a7.046 7.046 0 0 1 3.12 5.82c0 .46-.05.92-.14 1.37-.09.45-.22.89-.4 1.31s-.39.83-.64 1.21c-.26.38-.55.74-.88 1.07-.32.32-.67.61-1.06.86-.38.26-.78.47-1.21.65-.42.17-.86.31-1.31.4s-.91.14-1.36.14zm36.25 194.98h-62.72c-3.87 0-7-3.13-7-7V123.7c0-3.87 3.13-7 7-7h62.72c3.87 0 7 3.13 7 7v92.43c0 3.86-3.13 7-7 7zm-55.72-14h48.72V130.7h-48.72v78.43zm349.54-6.6h-43.61c-3.87 0-7-3.13-7-7v-51.06c0-3.87 3.13-7 7-7h43.61c3.87 0 7 3.13 7 7v51.06c0 3.86-3.13 7-7 7zm-36.61-14h29.61v-37.06h-29.61v37.06zm-57.18 130.82h-32.37c-2.5 0-4.81-1.33-6.06-3.5l-16.18-28.03a7.002 7.002 0 0 1 0-7l16.18-28.03a6.988 6.988 0 0 1 6.06-3.5h32.37c2.5 0 4.81 1.33 6.06 3.5l16.19 28.03a7.002 7.002 0 0 1 0 7l-16.19 28.03a6.988 6.988 0 0 1-6.06 3.5zm-28.33-14h24.29l12.15-21.03-12.15-21.03h-24.29l-12.14 21.03 12.14 21.03z"/></g></svg>