<svg viewBox="0 0 512 512" xmlns="http://www.w3.org/2000/svg"><style>.st0{fill:#16ade1}.st1{fill:#1b3954}</style><g id="Layer_2"><path class="st1" d="M455.94 263.15H262.62c-3.87 0-7-3.13-7-7V148.56c0-1.91.78-3.73 2.16-5.05l60.25-57.72a6.994 6.994 0 0 1 4.84-1.95h133.07c3.87 0 7 3.13 7 7v34.37c0 3.87-3.13 7-7 7s-7-3.13-7-7V97.83H325.68l-56.06 53.71v97.6h179.32v-81.69c0-3.87 3.13-7 7-7s7 3.13 7 7v88.69c0 3.88-3.13 7.01-7 7.01z"/><path class="st1" d="M455.94 153.33c-.45 0-.91-.04-1.37-.13-.44-.09-.88-.23-1.31-.4-.42-.18-.82-.39-1.2-.65-.39-.25-.75-.54-1.07-.87-.32-.32-.61-.68-.87-1.06-.25-.38-.47-.79-.64-1.21-.18-.42-.31-.86-.4-1.31-.09-.45-.14-.91-.14-1.37 0-.45.05-.91.14-1.36.09-.45.22-.89.4-1.31.17-.43.39-.83.64-1.21.26-.38.55-.74.87-1.07.32-.32.68-.61 1.07-.87.38-.25.78-.46 1.2-.64.43-.17.87-.31 1.31-.4.91-.18 1.84-.18 2.74 0 .45.09.89.23 1.31.4.42.18.83.39 1.21.64.38.26.74.55 1.06.87.32.33.62.69.87 1.07s.47.78.64 1.21c.18.42.32.86.41 1.31.09.45.13.91.13 1.36 0 .46-.04.92-.13 1.37-.09.45-.23.89-.41 1.31a6.818 6.818 0 0 1-1.51 2.27c-.32.33-.68.62-1.06.87-.38.26-.79.47-1.21.65-.42.17-.86.31-1.31.4-.45.09-.91.13-1.37.13z"/><path class="st0" d="M411.59 228.2H306.98c-3.87 0-7-3.13-7-7v-53.72c0-1.91.78-3.73 2.16-5.05l33.71-32.3a6.994 6.994 0 0 1 4.84-1.95h70.9c3.87 0 7 3.13 7 7v86.02c0 3.87-3.13 7-7 7zm-97.61-14h90.61v-72.02H343.5l-29.53 28.29v43.73z"/><path class="st1" d="M258.5 428.17c-1.84 0-3.65-.75-4.95-2.05-.32-.33-.61-.68-.87-1.07-.25-.38-.47-.78-.64-1.21-.18-.42-.31-.86-.4-1.31s-.14-.91-.14-1.36c0-.46.05-.92.14-1.37s.22-.89.4-1.31c.17-.42.39-.83.64-1.21.26-.38.55-.74.87-1.06a7.082 7.082 0 0 1 6.32-1.92c.44.09.88.23 1.31.4.42.18.83.39 1.21.65.38.25.74.54 1.06.87a6.818 6.818 0 0 1 1.51 2.27c.18.42.31.86.4 1.31.09.45.14.91.14 1.37 0 1.84-.75 3.64-2.05 4.95-.32.32-.68.61-1.06.87-.38.25-.79.46-1.21.64-.43.17-.87.31-1.31.4-.45.09-.91.14-1.37.14z"/><path class="st1" d="M454.22 428.17H281.94c-3.87 0-7-3.13-7-7s3.13-7 7-7h172.29c16.69 0 30.28-13.58 30.28-30.28v-4.18c0-16.69-13.58-30.28-30.28-30.28h-273.2c-16.69 0-30.28 13.58-30.28 30.28v4.18c0 16.69 13.58 30.28 30.28 30.28h57.12c3.87 0 7 3.13 7 7s-3.13 7-7 7h-57.12c-24.41 0-44.28-19.86-44.28-44.28v-4.18c0-24.41 19.86-44.28 44.28-44.28h273.19c24.41 0 44.28 19.86 44.28 44.28v4.18c0 24.41-19.86 44.28-44.28 44.28zm1.72-113.37H164.83c-3.87 0-7-3.13-7-7v-23.92c0-1.88.75-3.68 2.09-4.99l28.23-27.73a6.99 6.99 0 0 1 4.91-2.01h262.88c3.87 0 7 3.13 7 7v51.65c0 3.87-3.13 7-7 7zm-284.11-14h277.11v-37.65H195.92l-24.09 23.67v13.98z"/><path class="st1" d="M164.83 290.88c-1.81 0-3.62-.7-4.99-2.09a6.998 6.998 0 0 1 .09-9.9l23.13-22.72-102.6-100.23a36.45 36.45 0 0 1-7.43 9.03l70.84 83.42a7.012 7.012 0 0 1-.8 9.87c-2.95 2.5-7.37 2.14-9.87-.8l-75.84-89.3a7.003 7.003 0 0 1 2.12-10.75c5.89-3.05 10.16-8.73 11.41-15.21a7.002 7.002 0 0 1 4.79-5.35c2.46-.77 5.14-.12 6.98 1.67l115.29 112.63c1.35 1.31 2.11 3.12 2.11 5s-.75 3.68-2.09 5l-28.23 27.73c-1.37 1.33-3.14 2-4.91 2z"/><path class="st1" d="M62.91 292.27H40.84c-3.77 0-6.87-2.99-7-6.76l-4.21-121.39a7.03 7.03 0 0 1 3.2-6.13 6.997 6.997 0 0 1 6.9-.39c3.01 1.49 6.26 2.25 9.67 2.25s6.67-.76 9.68-2.25a6.994 6.994 0 0 1 6.78.31 7.006 7.006 0 0 1 3.33 5.92l.72 121.39c.01 1.86-.72 3.65-2.04 4.98a6.96 6.96 0 0 1-4.96 2.07zm-15.31-14h8.27l-.62-104.88c-3.69.6-7.58.62-11.29.06l3.64 104.82z"/><path class="st0" d="M100.66 360.94H46.9a7.01 7.01 0 0 1-5.47-2.63l-9.2-11.51a7.002 7.002 0 0 1-1.53-4.37v-57.15c0-3.87 3.13-7 7-7h33.84c3.87 0 7 3.13 7 7v37.04h10.6l19.69-19.7c2-2 5.01-2.6 7.63-1.52a6.994 6.994 0 0 1 4.32 6.47v33.61c0 1.89-.76 3.7-2.12 5.02l-13.12 12.77a7.01 7.01 0 0 1-4.88 1.97zm-50.39-14h47.55l8.96-8.72v-13.75l-9.79 9.8a7.001 7.001 0 0 1-4.95 2.05h-20.5c-3.87 0-7-3.13-7-7v-37.04H44.7v47.7l5.57 6.96zm137.62 57.14c-12.29 0-22.28-9.99-22.28-22.28s9.99-22.28 22.28-22.28c12.28 0 22.28 9.99 22.28 22.28s-10 22.28-22.28 22.28zm0-30.56c-4.57 0-8.28 3.71-8.28 8.28 0 4.57 3.71 8.28 8.28 8.28 4.56 0 8.28-3.71 8.28-8.28 0-4.57-3.71-8.28-8.28-8.28zm64.87 30.56c-12.29 0-22.28-9.99-22.28-22.28s9.99-22.28 22.28-22.28 22.28 9.99 22.28 22.28-10 22.28-22.28 22.28zm0-30.56c-4.57 0-8.28 3.71-8.28 8.28 0 4.57 3.71 8.28 8.28 8.28s8.28-3.71 8.28-8.28c0-4.57-3.72-8.28-8.28-8.28zm64.87 30.56c-12.29 0-22.28-9.99-22.28-22.28s9.99-22.28 22.28-22.28c12.28 0 22.28 9.99 22.28 22.28s-10 22.28-22.28 22.28zm0-30.56c-4.57 0-8.28 3.71-8.28 8.28 0 4.57 3.71 8.28 8.28 8.28 4.56 0 8.28-3.71 8.28-8.28 0-4.57-3.72-8.28-8.28-8.28zm64.87 30.56c-12.29 0-22.28-9.99-22.28-22.28s9.99-22.28 22.28-22.28 22.28 9.99 22.28 22.28-10 22.28-22.28 22.28zm0-30.56c-4.57 0-8.28 3.71-8.28 8.28 0 4.57 3.71 8.28 8.28 8.28s8.28-3.71 8.28-8.28c0-4.57-3.72-8.28-8.28-8.28zm64.87 30.56c-12.29 0-22.28-9.99-22.28-22.28s9.99-22.28 22.28-22.28c12.28 0 22.28 9.99 22.28 22.28s-10 22.28-22.28 22.28zm0-30.56c-4.57 0-8.28 3.71-8.28 8.28 0 4.57 3.71 8.28 8.28 8.28 4.56 0 8.28-3.71 8.28-8.28-.01-4.57-3.72-8.28-8.28-8.28zM49.4 116.04c-12.08 0-21.9 9.83-21.9 21.91 0 8.4 4.68 15.93 12.22 19.65a21.58 21.58 0 0 0 9.68 2.26c3.41 0 6.67-.76 9.68-2.25.04-.02.09-.04.13-.06l.27-.15c5.89-3.05 10.16-8.73 11.41-15.21.29-1.39.42-2.79.42-4.23.01-12.09-9.82-21.92-21.91-21.92zm0 57.82c-5.58 0-10.93-1.25-15.89-3.71-12.34-6.08-20.02-18.42-20.02-32.2 0-19.8 16.11-35.91 35.9-35.91 19.8 0 35.92 16.11 35.92 35.91 0 2.38-.23 4.73-.69 6.97-2.04 10.5-8.96 19.79-18.52 24.81-.3.17-.61.33-.93.48-4.92 2.42-10.22 3.65-15.77 3.65z"/></g></svg>