<svg width="20" height="20" viewBox="0 0 20 20" xmlns="http://www.w3.org/2000/svg"><path d="M15 17h-1V9h3a3 3 0 0 1 3 3 5 5 0 0 1-5 5zm1-6v3.83A3 3 0 0 0 18 12a1 1 0 0 0-1-1z"/><rect x="1" y="7" width="15" height="12" rx="3" ry="3"/><path d="M7.07 5.42a5.45 5.45 0 0 1 0-4.85 1 1 0 0 1 1.79.89 3.44 3.44 0 0 0 0 3.06 1 1 0 0 1-1.79.89zm-4 0a5.45 5.45 0 0 1 0-4.85 1 1 0 0 1 1.79.89 3.44 3.44 0 0 0 0 3.06 1 1 0 1 1-1.79.89zm8 0a5.45 5.45 0 0 1 0-4.85 1 1 0 0 1 1.79.89 3.44 3.44 0 0 0 0 3.06 1 1 0 1 1-1.79.89z"/></svg>